<?xml version="1.0" encoding="iso-8859-1"?>
<!-- Generator: Adobe Illustrator 19.0.0, SVG Export Plug-In . SVG Version: 6.00 Build 0)  -->
<svg version="1.1" id="Layer_1" xmlns="http://www.w3.org/2000/svg" xmlns:xlink="http://www.w3.org/1999/xlink" x="0px" y="0px"
	 viewBox="0 0 512 512" style="enable-background:new 0 0 512 512;" xml:space="preserve">
<circle style="fill:#FFFFFF;" cx="256.525" cy="288.262" r="88.656"/>
<path style="fill:#E6E6E6;" d="M256.525,199.607c-3.907,0-7.747,0.28-11.522,0.77c43.516,5.652,77.134,42.83,77.134,87.886
	s-33.618,82.235-77.134,87.886c3.774,0.49,7.614,0.77,11.522,0.77c48.963,0,88.656-39.693,88.656-88.656
	S305.488,199.607,256.525,199.607z"/>
<g>
	<rect x="241.353" y="213.77" style="fill:#FFDA44;" width="24.131" height="58.23"/>
	<polygon style="fill:#FFDA44;" points="237.115,124.59 237.115,154.492 237.115,155.016 274.885,155.016 274.885,154.492 
		274.885,124.59 	"/>
</g>
<polygon style="fill:#EDC10C;" points="274.885,124.59 256,124.59 256,154.492 256,155.016 274.885,155.016 274.885,154.492 "/>
<g>
	<rect x="212.984" y="155.016" style="fill:#FFDA44;" width="87.082" height="58.754"/>
	<rect x="256" y="155.016" style="fill:#FFDA44;" width="44.066" height="58.754"/>
</g>
<rect x="256" y="155.016" style="fill:#EDC10C;" width="44.066" height="58.754"/>
<circle style="fill:#FFFFFF;" cx="415.475" cy="415.213" r="88.656"/>
<path style="fill:#E6E6E6;" d="M415.475,326.557c-3.907,0-7.747,0.28-11.522,0.77c43.516,5.652,77.134,42.83,77.134,87.886
	s-33.618,82.235-77.134,87.886c3.774,0.49,7.614,0.77,11.522,0.77c48.963,0,88.656-39.693,88.656-88.656
	S464.439,326.557,415.475,326.557z"/>
<rect x="400.304" y="340.721" style="fill:#FFDA44;" width="24.131" height="58.23"/>
<polygon style="fill:#64C37D;" points="396.066,251.541 396.066,281.443 396.066,281.967 433.836,281.967 433.836,281.443 
	433.836,251.541 "/>
<polygon style="fill:#49AA60;" points="433.836,251.541 414.951,251.541 414.951,281.443 414.951,281.967 433.836,281.967 
	433.836,281.443 "/>
<rect x="371.934" y="281.967" style="fill:#64C37D;" width="87.082" height="58.754"/>
<rect x="414.951" y="281.967" style="fill:#49AA60;" width="44.066" height="58.754"/>
<g>
	<circle style="fill:#FFFFFF;" cx="96.525" cy="415.213" r="88.656"/>
	<circle style="fill:#FFFFFF;" cx="96.525" cy="415.213" r="88.656"/>
</g>
<path style="fill:#E6E6E6;" d="M96.525,326.557c-3.907,0-7.747,0.28-11.521,0.77c43.516,5.652,77.134,42.83,77.134,87.886
	s-33.618,82.235-77.134,87.886c3.774,0.49,7.614,0.77,11.521,0.77c48.963,0,88.656-39.693,88.656-88.656
	S145.488,326.557,96.525,326.557z"/>
<rect x="81.353" y="340.721" style="fill:#FFDA44;" width="24.131" height="58.23"/>
<g>
	<polyline style="fill:#D80027;" points="77.115,281.443 77.115,251.541 114.885,251.541 114.885,281.443 	"/>
	<rect x="77.115" y="251.541" style="fill:#D80027;" width="37.77" height="30.426"/>
</g>
<rect x="96" y="251.541" style="fill:#BC052F;" width="18.885" height="30.426"/>
<rect x="52.984" y="281.967" style="fill:#D80027;" width="87.082" height="58.754"/>
<rect x="96" y="281.967" style="fill:#BC052F;" width="44.066" height="58.754"/>
<polygon points="273.35,236.328 257.613,236.328 257.613,264.131 249.219,264.131 249.219,236.328 233.481,236.328 233.481,279.869 
	273.35,279.869 "/>
<path d="M353.049,288.262c0-33.178-17.183-64.08-45.115-81.694v-59.42h-25.18v-30.426h-53.508v30.426h-24.131v59.42
	C177.161,224.186,160,255.01,160,288.262c0,53.224,43.301,96.525,96.525,96.525S353.049,341.486,353.049,288.262z M244.984,132.459
	h22.033v14.689h-22.033V132.459z M220.852,162.885h71.344v43.016h-71.344V162.885z M256.525,369.049
	c-44.546,0-80.787-36.241-80.787-80.787c0-26.755,13.274-51.635,35.09-66.623h91.385c21.803,14.99,35.099,39.926,35.099,66.623
	C337.311,332.808,301.071,369.049,256.525,369.049z"/>
<path d="M310.715,288.262c0,29.881-24.31,54.19-54.19,54.19v15.738c38.558,0,69.928-31.369,69.928-69.928H310.715z"/>
<rect x="248.131" y="0.262" width="15.738" height="101.77"/>
<polygon points="432.301,363.279 416.563,363.279 416.563,391.082 408.17,391.082 408.17,363.279 392.432,363.279 392.432,406.82 
	432.301,406.82 "/>
<path d="M466.885,333.519v-59.42h-25.18v-30.426h-53.508v30.426h-24.131v59.421c-27.931,17.614-45.115,48.515-45.115,81.693
	c0,53.224,43.302,96.525,96.525,96.525S512,468.437,512,415.213C512,382.036,494.816,351.133,466.885,333.519z M403.934,259.41
	h22.033v14.689h-22.033V259.41z M379.803,289.836h71.344v43.016h-71.344V289.836z M415.475,496
	c-44.546,0-80.787-36.241-80.787-80.787c0-26.696,13.296-51.633,35.099-66.623h91.375c21.803,14.99,35.099,39.927,35.099,66.623
	C496.262,459.759,460.021,496,415.475,496z"/>
<path d="M469.666,415.213c0,29.881-24.31,54.19-54.19,54.19v15.738c38.558,0,69.928-31.369,69.928-69.928H469.666z"/>
<rect x="407.082" y="0.262" width="15.738" height="228.721"/>
<polygon points="113.35,363.279 97.613,363.279 97.613,391.082 89.219,391.082 89.219,363.279 73.481,363.279 73.481,406.82 
	113.35,406.82 "/>
<path d="M147.934,333.514v-59.416h-25.18v-30.426H69.246v30.426H45.115v59.422C17.176,351.137,0,382.013,0,415.213
	c0,53.224,43.301,96.525,96.525,96.525s96.525-43.301,96.525-96.525c0-20.465-6.324-40.02-18.291-56.549
	C167.548,348.705,158.336,340.084,147.934,333.514z M84.984,259.41h22.033v14.689H84.984V259.41z M60.852,289.836h71.344v43.016
	H60.852V289.836z M177.311,415.213c0,44.546-36.241,80.787-80.787,80.787s-80.787-36.241-80.787-80.787
	c0-26.715,13.291-51.634,35.097-66.623h91.341c7.629,5.25,14.414,11.814,19.835,19.303
	C172.02,381.72,177.311,398.083,177.311,415.213z"/>
<path d="M96.525,469.403v15.738c38.558,0,69.928-31.369,69.928-69.928h-15.738C150.715,445.094,126.405,469.403,96.525,469.403z"/>
<rect x="88.131" y="0.262" width="15.738" height="228.721"/>
<g>
</g>
<g>
</g>
<g>
</g>
<g>
</g>
<g>
</g>
<g>
</g>
<g>
</g>
<g>
</g>
<g>
</g>
<g>
</g>
<g>
</g>
<g>
</g>
<g>
</g>
<g>
</g>
<g>
</g>
</svg>
