<?xml version="1.0" encoding="iso-8859-1"?>
<!-- Generator: Adobe Illustrator 19.0.0, SVG Export Plug-In . SVG Version: 6.00 Build 0)  -->
<svg version="1.1" id="Layer_1" xmlns="http://www.w3.org/2000/svg" xmlns:xlink="http://www.w3.org/1999/xlink" x="0px" y="0px"
	 viewBox="0 0 512 512" style="enable-background:new 0 0 512 512;" xml:space="preserve">
<path style="fill:#FFDA44;" d="M256,147.552c19.293,0,37.865,3.076,55.267,8.745V79.772H200.733v76.525
	C218.135,150.628,236.707,147.552,256,147.552z"/>
<path style="fill:#EDC10C;" d="M311.267,156.297V79.772h-34.411v69C288.721,150.155,300.229,152.701,311.267,156.297z"/>
<circle style="fill:#64C37D;" cx="256" cy="325.866" r="178.314"/>
<path style="fill:#FFFFFF;" d="M100.627,325.866c0-94.625,73.71-172.022,166.843-177.936c-3.794-0.241-7.615-0.377-11.47-0.377
	c-98.48,0-178.314,79.833-178.314,178.314S157.52,504.179,256,504.179c3.855,0,7.677-0.137,11.47-0.378
	C174.338,497.887,100.627,420.491,100.627,325.866z"/>
<path style="fill:#49AA60;" d="M256,147.552c-5.805,0-11.542,0.287-17.206,0.83c90.406,8.657,161.108,84.81,161.108,177.484
	S329.2,494.692,238.794,503.349c5.663,0.542,11.401,0.83,17.206,0.83c98.48,0,178.314-79.833,178.314-178.314
	S354.48,147.552,256,147.552z"/>
<g>
	<line style="fill:none;stroke:#FFFFFF;stroke-width:15;stroke-miterlimit:10;" x1="256" y1="249.743" x2="256" y2="401.988"/>
	<polyline style="fill:none;stroke:#FFFFFF;stroke-width:15;stroke-miterlimit:10;" points="283.292,265.817 256,293.108 
		228.708,265.817 	"/>
	<polyline style="fill:none;stroke:#FFFFFF;stroke-width:15;stroke-miterlimit:10;" points="228.708,385.915 256,358.623 
		283.292,385.915 	"/>
	
		<line style="fill:none;stroke:#FFFFFF;stroke-width:15;stroke-miterlimit:10;" x1="332.122" y1="325.866" x2="179.878" y2="325.866"/>
	<polyline style="fill:none;stroke:#FFFFFF;stroke-width:15;stroke-miterlimit:10;" points="316.049,353.158 288.758,325.866 
		316.049,298.573 	"/>
	<polyline style="fill:none;stroke:#FFFFFF;stroke-width:15;stroke-miterlimit:10;" points="195.951,298.573 223.242,325.866 
		195.951,353.158 	"/>
</g>
<path d="M208.554,87.593h94.892v45.36h15.642V71.951h-55.267V52.006c10.857-3.347,18.77-13.475,18.77-25.415
	C282.591,11.928,270.661,0,256,0c-14.662,0-26.591,11.928-26.591,26.591c0,11.941,7.913,22.067,18.77,25.415v19.945h-55.267v61.002
	h15.642V87.593z M256,15.642c6.038,0,10.949,4.911,10.949,10.949S262.038,37.54,256,37.54c-6.038,0-10.949-4.911-10.949-10.949
	S249.962,15.642,256,15.642z"/>
<path d="M405.868,215.458c-23.251-31.51-55.126-54.544-92.18-66.612c-18.572-6.048-37.981-9.115-57.688-9.115
	c-102.635,0-186.134,83.5-186.134,186.134S153.365,512,256,512s186.134-83.5,186.134-186.134
	C442.134,285.79,429.594,247.612,405.868,215.458z M256,496.358c-94.01,0-170.493-76.483-170.493-170.493
	S161.99,155.373,256,155.373c18.06,0,35.84,2.808,52.846,8.345c33.935,11.052,63.133,32.155,84.437,61.026
	c21.726,29.446,33.21,64.413,33.21,101.122C426.493,419.875,350.01,496.358,256,496.358z"/>
<path d="M364.452,281.883c2.935,7.233,5.148,14.793,6.574,22.471l15.379-2.856c-1.618-8.711-4.128-17.29-7.46-25.497
	L364.452,281.883z"/>
<path d="M280.368,195.46l-2.856,15.379c30.917,5.743,58.66,24.159,76.117,50.525l13.042-8.634
	C346.887,222.848,315.432,201.974,280.368,195.46z"/>
<polygon style="fill:#FFFFFF;" points="321.58,304.103 310.519,293.043 285.518,318.045 263.821,318.045 263.821,296.348 
	288.822,271.346 277.763,260.286 263.821,274.228 263.821,249.743 248.179,249.743 248.179,274.228 234.237,260.286 
	223.178,271.346 248.179,296.348 248.179,318.045 226.482,318.045 201.481,293.043 190.42,304.103 204.362,318.045 179.878,318.045 
	179.878,333.686 204.362,333.686 190.42,347.628 201.481,358.688 226.482,333.686 248.179,333.686 248.179,355.383 223.178,380.385 
	234.237,391.445 248.179,377.504 248.179,401.988 263.821,401.988 263.821,377.504 277.763,391.445 288.822,380.385 
	263.821,355.383 263.821,333.686 285.518,333.686 310.519,358.688 321.58,347.628 307.638,333.686 332.122,333.686 332.122,318.045 
	307.638,318.045 "/>
<g>
</g>
<g>
</g>
<g>
</g>
<g>
</g>
<g>
</g>
<g>
</g>
<g>
</g>
<g>
</g>
<g>
</g>
<g>
</g>
<g>
</g>
<g>
</g>
<g>
</g>
<g>
</g>
<g>
</g>
</svg>
