<?xml version="1.0" encoding="iso-8859-1"?>
<!-- Generator: Adobe Illustrator 19.0.0, SVG Export Plug-In . SVG Version: 6.00 Build 0)  -->
<svg version="1.1" id="Layer_1" xmlns="http://www.w3.org/2000/svg" xmlns:xlink="http://www.w3.org/1999/xlink" x="0px" y="0px"
	 viewBox="0 0 511.999 511.999" style="enable-background:new 0 0 511.999 511.999;" xml:space="preserve">
<path style="fill:#D80027;" d="M415.688,309.541c-7.423-6.038-15.098-12.283-22.255-18.699c-8.678-7.78-18.017-16.178-24.264-25.861
	c-1.062,0.117-2.138,0.183-3.231,0.183s-2.169-0.066-3.231-0.183c-6.247,9.683-15.586,18.08-24.264,25.861
	c-7.156,6.416-14.831,12.661-22.255,18.699c-27.908,22.703-54.268,44.147-54.268,73.687c0,35.939,43.068,67.893,71.566,89.037
	c1.966,1.459,3.875,2.875,5.711,4.247c12.43,9.296,21.768,17.964,26.741,28.332c4.973-10.368,14.311-19.036,26.74-28.332
	c1.835-1.373,3.744-2.788,5.712-4.248c28.498-21.144,71.566-53.097,71.566-89.036C469.956,353.688,443.596,332.244,415.688,309.541z
	"/>
<path style="fill:#BC052F;" d="M415.688,309.541c-7.423-6.038-15.098-12.283-22.255-18.699c-8.678-7.78-18.017-16.178-24.264-25.861
	c-1.062,0.117-2.138,0.183-3.231,0.183c-1.092,0-2.168-0.066-3.228-0.183c-2.276,3.523-4.956,6.878-7.87,10.093
	c5.093,5.618,10.878,10.818,16.397,15.767c7.156,6.416,14.831,12.661,22.255,18.699c27.908,22.703,54.268,44.147,54.268,73.687
	c0,35.939-43.068,67.892-71.566,89.036c-1.966,1.46-3.875,2.875-5.712,4.248c-5.981,4.472-11.236,8.8-15.643,13.242
	c4.754,4.789,8.518,9.71,11.099,15.09c4.973-10.368,14.311-19.036,26.74-28.332c1.835-1.373,3.744-2.788,5.712-4.248
	c28.498-21.144,71.566-53.097,71.566-89.036C469.956,353.688,443.596,332.244,415.688,309.541z"/>
<g>
	<path style="fill:#FFFFFF;" d="M432.84,323.771l-167.242,77.986c5.628,14.472,17.108,28.023,30.127,40.14l169.791-79.175
		C459.276,348.531,447.057,336.046,432.84,323.771z"/>
	<path style="fill:#FFFFFF;" d="M369.164,264.983c-1.06,0.117-2.135,0.182-3.226,0.182c-1.093,0-2.169-0.066-3.231-0.183
		c-6.247,9.683-15.586,18.08-24.264,25.861c-7.156,6.416-14.831,12.661-22.255,18.699c-12.4,10.087-24.488,19.927-34.1,30.338
		l109.231-50.935C383.264,281.697,374.907,273.883,369.164,264.983z"/>
	<path style="fill:#FFFFFF;" d="M339.197,476.513c12.43,9.296,21.768,17.964,26.741,28.332c4.973-10.368,14.311-19.036,26.74-28.332
		c1.835-1.373,3.744-2.788,5.712-4.248c17.681-13.119,40.968-30.4,56.101-50.211l-115.868,54.03
		C338.813,476.226,339.009,476.373,339.197,476.513z"/>
</g>
<g>
	<path style="fill:#E6E6E6;" d="M371.235,290.842c1.823,1.638,3.68,3.262,5.559,4.871l14.521-6.771
		c-8.053-7.242-16.407-15.056-22.15-23.959c-1.061,0.117-2.136,0.182-3.227,0.182c-1.093,0-2.169-0.066-3.231-0.183
		c-2.275,3.522-4.955,6.877-7.873,10.098C359.925,280.695,365.718,285.893,371.235,290.842z"/>
	<path style="fill:#E6E6E6;" d="M446.368,371.654l19.152-8.934c-6.247-14.188-18.464-26.675-32.681-38.949l-14.579,6.799
		C431.889,343.227,442.667,356.388,446.368,371.654z"/>
	<path style="fill:#E6E6E6;" d="M376.1,472.264c-1.966,1.46-3.875,2.875-5.712,4.248c-5.96,4.456-11.198,8.77-15.596,13.195
		c4.774,4.804,8.556,9.74,11.146,15.137c4.973-10.368,14.311-19.036,26.74-28.332c1.835-1.373,3.744-2.788,5.712-4.248
		c17.681-13.119,40.968-30.4,56.101-50.211l-38.752,18.07C402.829,452.429,388.161,463.316,376.1,472.264z"/>
</g>
<circle style="fill:#FFDA44;" cx="365.938" cy="236.106" r="29.055"/>
<path style="fill:#D80027;" d="M195.811,205.885c-7.423-6.038-15.098-12.283-22.255-18.699
	c-8.678-7.781-18.017-16.178-24.264-25.861c-1.062,0.117-2.138,0.183-3.231,0.183c-1.093,0-2.169-0.066-3.231-0.183
	c-6.247,9.682-15.586,18.08-24.264,25.861c-7.156,6.416-14.831,12.66-22.255,18.699c-27.908,22.703-54.268,44.147-54.268,73.687
	c0,35.939,43.068,67.893,71.566,89.037c1.966,1.458,3.875,2.875,5.711,4.247c12.43,9.296,21.768,17.964,26.741,28.332
	c4.973-10.368,14.311-19.036,26.74-28.332c1.835-1.373,3.744-2.788,5.712-4.248c28.498-21.144,71.566-53.097,71.566-89.036
	C250.078,250.032,223.718,228.588,195.811,205.885z"/>
<path style="fill:#BC052F;" d="M195.811,205.885c-7.423-6.038-15.098-12.283-22.255-18.699
	c-8.678-7.781-18.017-16.178-24.264-25.861c-1.062,0.117-2.138,0.183-3.231,0.183c-1.092,0-2.168-0.066-3.229-0.183
	c-2.275,3.523-4.956,6.878-7.87,10.092c5.093,5.618,10.878,10.818,16.397,15.767c7.156,6.416,14.831,12.66,22.255,18.699
	c27.908,22.703,54.268,44.147,54.268,73.687c0,35.939-43.068,67.892-71.566,89.036c-1.966,1.46-3.875,2.875-5.712,4.248
	c-5.981,4.472-11.236,8.8-15.643,13.242c4.752,4.789,8.518,9.71,11.099,15.09c4.973-10.368,14.311-19.036,26.74-28.332
	c1.835-1.373,3.745-2.788,5.712-4.248c28.498-21.144,71.566-53.097,71.566-89.036C250.078,250.032,223.718,228.588,195.811,205.885z
	"/>
<g>
	<path style="fill:#FFFFFF;" d="M212.963,220.115L45.721,298.101c5.628,14.472,17.108,28.023,30.127,40.14l169.791-79.175
		C239.398,244.874,227.18,232.389,212.963,220.115z"/>
	<path style="fill:#FFFFFF;" d="M149.287,161.326c-1.06,0.117-2.135,0.182-3.226,0.182c-1.093,0-2.169-0.066-3.231-0.183
		c-6.247,9.682-15.586,18.08-24.264,25.861c-7.156,6.416-14.831,12.66-22.255,18.699c-12.4,10.087-24.488,19.927-34.1,30.338
		l109.231-50.935C163.387,178.04,155.03,170.227,149.287,161.326z"/>
	<path style="fill:#FFFFFF;" d="M119.32,372.856c12.43,9.296,21.768,17.964,26.741,28.332c4.973-10.368,14.311-19.036,26.74-28.332
		c1.835-1.373,3.745-2.788,5.712-4.248c17.681-13.119,40.968-30.4,56.101-50.211l-115.868,54.03
		C118.934,372.57,119.132,372.716,119.32,372.856z"/>
</g>
<g>
	<path style="fill:#E6E6E6;" d="M226.491,267.998l19.152-8.934c-6.247-14.188-18.464-26.675-32.681-38.95l-14.579,6.8
		C212.011,239.571,222.79,252.731,226.491,267.998z"/>
	<path style="fill:#E6E6E6;" d="M151.358,187.186c1.823,1.638,3.68,3.262,5.559,4.871l14.521-6.771
		c-8.053-7.242-16.407-15.056-22.15-23.958c-1.061,0.117-2.136,0.182-3.227,0.182c-1.093,0-2.171-0.066-3.231-0.183
		c-2.276,3.522-4.955,6.877-7.873,10.098C140.048,177.039,145.841,182.236,151.358,187.186z"/>
	<path style="fill:#E6E6E6;" d="M156.222,368.608c-1.966,1.46-3.875,2.875-5.712,4.248c-5.96,4.456-11.198,8.77-15.596,13.195
		c4.776,4.804,8.556,9.74,11.146,15.137c4.973-10.368,14.311-19.036,26.74-28.332c1.835-1.373,3.745-2.788,5.712-4.248
		c17.681-13.119,40.968-30.4,56.101-50.211l-38.751,18.07C182.952,348.773,168.284,359.66,156.222,368.608z"/>
</g>
<circle style="fill:#FFDA44;" cx="146.061" cy="132.45" r="29.055"/>
<path d="M458.587,428.774c10.868-13.836,18.404-29.311,18.404-46.252c0-34.363-28.309-57.392-55.685-79.664
	c-6.739-5.481-13.706-11.15-20.068-16.854c-6.896-6.183-13.114-11.946-17.524-17.562c11.395-6.29,19.133-18.423,19.133-32.333
	c0-20.351-16.558-36.908-36.908-36.908c-20.35,0-36.908,16.557-36.908,36.908c0,13.911,7.739,26.044,19.134,32.333
	c-4.409,5.615-10.628,11.379-17.524,17.561c-6.363,5.704-13.33,11.373-20.069,16.854c-27.377,22.271-55.685,45.301-55.685,79.664
	c0,40.694,43.462,72.941,72.222,94.278c1.806,1.34,3.558,2.641,5.244,3.9c14.65,10.955,22.59,19.188,22.59,31.299h21.994
	c0-12.11,7.94-20.343,22.59-31.299c1.685-1.261,3.437-2.56,5.244-3.9c16.771-12.443,38.539-28.598,53.776-47.972l0.056-0.026
	L458.587,428.774z M365.938,214.907c11.691,0,21.202,9.511,21.202,21.202s-9.511,21.202-21.202,21.202
	c-11.691,0-21.202-9.511-21.202-21.202S354.247,214.907,365.938,214.907z M341.124,297.699c9.357-8.39,17.663-16.194,23.059-24.726
	c0.582,0.027,1.166,0.044,1.755,0.044c0.588,0,1.174-0.017,1.755-0.044c2.885,4.56,6.6,8.912,10.864,13.258l-53.112,24.767
	C330.739,306.667,336.068,302.232,341.124,297.699z M285.599,346.907l105.284-49.094c6.607,5.916,13.674,11.668,20.511,17.23
	c2.637,2.145,5.257,4.278,7.84,6.409l-147.869,68.952c-0.49-2.603-0.775-5.23-0.775-7.881
	C270.592,369.233,276.516,357.696,285.599,346.907z M276.635,405.276l155.686-72.597c9.275,8.413,17.27,17.022,22.496,26.371
	L297.63,432.346C289.083,423.93,281.563,414.841,276.635,405.276z M310.24,443.795l150.155-70.018
	c0.573,2.835,0.89,5.743,0.89,8.746c0,11.776-5.127,23.112-12.896,33.712L339.97,466.791c-1.145-0.852-2.308-1.716-3.503-2.604
	C328.469,458.255,319.227,451.392,310.24,443.795z M395.411,464.188c-1.822,1.353-3.59,2.664-5.291,3.936
	c-10.947,8.186-19.332,15.867-24.182,24.864c-2.917-5.412-7.113-10.349-12.378-15.204l61.783-28.81
	C408.418,454.531,401.548,459.635,395.411,464.188z"/>
<rect x="358.085" width="15.706" height="183.231"/>
<path d="M238.709,325.119c10.868-13.836,18.404-29.312,18.404-46.253c0-34.363-28.309-57.392-55.686-79.664
	c-6.739-5.481-13.706-11.15-20.068-16.854c-6.896-6.183-13.114-11.946-17.523-17.562c11.395-6.29,19.134-18.424,19.134-32.333
	c0-20.351-16.557-36.908-36.908-36.908s-36.908,16.557-36.908,36.908c0,13.91,7.738,26.044,19.132,32.333
	c-4.407,5.615-10.619,11.372-17.523,17.562c-6.363,5.704-13.33,11.373-20.069,16.855c-27.377,22.271-55.685,45.3-55.685,79.663
	c0,40.693,43.46,72.94,72.22,94.277c1.806,1.34,3.56,2.641,5.246,3.902c14.651,10.955,22.59,19.188,22.59,31.299h21.994
	c0-12.11,7.94-20.343,22.591-31.299c1.686-1.261,3.44-2.561,5.246-3.902c16.77-12.443,38.537-28.597,53.773-47.971l0.055-0.026
	L238.709,325.119z M146.061,111.251c11.691,0,21.202,9.511,21.202,21.202s-9.511,21.202-21.202,21.202s-21.202-9.511-21.202-21.202
	C124.858,120.762,134.37,111.251,146.061,111.251z M121.247,194.043c9.37-8.401,17.656-16.188,23.052-24.726
	c0.584,0.027,1.172,0.045,1.763,0.045c0.588,0,1.174-0.017,1.756-0.044c2.884,4.56,6.599,8.912,10.863,13.258l-53.112,24.767
	C110.861,203.011,116.19,198.575,121.247,194.043z M65.722,243.25l105.282-49.094c6.607,5.916,13.673,11.667,20.511,17.23
	c2.637,2.145,5.258,4.279,7.84,6.409L51.488,286.747c-0.49-2.604-0.775-5.23-0.775-7.881
	C50.714,265.576,56.638,254.04,65.722,243.25z M56.758,301.619l155.687-72.598c9.275,8.413,17.27,17.022,22.496,26.371
	L77.752,328.689C69.205,320.273,61.684,311.186,56.758,301.619z M90.363,340.139l150.156-70.019c0.573,2.835,0.89,5.744,0.89,8.746
	c0,11.776-5.128,23.112-12.896,33.714l-108.419,50.556c-1.147-0.853-2.31-1.718-3.505-2.605
	C108.59,354.597,99.348,347.735,90.363,340.139z M175.536,360.531c-1.823,1.353-3.591,2.665-5.293,3.937
	c-10.946,8.186-19.331,15.867-24.181,24.864c-2.917-5.412-7.113-10.349-12.378-15.204l61.782-28.81
	C188.542,350.875,181.672,355.978,175.536,360.531z"/>
<rect x="138.208" width="15.706" height="79.575"/>
<g>
</g>
<g>
</g>
<g>
</g>
<g>
</g>
<g>
</g>
<g>
</g>
<g>
</g>
<g>
</g>
<g>
</g>
<g>
</g>
<g>
</g>
<g>
</g>
<g>
</g>
<g>
</g>
<g>
</g>
</svg>
