<?xml version="1.0" encoding="iso-8859-1"?>
<!-- Generator: Adobe Illustrator 19.0.0, SVG Export Plug-In . SVG Version: 6.00 Build 0)  -->
<svg version="1.1" id="Layer_1" xmlns="http://www.w3.org/2000/svg" xmlns:xlink="http://www.w3.org/1999/xlink" x="0px" y="0px"
	 viewBox="0 0 512 512" style="enable-background:new 0 0 512 512;" xml:space="preserve">
<rect x="96.337" y="474.957" style="fill:#64C37D;" width="317.229" height="29.219"/>
<rect x="96.337" y="474.957" style="fill:#FFFFFF;" width="22.436" height="29.219"/>
<rect x="379.652" y="474.957" style="fill:#49AA60;" width="33.914" height="29.219"/>
<path style="fill:#FFFFFF;" d="M474.123,179.757l-5.515-2.633c-4.356-2.031-7.036-6.415-7.036-11.221v-38.962l-53.219,18.55v86.638
	c0,4.806-3.021,9.177-7.377,11.208l-2.54,1.136c-8.592,4.007-12.37,14.473-8.363,22.821h0.208
	c3.256,7.305,10.768,10.733,18.073,9.746v34.081h53.219v-99.484c7.305,2.658,17.011-0.694,20.777-9.042h0.039
	C486.395,194.249,482.716,183.765,474.123,179.757z"/>
<path style="fill:#E6E6E6;" d="M482.39,202.597h-0.042c-3.767,8.348-13.472,11.698-20.776,9.037v99.489h-22.436V134.768
	l22.436-7.826v38.965c0,4.8,2.682,9.183,7.033,11.218l5.52,2.63C482.714,183.761,486.397,194.249,482.39,202.597z"/>
<path style="fill:#FF9811;" d="M458.273,91.227c0,13.831-11.212,25.042-25.042,25.042s-25.042-11.212-25.042-25.042
	s25.042-43.593,25.042-43.593S458.273,77.397,458.273,91.227z"/>
<path style="fill:#FFFFFF;" d="M37.875,178.714l5.515-2.633c4.356-2.031,7.036-6.415,7.036-11.221v-38.962l53.219,18.55v86.638
	c0,4.806,3.021,9.177,7.377,11.208l2.54,1.136c8.592,4.007,12.37,14.473,8.363,22.821h-0.208
	c-3.256,7.305-10.768,10.733-18.073,9.746v34.081H50.425v-99.484c-7.305,2.658-17.011-0.694-20.777-9.042h-0.039
	C25.603,193.205,29.282,182.721,37.875,178.714z"/>
<path style="fill:#E6E6E6;" d="M121.928,266.252h-0.209c-3.256,7.305-10.769,10.727-18.074,9.746v34.081H81.21V136.626l22.436,7.826
	v86.633c0,4.811,3.026,9.183,7.378,11.207l2.536,1.137C122.157,247.437,125.935,257.903,121.928,266.252z"/>
<path style="fill:#FF9811;" d="M53.726,90.184c0,13.831,11.212,25.042,25.042,25.042s25.042-11.212,25.042-25.042
	S78.768,46.591,78.768,46.591S53.726,76.353,53.726,90.184z"/>
<path style="fill:#FFFFFF;" d="M217.593,144.278l5.398-2.633c4.356-2.031,6.92-6.415,6.92-11.221V91.462l53.219,18.55v86.639
	c0,4.806,3.138,9.177,7.493,11.208l2.598,1.136c8.592,4.007,12.428,14.473,8.421,22.821h-0.208
	c-3.256,7.305-11.002,10.733-18.306,9.746v34.081H229.91V176.16c-7.305,2.658-16.778-0.694-20.544-9.042h-0.038
	C205.322,158.769,209.001,148.285,217.593,144.278z"/>
<path style="fill:#E6E6E6;" d="M301.642,231.815h-0.209c-3.256,7.305-10.999,10.727-18.303,9.746v34.081h-22.436V102.19
	l22.436,7.826v86.633c0,4.811,3.141,9.183,7.492,11.207l2.598,1.137C301.82,213.001,305.65,223.467,301.642,231.815z"/>
<path style="fill:#FF9811;" d="M233.443,55.748c0,13.831,11.212,25.042,25.042,25.042c13.831,0,25.042-11.212,25.042-25.042
	s-25.042-43.593-25.042-43.593S233.443,41.917,233.443,55.748z"/>
<path d="M88.514,512h332.882v-44.871H88.514C88.514,467.129,88.514,512,88.514,512z M104.167,482.781h301.577v13.566H104.167
	C104.167,496.347,104.167,482.781,104.167,482.781z"/>
<path d="M88.629,363.706c14.205,14.205,32.962,22.029,52.813,22.029h106.208v63.655h15.653V283.47h47.48v-15.653h-19.827v-18.78
	c5.995-1.226,11.297-4.536,14.915-9.395h0.697l2.131-4.44c2.825-5.886,3.139-12.599,0.884-18.904
	c-2.267-6.337-7.024-11.584-13.053-14.395l-2.665-1.168c-1.717-0.829-2.908-2.498-2.908-4.083v-92.199l-25.044-8.729V87.76
	c14.557-3.376,25.443-16.443,25.443-32.012c0-15.881-22.392-43.297-26.881-48.631L258.487,0l-5.989,7.116
	c-4.489,5.334-26.881,32.751-26.881,48.631c0,15.284,10.486,28.165,24.643,31.826v2.694l-28.175-9.821v49.978
	c0,1.884-0.897,3.427-2.401,4.127l-5.465,2.665c-6.021,2.83-10.585,7.881-12.856,14.23c-2.268,6.341-1.945,13.11,0.91,19.058
	l2.169,4.44h0.497c4.157,5.597,10.451,9.13,17.145,9.843v83.03H200.17v15.653h47.48v86.612H141.443
	c-15.671,0-30.496-6.194-41.745-17.445c-9.554-9.553-15.445-21.691-17.009-34.731h47.567v-15.653h-18.783v-18.812
	c5.891-1.244,11.108-4.541,14.686-9.363h0.692l2.132-4.44c2.835-5.908,3.154-12.64,0.894-18.957
	c-2.292-6.408-6.91-11.501-13.004-14.343l-2.582-1.155c-1.686-0.805-2.816-2.446-2.816-4.096V138.89l-25.044-8.729v-8.017
	c14.44-3.461,25.209-16.472,25.209-31.959c0-15.881-22.392-43.297-26.88-48.631l-5.989-7.117l-5.989,7.117
	c-4.488,5.334-26.88,32.751-26.88,48.631c0,15.368,10.602,28.301,24.875,31.882v2.638l-28.175-9.821v49.978
	c0,1.822-0.964,3.404-2.583,4.158l-5.484,2.618c-6.037,2.827-10.614,7.884-12.888,14.244c-2.269,6.341-1.946,13.11,0.909,19.059
	l2.169,4.44h0.531c4.188,5.528,10.601,9.067,17.345,9.803v83.07H19.644v15.653h47.294C68.555,335.13,76.11,351.187,88.629,363.706z
	 M241.27,55.748c0-5.556,8.128-19.042,17.217-31.038c9.088,11.996,17.216,25.483,17.216,31.038c0,9.493-7.723,17.216-17.216,17.216
	C248.994,72.964,241.27,65.241,241.27,55.748z M227.235,168.806c-3.534,1.286-8.691-0.378-10.734-4.906l-0.479-1.042
	c-0.679-1.935-0.657-4.081,0.079-6.14c0.86-2.405,2.565-4.303,4.8-5.346l5.465-2.665c7.016-3.303,11.371-10.301,11.371-18.282
	v-27.945L256,108.844v47.317h15.653V114.3l3.652,1.273v81.078c0,7.715,4.716,14.897,12.013,18.301l2.671,1.17
	c2.231,1.065,3.999,3.046,4.858,5.446c0.589,1.649,0.718,3.347,0.39,4.936l-0.947,2.124c-1.901,4.265-6.456,5.669-10.112,5.178
	l-8.874-1.198v35.209h-37.567V164.983L227.235,168.806z M61.552,90.184c0-5.556,8.128-19.042,17.216-31.038
	c9.088,11.996,17.216,25.483,17.216,31.038c0,9.493-7.723,17.216-17.216,17.216S61.552,99.677,61.552,90.184z M47.75,203.242
	c-3.555,1.292-8.936-0.403-10.967-4.906l-0.478-1.041c-0.679-1.936-0.657-4.082,0.079-6.141c0.86-2.405,2.565-4.303,4.8-5.346
	l5.514-2.633c7.02-3.273,11.556-10.461,11.556-18.314v-27.945l3.652,1.273v54.496h15.653v-49.04l18.262,6.365v81.078
	c0,7.747,4.669,14.931,11.894,18.301l2.589,1.158c2.252,1.064,3.967,2.982,4.834,5.405c0.593,1.656,0.72,3.365,0.389,4.969
	l-0.956,2.144c-2.021,4.533-6.586,5.618-9.876,5.177l-8.874-1.198v35.209H58.254V199.422L47.75,203.242z"/>
<path d="M469.398,303.296v-83.07c6.744-0.737,13.158-4.276,17.345-9.803h0.57l2.131-4.44c2.854-5.947,3.178-12.716,0.91-19.058
	c-2.276-6.361-6.851-11.417-12.888-14.244l-5.549-2.65c-1.553-0.724-2.518-2.306-2.518-4.128v-49.978l-28.175,9.821v-2.638
	c14.273-3.579,24.876-16.514,24.876-31.882c0-15.881-22.392-43.297-26.881-48.631l-5.988-7.116l-5.988,7.116
	c-4.489,5.334-26.882,32.751-26.882,48.631c0,15.486,10.769,28.496,25.209,31.959v8.017l-25.044,8.729v92.199
	c0,1.65-1.129,3.289-2.815,4.096l-2.583,1.155c-6.095,2.843-10.715,7.936-13.005,14.343c-2.259,6.317-1.941,13.049,0.893,18.957
	l2.131,4.44h0.693c3.577,4.822,8.795,8.119,14.685,9.365v18.81h-18.783v15.653h46.401c-3.909,28.838-28.47,51.132-58.109,51.132
	h-91.599v15.653h91.599c38.277,0,69.879-29.294,73.883-66.785h48.439v-15.653L469.398,303.296L469.398,303.296z M416.014,91.227
	c0-5.556,8.128-19.042,17.217-31.038c9.088,11.996,17.216,25.483,17.216,31.038c0,9.493-7.723,17.216-17.216,17.216
	C423.737,108.443,416.014,100.72,416.014,91.227z M416.179,303.296v-35.209l-8.874,1.198c-3.292,0.441-7.856-0.644-9.876-5.177
	l-0.957-2.147c-0.331-1.602-0.202-3.311,0.388-4.966c0.867-2.422,2.583-4.34,4.835-5.406l2.59-1.158
	c7.226-3.371,11.894-10.554,11.894-18.301v-81.078l4.696-1.636v77.704h15.653v-83.16l17.218-6.001v27.945
	c0,7.851,4.536,15.04,11.49,18.282l5.514,2.633l0.066,0.03c2.236,1.042,3.94,2.941,4.801,5.347c0.725,2.029,0.758,4.144,0.107,6.057
	l-0.506,1.125c-2.033,4.504-7.414,6.196-10.968,4.906l-10.503-3.821v102.833h-37.568V303.296z"/>
<rect x="61.9" y="204.164" width="15.653" height="22.956"/>
<g>
</g>
<g>
</g>
<g>
</g>
<g>
</g>
<g>
</g>
<g>
</g>
<g>
</g>
<g>
</g>
<g>
</g>
<g>
</g>
<g>
</g>
<g>
</g>
<g>
</g>
<g>
</g>
<g>
</g>
</svg>
