<?xml version="1.0" encoding="iso-8859-1"?>
<!-- Generator: Adobe Illustrator 19.0.0, SVG Export Plug-In . SVG Version: 6.00 Build 0)  -->
<svg version="1.1" id="Layer_1" xmlns="http://www.w3.org/2000/svg" xmlns:xlink="http://www.w3.org/1999/xlink" x="0px" y="0px"
	 viewBox="0 0 512.001 512.001" style="enable-background:new 0 0 512.001 512.001;" xml:space="preserve">
<path style="fill:#D80027;" d="M278.204,478.973l-43.519-20.293l92.596-198.572c21.995-47.168,77.539-67.984,123.817-46.405
	s66.035,77.509,44.04,124.677l-12.032,25.801l-43.519-20.293l12.032-25.801c10.804-23.172,1.467-50.476-20.815-60.866
	c-22.282-10.391-49.201,0.007-60.005,23.179L278.204,478.973z"/>
<g>
	<path style="fill:#BC052F;" d="M417.548,251.038c-22.282-10.391-49.201,0.007-60.005,23.179l-92.596,198.572l13.258,6.183
		l92.596-198.572c9.71-20.823,32.431-31.32,53.109-25.695C421.923,253.326,419.806,252.092,417.548,251.038z"/>
	<path style="fill:#BC052F;" d="M451.099,213.702c-2.23-1.04-4.484-1.98-6.753-2.824c41.58,23.597,58.47,76.427,37.535,121.32
		l-12.032,25.801l13.258,6.182l12.032-25.801C517.133,291.212,497.377,235.282,451.099,213.702z"/>
</g>
<path style="fill:#FFFFFF;" d="M312.115,292.632l-15.518,33.279l34.056,40.585l15.518-33.279L312.115,292.632z M281.079,359.189
	l-15.518,33.279l34.056,40.585l15.518-33.279L281.079,359.189z M234.686,458.679l43.519,20.293l5.891-12.633l-34.053-40.591
	L234.686,458.679z M347.713,231.5c-8.098,7.773-14.962,17.122-20.073,27.855l34.05,40.582l9.111-19.539
	c2.087-4.477,4.777-8.475,7.92-11.936L347.713,231.5z M502.946,312.954l-90.432-107.775c-12.735,0.026-25.305,2.717-36.93,7.764
	l33.873,40.363c7.151-0.517,14.473,0.71,21.35,3.915c19.018,8.868,28.6,30.048,24.285,50.47l-0.003,0.006l34.944,41.635
	l5.108-10.954C499.001,330.096,501.576,321.54,502.946,312.954z"/>
<g>
	<polygon style="fill:#E6E6E6;" points="278.956,363.741 302.636,391.962 289.241,420.69 299.616,433.054 315.134,399.775 
		281.079,359.189 	"/>
	<polygon style="fill:#E6E6E6;" points="247.918,430.302 271.598,458.527 265.707,471.16 235.445,457.049 234.686,458.679 
		278.204,478.972 284.095,466.339 250.042,425.748 	"/>
	<polygon style="fill:#E6E6E6;" points="309.993,297.183 333.673,325.404 320.278,354.131 330.653,366.495 346.171,333.216 
		312.115,292.632 	"/>
	<path style="fill:#E6E6E6;" d="M502.946,312.953l-90.432-107.775c-1.929,0.004-3.854,0.076-5.773,0.202l83.708,99.761
		c-1.37,8.588-3.945,17.143-7.806,25.424l-2.986,6.404l10.376,12.363l5.108-10.954C499.001,330.096,501.576,321.54,502.946,312.953z
		"/>
	<path style="fill:#E6E6E6;" d="M344.493,234.747l21.729,25.902c-3.143,3.462-5.832,7.461-7.92,11.936l-6.988,14.987l10.375,12.365
		l9.111-19.539c2.087-4.477,4.777-8.475,7.92-11.936l-31.008-36.961C346.616,232.552,345.544,233.637,344.493,234.747z"/>
</g>
<path style="fill:#D80027;" d="M233.797,304.244l43.519-20.293L184.72,85.379c-21.995-47.168-77.539-67.984-123.817-46.405
	s-66.034,77.511-44.039,124.677l12.032,25.801l43.519-20.293l-12.032-25.8c-10.806-23.172-1.467-50.476,20.815-60.866
	s49.201,0.007,60.005,23.179L233.797,304.244z"/>
<g>
	<path style="fill:#BC052F;" d="M94.454,76.31c22.282-10.391,49.201,0.007,60.005,23.179l92.596,198.572l-13.258,6.182
		l-92.596-198.572c-9.71-20.823-32.431-31.32-53.109-25.695C90.078,78.598,92.196,77.363,94.454,76.31z"/>
	<path style="fill:#BC052F;" d="M60.903,38.974c2.231-1.04,4.484-1.98,6.753-2.824c-41.58,23.597-58.47,76.427-37.535,121.32
		l12.032,25.801l-13.258,6.182l-12.032-25.802C-5.131,116.484,14.624,60.554,60.903,38.974z"/>
</g>
<path style="fill:#FFFFFF;" d="M165.83,158.488l15.518,33.279l34.056-40.585l-15.518-33.279L165.83,158.488z M196.867,225.046
	l15.518,33.279l34.056-40.585l-15.518-33.279L196.867,225.046z M261.961,251.02l-34.053,40.591l5.891,12.633l43.519-20.293
	L261.961,251.02z M133.28,93.733c3.143,3.462,5.832,7.46,7.92,11.936l9.111,19.539l34.05-40.582
	c-5.111-10.733-11.975-20.082-20.074-27.855L133.28,93.733z M16.862,163.649l5.108,10.954l34.944-41.635l-0.003-0.006
	c-4.316-20.422,5.267-41.602,24.285-50.47c6.875-3.207,14.198-4.433,21.35-3.915l33.873-40.363
	c-11.625-5.046-24.195-7.738-36.931-7.764L9.056,138.225C10.426,146.813,13,155.369,16.862,163.649z"/>
<g>
	<polygon style="fill:#E6E6E6;" points="233.046,189.013 209.365,217.234 222.761,245.961 212.386,258.326 196.867,225.046 
		230.924,184.461 	"/>
	<polygon style="fill:#E6E6E6;" points="264.083,255.574 240.405,283.799 246.295,296.432 276.556,282.321 277.316,283.951 
		233.797,304.244 227.907,291.611 261.961,251.02 	"/>
	<polygon style="fill:#E6E6E6;" points="202.009,122.455 178.328,150.676 191.724,179.404 181.349,191.768 165.83,158.488 
		199.887,117.903 	"/>
	<path style="fill:#E6E6E6;" d="M9.056,138.225L99.487,30.45c1.929,0.004,3.854,0.076,5.773,0.202l-83.707,99.761
		c1.37,8.588,3.945,17.143,7.806,25.424l2.986,6.404l-10.376,12.363l-5.108-10.954C13,155.369,10.426,146.813,9.056,138.225z"/>
	<path style="fill:#E6E6E6;" d="M167.508,60.019l-21.73,25.902c3.143,3.462,5.832,7.46,7.92,11.936l6.988,14.987l-10.375,12.365
		l-9.111-19.539c-2.087-4.477-4.777-8.475-7.92-11.936l31.008-36.961C165.385,57.824,166.458,58.909,167.508,60.019z"/>
</g>
<path d="M506.113,263.835c-9.035-25.577-27.395-45.903-51.701-57.237c-24.308-11.334-51.681-12.333-77.079-2.814
	c-25.347,9.499-45.646,28.326-57.156,53.011l-95.91,205.677l57.729,26.919l95.91-205.678c4.365-9.361,11.971-16.526,21.418-20.175
	c9.34-3.607,19.343-3.328,28.169,0.788c18.364,8.564,26.001,31.195,17.024,50.449l-15.345,32.905l57.728,26.919l15.344-32.906
	C513.754,317.008,515.129,289.358,506.113,263.835z M463.433,305.444c1.858-13.499-1.39-27.026-8.786-37.855l39.938,47.596
	c-1.357,6.709-3.511,13.31-6.464,19.682L463.433,305.444z M491.329,269.057c2.718,7.693,4.298,15.616,4.796,23.573l-65.071-77.55
	c5.706,1.302,11.311,3.199,16.732,5.727C468.245,230.348,483.709,247.482,491.329,269.057z M347.36,243.279l21.244,25.317
	c-1.858,2.657-3.509,5.488-4.908,8.49l-3.91,8.385l-22.791-27.161C339.951,252.902,343.426,247.874,347.36,243.279z
	 M274.774,391.259l8.208-17.603l22.936,27.335l-8.208,17.603L274.774,391.259z M290.399,434.271l-8.208,17.603l-22.936-27.335
	l8.208-17.603L290.399,434.271z M290.292,357.978l8.208-17.603l22.937,27.335l-8.208,17.603L290.292,357.978z M305.812,324.697
	l8.208-17.603l22.936,27.335l-8.208,17.603L305.812,324.697z M321.33,291.417l8.208-17.603l22.936,27.336l-8.208,17.603
	L321.33,291.417z M245.103,454.888l6.841-14.672l22.936,27.335l-0.468,1.004L245.103,454.888z M379.413,257.088l-20.785-24.772
	c4.583-3.712,9.552-6.956,14.853-9.684l21.62,25.767c-0.477,0.169-0.954,0.329-1.428,0.512
	C388.478,250.919,383.69,253.688,379.413,257.088z M434.119,250.116c-6.711-3.129-13.878-4.711-21.111-4.766l-24.209-28.852
	c6.635-1.957,13.383-3.089,20.13-3.394l39.182,46.695C444.114,255.898,439.435,252.594,434.119,250.116z M450.007,340.096
	l7.873-16.881l22.935,27.334l-1.499,3.215L450.007,340.096z"/>
<path d="M287.734,287.743l-95.91-205.677C168.002,30.98,107.787,8.463,57.589,31.869C33.284,43.203,14.923,63.53,5.888,89.107
	c-9.016,25.522-7.642,53.173,3.869,77.858l15.344,32.906l57.728-26.919l-15.345-32.906c-4.365-9.361-4.964-19.793-1.687-29.376
	c3.24-9.473,9.885-16.957,18.711-21.072c8.826-4.115,18.83-4.396,28.169-0.788c9.447,3.649,17.053,10.814,21.419,20.175
	l95.909,205.678L287.734,287.743z M182.463,99.086l8.208,17.603l-22.936,27.334l-8.208-17.603L182.463,99.086z M197.981,132.367
	l8.208,17.603l-22.936,27.335l-8.208-17.603L197.981,132.367z M213.501,165.647l8.208,17.603l-22.936,27.335l-8.208-17.603
	L213.501,165.647z M229.019,198.927l8.208,17.603l-22.936,27.334l-8.208-17.603L229.019,198.927z M244.539,232.208l8.208,17.602
	l-22.936,27.335l-8.208-17.603L244.539,232.208z M237.589,293.826l-0.468-1.004l22.935-27.335l6.841,14.672L237.589,293.826z
	 M175.005,83.583l-22.789,27.16l-3.909-8.384c-1.4-3.002-3.051-5.833-4.909-8.49l21.231-25.302
	C168.534,73.12,172.024,78.133,175.005,83.583z M64.216,46.079c5.461-2.547,11.067-4.436,16.728-5.723l-65.067,77.545
	c0.498-7.957,2.079-15.88,4.795-23.573C28.293,72.754,43.757,55.619,64.216,46.079z M50.964,105.595
	c-2.789,8.152-3.569,16.728-2.403,25.127l-24.682,29.416c-2.952-6.371-5.106-12.971-6.464-19.682l39.806-47.439
	C54.631,96.848,52.516,101.059,50.964,105.595z M32.686,179.035l-1.499-3.215l22.936-27.335l7.873,16.882L32.686,179.035z
	 M77.882,75.388c-5.2,2.425-9.861,5.662-13.884,9.553l39.055-46.544c6.843,0.306,13.606,1.448,20.151,3.37L99,70.614
	C91.765,70.668,84.596,72.258,77.882,75.388z M118.328,74.183c-0.473-0.183-0.95-0.345-1.426-0.514l21.615-25.761
	c5.232,2.702,10.212,5.941,14.844,9.694l-20.773,24.756C128.311,78.96,123.523,76.191,118.328,74.183z"/>
<g>
</g>
<g>
</g>
<g>
</g>
<g>
</g>
<g>
</g>
<g>
</g>
<g>
</g>
<g>
</g>
<g>
</g>
<g>
</g>
<g>
</g>
<g>
</g>
<g>
</g>
<g>
</g>
<g>
</g>
</svg>
