<?xml version="1.0" encoding="iso-8859-1"?>
<!-- Generator: Adobe Illustrator 19.0.0, SVG Export Plug-In . SVG Version: 6.00 Build 0)  -->
<svg version="1.1" id="Layer_1" xmlns="http://www.w3.org/2000/svg" xmlns:xlink="http://www.w3.org/1999/xlink" x="0px" y="0px"
	 viewBox="0 0 512.002 512.002" style="enable-background:new 0 0 512.002 512.002;" xml:space="preserve">
<path style="fill:#64C37D;" d="M256.002,7.865c-125.964,0-228.078,102.114-228.078,228.078S130.038,464.02,256.002,464.02
	S484.08,361.906,484.08,235.942S381.966,7.865,256.002,7.865z M256.002,382.751c-81.08,0-146.809-65.728-146.809-146.809
	S174.922,89.134,256.002,89.134s146.809,65.728,146.809,146.809S337.082,382.751,256.002,382.751z"/>
<path style="fill:#FFFFFF;" d="M256.002,464.544c-61.062,0-118.469-23.779-161.646-66.956S27.4,297.004,27.4,235.942
	S51.179,117.473,94.355,74.297S194.94,7.34,256.002,7.34c3.684,0,7.485,0.094,11.298,0.28v1.048
	c-58.39,2.842-112.84,27.746-153.322,70.123c-40.616,42.518-62.984,98.328-62.984,157.151s22.368,114.633,62.984,157.152
	c40.48,42.377,94.932,67.28,153.322,70.123v1.048C263.486,464.45,259.685,464.544,256.002,464.544z"/>
<path style="fill:#49AA60;" d="M256.002,7.865c-5.733,0-11.414,0.217-17.04,0.633c118.005,8.716,211.037,107.213,211.037,227.444
	S356.966,454.67,238.962,463.388c5.626,0.415,11.307,0.632,17.04,0.632c125.964,0,228.078-102.114,228.078-228.078
	S381.966,7.865,256.002,7.865z"/>
<polygon style="fill:#FFDA44;" points="370.859,468.885 333.968,462.95 313.845,495.479 244.404,346.573 313.824,346.573 "/>
<polygon style="fill:#FFFFFF;" points="370.859,468.885 313.824,346.573 299.636,346.573 355.519,466.418 "/>
<polygon style="fill:#EDC10C;" points="265.87,346.573 244.404,346.573 313.845,495.479 326.083,475.694 "/>
<polygon style="fill:#FFDA44;" points="267.6,346.573 198.16,495.479 178.036,462.95 141.145,468.885 198.181,346.573 "/>
<polygon style="fill:#FFFFFF;" points="212.368,346.573 198.181,346.573 141.145,468.885 156.484,466.418 "/>
<polygon style="fill:#EDC10C;" points="246.134,346.573 185.92,475.694 198.16,495.479 267.6,346.573 "/>
<polygon style="fill:#D80027;" points="224.543,286.277 133.312,240.661 133.312,397.956 224.543,352.34 "/>
<polygon style="fill:#FFFFFF;" points="146.944,374.886 146.944,247.477 133.312,240.661 133.312,397.956 224.543,352.34 
	224.543,336.087 "/>
<polygon style="fill:#D80027;" points="287.461,286.277 287.461,352.34 378.692,397.956 378.692,240.661 "/>
<polygon style="fill:#BC052F;" points="355.622,252.196 355.622,363.351 287.461,329.271 287.461,352.34 378.692,397.956 
	378.692,240.661 "/>
<rect x="224.545" y="266.877" style="fill:#D80027;" width="62.918" height="104.863"/>
<path d="M422.837,69.106C378.275,24.542,319.024,0,256.002,0S133.728,24.542,89.166,69.106
	C44.602,113.67,20.06,172.919,20.06,235.942c0,37.865,8.701,74.035,25.858,107.502c16.365,31.918,40.245,60.161,69.059,81.675
	l9.411-12.605c-21.492-16.046-40.028-36.108-54.409-58.715l8.339-4.814l-9.123-15.802l-8.354,4.824
	c-0.305-0.581-0.624-1.156-0.924-1.74c-14.638-28.55-22.657-59.218-23.927-91.279h9.573v-18.246h-9.567
	c1.381-33.429,10.247-64.955,24.968-92.948l8.231,4.752l9.123-15.802l-8.207-4.738c17.411-27.348,40.688-50.611,68.045-68.011
	l4.725,8.185l15.802-9.123l-4.736-8.202c27.991-14.703,59.511-23.552,92.932-24.922v9.491h18.246v-9.491
	c33.421,1.37,64.941,10.219,92.932,24.922l-4.736,8.202l15.802,9.123l4.725-8.185c27.357,17.399,50.632,40.663,68.045,68.011
	l-8.207,4.738l9.123,15.802l8.231-4.752c14.721,27.993,23.587,59.518,24.968,92.948h-9.567v18.246h9.565
	c-1.349,32.855-9.997,64.549-24.879,92.998l-8.319-4.803l-9.123,15.802l8.31,4.799c-15.741,24.846-36.498,46.655-61.467,63.806
	l8.905,12.965c64.188-44.091,102.508-116.843,102.508-194.613C491.944,172.919,467.401,113.67,422.837,69.106z"/>
<path d="M165.14,130.821c25.211-21.81,57.48-33.823,90.862-33.823s65.65,12.012,90.862,33.823
	c24.958,21.592,41.456,51.344,46.454,83.773l15.545-2.396c-5.566-36.114-23.93-69.239-51.709-93.272
	c-28.069-24.284-63.992-37.657-101.152-37.657s-73.083,13.373-101.152,37.657c-27.778,24.033-46.143,57.158-51.709,93.272
	l15.545,2.396C123.685,182.165,140.183,152.415,165.14,130.821z"/>
<path d="M386.557,410.681v-91.798c13.415-21.083,21.579-45.323,23.605-70.246l-15.678-1.274c-1.005,12.357-3.7,24.523-7.927,36.135
	v-55.563l-91.231,45.616v-14.538h-78.647v14.539l-91.231-45.616v55.562c-4.226-11.607-6.921-23.769-7.927-36.133l-15.678,1.274
	c2.027,24.939,10.184,49.149,23.605,70.245v91.798l44.545-22.272l-42.247,90.6l46.367-7.457l25.026,40.449l20.04-42.977
	c12.122,1.898,24.483,2.862,36.825,2.862c12.34,0,24.701-0.964,36.824-2.862l20.04,42.977l25.026-40.449l46.367,7.457l-42.247-90.6
	L386.557,410.681z M370.827,253.386V385.23l-75.499-37.75l-0.002-56.343L370.827,253.386z M232.408,274.742h47.188v89.134h-47.188
	L232.408,274.742L232.408,274.742z M141.177,253.386l75.502,37.751v56.342l-75.502,37.751V253.386z M197.19,478.958l-15.22-24.6
	l-27.432,4.412l38.085-81.675l24.056-12.028v14.538h26.841L197.19,478.958z M226.117,454.14l29.884-64.087l29.884,64.087
	C266.154,456.803,245.848,456.802,226.117,454.14z M357.467,458.768l-27.432-4.412l-15.22,24.6l-46.331-99.352h26.841v-14.539
	l24.056,12.028L357.467,458.768z"/>
<g>
</g>
<g>
</g>
<g>
</g>
<g>
</g>
<g>
</g>
<g>
</g>
<g>
</g>
<g>
</g>
<g>
</g>
<g>
</g>
<g>
</g>
<g>
</g>
<g>
</g>
<g>
</g>
<g>
</g>
</svg>
