<?xml version="1.0" encoding="iso-8859-1"?>
<!-- Generator: Adobe Illustrator 19.0.0, SVG Export Plug-In . SVG Version: 6.00 Build 0)  -->
<svg version="1.1" id="Layer_1" xmlns="http://www.w3.org/2000/svg" xmlns:xlink="http://www.w3.org/1999/xlink" x="0px" y="0px"
	 viewBox="0 0 512 512" style="enable-background:new 0 0 512 512;" xml:space="preserve">
<rect x="227.236" y="413.156" style="fill:#FFDA44;" width="57.528" height="90.999"/>
<rect x="262.276" y="413.156" style="fill:#EDC10C;" width="22.488" height="90.999"/>
<path style="fill:#64C37D;" d="M327.693,229.066h76.704L268.062,65.464c-3.693,1.619-7.772,2.524-12.062,2.524
	c-4.291,0-8.369-0.905-12.062-2.524L107.603,229.066h76.704l-76.704,92.045h76.704l-76.704,92.045h296.794l-76.704-92.045h76.704
	L327.693,229.066z"/>
<polygon style="fill:#FFFFFF;" points="184.307,321.111 107.603,413.156 129.438,413.156 206.142,321.111 "/>
<polygon style="fill:#49AA60;" points="295.138,321.111 371.842,413.156 404.397,413.156 327.693,321.111 "/>
<polygon style="fill:#FFFFFF;" points="184.307,229.066 107.603,321.111 129.438,321.111 206.142,229.066 "/>
<polygon style="fill:#49AA60;" points="295.138,229.066 371.842,321.111 404.397,321.111 327.693,229.066 "/>
<path style="fill:#FFFFFF;" d="M256,67.988c-4.291,0-8.369-0.905-12.062-2.524L107.603,229.066h21.836L264.752,66.691
	C261.982,67.532,259.045,67.988,256,67.988z"/>
<path style="fill:#49AA60;" d="M268.062,65.464c-3.693,1.619-7.772,2.524-12.062,2.524c-4.291,0-8.369-0.905-12.062-2.524
	l-4.216,5.059l132.12,158.543h32.555L268.062,65.464z"/>
<circle style="fill:#D80027;" cx="256" cy="37.916" r="30.072"/>
<polygon points="276.919,496.311 235.081,496.311 235.081,435.645 219.391,435.645 219.391,512 292.609,512 292.609,435.645 
	276.919,435.645 "/>
<path d="M344.442,236.911h76.704L279.854,67.361c8.571-6.958,14.062-17.57,14.062-29.445C293.916,17.009,276.907,0,256,0
	s-37.916,17.009-37.916,37.916c0,11.875,5.491,22.487,14.062,29.445L90.855,236.911h76.704l-76.704,92.045h76.704l-76.704,92.045
	h330.291l-76.704-92.045h76.704L344.442,236.911z M256,15.689c12.256,0,22.227,9.971,22.227,22.227
	c0,12.257-9.971,22.228-22.227,22.228c-12.256,0-22.227-9.971-22.227-22.228C233.773,25.661,243.744,15.689,256,15.689z M256,75.834
	c3.275,0,6.455-0.418,9.489-1.203l72.837,87.404c-22.664,20.34-51.638,31.469-82.326,31.469s-59.662-11.129-82.325-31.47
	l72.836-87.404C249.545,75.415,252.724,75.834,256,75.834z M163.627,174.092c25.483,22.69,57.973,35.102,92.373,35.102
	s66.891-12.41,92.373-35.102l39.275,47.13H124.352L163.627,174.092z M324.018,236.911l14.307,17.168
	c-22.663,20.34-51.637,31.469-82.325,31.469s-59.662-11.129-82.325-31.47l14.307-17.167H324.018z M163.627,266.136
	c25.483,22.69,57.973,35.102,92.373,35.102s66.891-12.41,92.373-35.102l39.275,47.13H124.352L163.627,266.136z M124.352,405.312
	l39.275-47.13c25.483,22.69,57.972,35.102,92.373,35.102c34.401,0,66.891-12.41,92.373-35.102l39.275,47.13H124.352z
	 M338.325,346.125c-22.663,20.34-51.637,31.469-82.325,31.469s-59.662-11.129-82.326-31.47l14.307-17.167h136.037L338.325,346.125z"
	/>
<g>
</g>
<g>
</g>
<g>
</g>
<g>
</g>
<g>
</g>
<g>
</g>
<g>
</g>
<g>
</g>
<g>
</g>
<g>
</g>
<g>
</g>
<g>
</g>
<g>
</g>
<g>
</g>
<g>
</g>
</svg>
