<?xml version="1.0" encoding="iso-8859-1"?>
<!-- Generator: Adobe Illustrator 19.0.0, SVG Export Plug-In . SVG Version: 6.00 Build 0)  -->
<svg version="1.1" id="Layer_1" xmlns="http://www.w3.org/2000/svg" xmlns:xlink="http://www.w3.org/1999/xlink" x="0px" y="0px"
	 viewBox="0 0 511.999 511.999" style="enable-background:new 0 0 511.999 511.999;" xml:space="preserve">
<polygon style="fill:#E6E6E6;" points="34.815,262.259 255.999,441.906 477.184,262.259 "/>
<polygon style="fill:#64C37D;" points="477.184,262.259 477.184,504.212 34.815,504.212 34.815,262.259 255.999,441.906 "/>
<polygon style="fill:#FFFFFF;" points="34.815,262.259 34.815,504.212 57.66,504.212 57.66,280.813 "/>
<polygon style="fill:#49AA60;" points="442.916,290.092 442.916,504.212 477.184,504.212 477.184,262.259 "/>
<g>
	<polyline style="fill:#FFFFFF;" points="138.657,262.259 138.657,9.921 419.032,78.457 419.032,310.026 	"/>
	<polygon style="fill:#FFFFFF;" points="430.455,78.457 430.455,300.213 255.999,441.906 81.544,300.213 81.544,78.457 	"/>
</g>
<polygon style="fill:#E6E6E6;" points="396.187,78.457 396.187,328.045 430.455,300.213 430.455,78.457 "/>
<polygon style="fill:#64C37D;" points="363.218,302.294 304.478,243.554 341.668,243.554 295.376,197.262 324.427,197.262 
	255.466,128.302 186.271,197.262 215.555,197.262 169.263,243.554 206.453,243.554 147.712,302.294 236.186,302.294 
	236.186,348.448 274.745,348.448 274.745,302.294 "/>
<g>
	<polygon style="fill:#FFFFFF;" points="237.101,197.262 215.555,197.262 169.263,243.554 190.809,243.554 	"/>
	<polygon style="fill:#FFFFFF;" points="266.221,139.057 255.466,128.302 186.271,197.262 207.818,197.262 	"/>
	<polygon style="fill:#FFFFFF;" points="206.453,243.554 147.712,302.294 169.259,302.294 227.998,243.554 	"/>
</g>
<path d="M438.243,254.47V70.669h-18.274L130.869,0v55.612h15.576V19.841l207.929,50.827H73.756v183.801H27.027v257.53h457.946
	v-257.53h-46.729V254.47z M345.996,422.631l-7.547,13.625l108.607,60.166H64.945l108.639-60.185l-7.548-13.625l-123.434,68.38
	V278.617L255.998,451.94l213.396-173.323v212.377L345.996,422.631z M89.332,277.835V86.245h333.335v191.59h15.576v-7.788h16.999
	L255.999,431.873L56.757,270.047h16.999v7.788H89.332z"/>
<path d="M228.398,310.082v46.153h54.135v-46.153h99.487l-58.74-58.74h37.189l-46.292-46.291h29.051l-87.754-87.755l-88.051,87.755
	h29.328l-46.292,46.291h37.189l-58.74,58.74H228.398z M188.066,235.766l46.292-46.291h-29.239l50.338-50.169l50.168,50.169h-29.052
	l46.292,46.291h-37.189l58.74,58.74h-77.459v46.153h-22.982v-46.153h-77.459l58.74-58.74L188.066,235.766L188.066,235.766z"/>
<g>
</g>
<g>
</g>
<g>
</g>
<g>
</g>
<g>
</g>
<g>
</g>
<g>
</g>
<g>
</g>
<g>
</g>
<g>
</g>
<g>
</g>
<g>
</g>
<g>
</g>
<g>
</g>
<g>
</g>
</svg>
