<?xml version="1.0" encoding="iso-8859-1"?>
<!-- Generator: Adobe Illustrator 19.0.0, SVG Export Plug-In . SVG Version: 6.00 Build 0)  -->
<svg version="1.1" id="Layer_1" xmlns="http://www.w3.org/2000/svg" xmlns:xlink="http://www.w3.org/1999/xlink" x="0px" y="0px"
	 viewBox="0 0 512 512" style="enable-background:new 0 0 512 512;" xml:space="preserve">
<polygon style="fill:#D80027;" points="368.977,167.114 203.553,89.975 74.663,366.381 364.833,501.689 428.047,366.125 
	303.302,307.955 "/>
<polygon style="fill:#BC052F;" points="368.981,167.115 340.767,153.96 261.939,323.008 414.894,394.332 428.046,366.127 
	303.305,307.959 "/>
<path style="fill:#E6E6E6;" d="M169.248,408.015c-0.316,0.677-0.64,1.35-0.973,2.018l-93.612-43.652l44.081-94.533
	c0.384,0.168,0.753,0.34,1.133,0.517C170.97,296.191,193.074,356.922,169.248,408.015z"/>
<g>
	
		<rect x="-4.9" y="221.759" transform="matrix(-0.4226 0.9063 -0.9063 -0.4226 421.0154 196.787)" style="fill:#FFFFFF;" width="305.447" height="21.49"/>
	
		<rect x="161.476" y="65.299" transform="matrix(-0.9063 -0.4226 0.4226 -0.9063 528.3124 313.448)" style="fill:#FFFFFF;" width="274.847" height="65.73"/>
</g>
<rect x="356.044" y="102.064" transform="matrix(-0.4226 0.9063 -0.9063 -0.4226 680.2873 -153.0914)" style="fill:#E6E6E6;" width="65.73" height="76.178"/>
<path d="M363.985,196.175l-14.064-6.558L292.99,311.708l124.746,58.169L361.08,491.379l-182.598-85.147
	c4.417-10.837,7.063-22.195,7.86-33.841l-15.481-1.058c-0.665,9.736-2.851,19.236-6.472,28.328l-79.415-37.032l37.428-80.263
	c24.092,13.359,41.411,36.892,46.849,64.119l15.217-3.039c-6.402-32.054-26.944-59.721-55.491-75.182l69.312-148.64l-14.064-6.558
	L64.353,370.133L368.585,512l69.773-149.628l-124.746-58.169L363.985,196.175z"/>
<path d="M447.647,122.717L184.48,0l-34.334,73.631l263.167,122.716L447.647,122.717z M384.284,165.691l7.032-15.081l-14.064-6.559
	l-7.032,15.081l-21.522-10.037l7.032-15.081l-14.064-6.558l-7.032,15.081l-21.522-10.037l7.032-15.081l-14.064-6.558l-7.032,15.081
	l-21.523-10.037l7.032-15.081l-14.064-6.558l-7.032,15.081l-21.522-10.037l7.032-15.081l-14.064-6.558l-7.032,15.081l-21.523-10.037
	l7.032-15.081l-14.064-6.558l-7.032,15.081l-21.522-10.037l21.219-45.505l235.04,109.601l-21.219,45.505L384.284,165.691z"/>
<g>
</g>
<g>
</g>
<g>
</g>
<g>
</g>
<g>
</g>
<g>
</g>
<g>
</g>
<g>
</g>
<g>
</g>
<g>
</g>
<g>
</g>
<g>
</g>
<g>
</g>
<g>
</g>
<g>
</g>
</svg>
