<?xml version="1.0" encoding="iso-8859-1"?>
<!-- Generator: Adobe Illustrator 19.0.0, SVG Export Plug-In . SVG Version: 6.00 Build 0)  -->
<svg version="1.1" id="Layer_1" xmlns="http://www.w3.org/2000/svg" xmlns:xlink="http://www.w3.org/1999/xlink" x="0px" y="0px"
	 viewBox="0 0 512 512" style="enable-background:new 0 0 512 512;" xml:space="preserve">
<rect x="119.885" y="366.986" style="fill:#FFFFFF;" width="272.229" height="137.162"/>
<rect x="332.434" y="366.986" style="fill:#E6E6E6;" width="59.681" height="137.162"/>
<polygon style="fill:#D80027;" points="359.133,263.474 416.72,366.986 95.28,366.986 152.867,263.474 "/>
<polygon style="fill:#FFFFFF;" points="152.867,263.474 95.28,366.986 117.791,366.986 175.378,263.474 "/>
<polygon style="fill:#BC052F;" points="416.72,366.986 334.528,366.986 276.941,263.476 359.133,263.476 "/>
<polygon style="fill:#FFDA44;" points="316.204,41.358 270.658,41.358 270.658,7.853 241.342,7.853 241.342,41.358 195.795,41.358 
	195.795,70.675 241.342,70.675 241.342,145.014 270.658,145.014 270.658,70.675 316.204,70.675 "/>
<rect x="195.795" y="41.358" style="fill:#FFFFFF;" width="16.229" height="29.317"/>
<rect x="293.693" y="41.358" style="fill:#EDC10C;" width="22.511" height="29.317"/>
<polygon style="fill:#D80027;" points="298.928,145.014 333.481,203.358 178.519,203.358 213.072,145.014 "/>
<polygon style="fill:#FFFFFF;" points="213.072,145.014 178.519,203.358 199.46,203.358 234.012,145.014 "/>
<polygon style="fill:#BC052F;" points="298.928,145.014 241.342,145.014 275.894,203.358 333.481,203.358 "/>
<rect x="213.857" y="203.648" style="fill:#FFFFFF;" width="84.286" height="59.681"/>
<rect x="276.417" y="203.648" style="fill:#E6E6E6;" width="21.726" height="59.681"/>
<path style="fill:#FFDA44;" d="M287.018,504.147h-62.037v-64.262c0-17.131,13.888-31.018,31.018-31.018l0,0
	c17.131,0,31.018,13.888,31.018,31.018V504.147z"/>
<path style="fill:#FFFFFF;" d="M263.001,409.67c-2.251-0.519-4.592-0.803-7.002-0.803c-17.132,0-31.018,13.887-31.018,31.018v64.262
	h14.004v-64.262C238.986,425.164,249.246,412.847,263.001,409.67z"/>
<path style="fill:#EDC10C;" d="M256,408.867c-3.213,0-6.313,0.489-9.228,1.396c12.625,3.928,21.792,15.706,21.792,29.623v64.262
	h18.454v-64.262C287.018,422.754,273.131,408.867,256,408.867z"/>
<rect x="225.112" y="299.525" style="fill:#FFFFFF;" width="61.775" height="31.411"/>
<g>
	<rect x="326.549" y="408.867" style="fill:#E6E6E6;" width="26.83" height="42.928"/>
	<rect x="158.615" y="408.867" style="fill:#E6E6E6;" width="26.83" height="42.928"/>
</g>
<polygon points="233.489,126.168 249.194,126.168 249.194,62.822 203.648,62.822 203.648,49.211 249.194,49.211 249.194,15.706 
	262.806,15.706 262.806,49.211 308.352,49.211 308.352,62.822 262.806,62.822 262.806,126.168 278.511,126.168 278.511,78.528 
	324.057,78.528 324.057,33.505 278.511,33.505 278.511,0 233.489,0 233.489,33.505 187.943,33.505 187.943,78.528 233.489,78.528 
	"/>
<path d="M232.834,439.885c0-12.774,10.392-23.166,23.166-23.166c12.774,0,23.166,10.392,23.166,23.166v48.556h15.706v-48.556
	c0-21.434-17.437-38.871-38.871-38.871s-38.871,17.437-38.871,38.871v48.556h15.706V439.885z"/>
<path d="M430.075,374.838L363.75,255.622h-57.754v-44.41h41.262l-43.853-74.05h-94.809l-43.853,74.05h41.262v44.41H148.25
	L81.925,374.838h30.107V512h287.935V374.838H430.075z M217.548,152.867h76.905l25.251,42.639H192.296L217.548,152.867z
	 M221.71,211.501h68.581v44.121H221.71V211.501z M157.484,271.328h197.031l48.849,87.805h-294.73L157.484,271.328z M384.262,496.294
	H127.738V374.838h256.523V496.294z"/>
<polygon points="232.965,307.377 279.035,307.377 279.035,315.681 294.74,315.681 294.74,291.671 217.26,291.671 217.26,315.681 
	232.965,315.681 "/>
<rect x="202.601" y="323.084" width="106.798" height="15.706"/>
<polygon points="334.408,416.72 345.533,416.72 345.533,436.09 361.238,436.09 361.238,401.014 318.703,401.014 318.703,436.09 
	334.408,436.09 "/>
<rect x="306.875" y="443.943" width="66.183" height="15.706"/>
<polygon points="166.468,416.72 177.593,416.72 177.593,436.09 193.298,436.09 193.298,401.014 150.763,401.014 150.763,436.09 
	166.468,436.09 "/>
<rect x="138.941" y="443.943" width="66.183" height="15.706"/>
<g>
</g>
<g>
</g>
<g>
</g>
<g>
</g>
<g>
</g>
<g>
</g>
<g>
</g>
<g>
</g>
<g>
</g>
<g>
</g>
<g>
</g>
<g>
</g>
<g>
</g>
<g>
</g>
<g>
</g>
</svg>
