<?xml version="1.0" encoding="iso-8859-1"?>
<!-- Generator: Adobe Illustrator 19.0.0, SVG Export Plug-In . SVG Version: 6.00 Build 0)  -->
<svg version="1.1" id="Layer_1" xmlns="http://www.w3.org/2000/svg" xmlns:xlink="http://www.w3.org/1999/xlink" x="0px" y="0px"
	 viewBox="0 0 512 512" style="enable-background:new 0 0 512 512;" xml:space="preserve">
<g>
	<path style="fill:#EDC10C;" d="M380.216,287.408c24.729,11.531,58.108-7.713,58.108-7.713s-6.714-37.939-31.443-49.47
		c-24.729-11.531-58.108,7.712-58.108,7.712S355.488,275.877,380.216,287.408z"/>
	<path style="fill:#EDC10C;" d="M131.897,287.408c-24.729,11.531-58.108-7.713-58.108-7.713s6.714-37.939,31.443-49.47
		c24.729-11.531,58.108,7.712,58.108,7.712S156.625,275.877,131.897,287.408z"/>
</g>
<path style="fill:#FFDA44;" d="M256.057,494.334L256.057,494.334c-64.671,0-117.098-52.426-117.098-117.098V218.805h234.196v158.429
	C373.154,441.907,320.728,494.334,256.057,494.334z"/>
<path style="fill:#FFFFFF;" d="M160.721,377.236V218.805h-21.762v158.429c0,64.671,52.426,117.098,117.098,117.098l0,0
	c3.67,0,7.298-0.177,10.881-0.508C207.369,488.336,160.721,438.237,160.721,377.236z"/>
<path style="fill:#EDC10C;" d="M340.439,218.805v158.429c0,59.119-43.814,107.997-100.741,115.955
	c5.346,0.747,10.805,1.143,16.358,1.143l0,0c64.671,0,117.098-52.426,117.098-117.098V218.805H340.439z"/>
<polygon style="fill:#D80027;" points="245.58,402.141 228.38,373.097 283.733,373.097 266.533,402.141 "/>
<path d="M410.201,223.104c-4.211-1.962-8.847-3.289-13.784-3.938l-2.052,15.58c3.345,0.441,6.439,1.316,9.195,2.6
	c15.517,7.236,22.934,28.056,25.693,38.13c-7.09,3.267-20.45,8.399-33.441,7.695l-0.835,15.692c1.064,0.058,2.125,0.084,3.186,0.084
	c22.233,0,43.164-11.913,44.085-12.444l4.773-2.751l-0.961-5.425C445.757,276.614,438.311,236.213,410.201,223.104z"/>
<path d="M108.551,237.348c2.761-1.287,5.853-2.161,9.193-2.6l-2.05-15.58c-4.93,0.647-9.567,1.973-13.783,3.938
	c-28.108,13.108-35.555,53.509-35.858,55.223l-0.961,5.425l4.773,2.751c0.921,0.531,21.85,12.444,44.085,12.444
	c1.06,0,2.123-0.027,3.186-0.084l-0.835-15.692c-12.904,0.675-26.323-4.441-33.437-7.705
	C85.627,265.381,93.045,244.579,108.551,237.348z"/>
<path d="M406.653,202.168c15.301-15.301,26.428-33.661,32.828-53.697c27.597-4.566,52.59-17.401,72.519-37.331l-11.11-11.112
	c-15.944,15.943-35.56,26.735-57.224,31.616c1.415-7.846,2.146-15.874,2.146-24.014c0-35.712-13.906-69.287-39.159-94.539
	l-11.113,11.112c22.286,22.282,34.557,51.912,34.557,83.426c0,25.563-8.075,49.885-23.019,70.052
	c-4.053-27.676-16.616-52.622-34.94-72.093c3.951-34.269-5.243-68.108-26.146-95.776l-12.539,9.472
	c16.041,21.233,24.265,46.583,23.848,72.717c-22.738-17.881-51.396-28.558-82.5-28.558v15.715
	c63.926,0,116.136,51.105,117.932,114.604c-7.166,6.715-15.096,12.475-23.626,17.186h-55.429v15.715h51.62v150.573
	c0,60.234-49.005,109.239-109.24,109.239c-39.855,0-76.557-21.716-95.786-56.672l-13.769,7.573
	c21.99,39.978,63.97,64.813,109.555,64.813c68.901,0,124.955-56.054,124.955-124.954v-155.02
	C390.301,216.621,398.911,209.91,406.653,202.168z"/>
<path d="M146.816,377.236V226.663h119.718v-15.715h-123.64c-8.531-4.712-16.461-10.471-23.627-17.187
	c1.796-63.499,54.006-114.604,117.932-114.604V63.442c-31.104,0-59.761,10.677-82.5,28.558
	c-0.417-26.136,7.807-51.486,23.848-72.717l-12.539-9.472c-20.903,27.668-30.097,61.508-26.146,95.776
	c-18.324,19.471-30.886,44.416-34.94,72.093c-14.944-20.167-23.019-44.489-23.019-70.052c0-31.514,12.272-61.143,34.557-83.426
	l-11.112-11.112c-25.252,25.252-39.159,58.826-39.159,94.539c0,8.141,0.73,16.169,2.146,24.014
	c-21.663-4.882-41.279-15.673-57.224-31.616L0,111.14c19.929,19.928,44.922,32.765,72.519,37.331
	c6.4,20.036,17.527,38.396,32.828,53.696c7.774,7.775,16.422,14.509,25.754,20.117v154.952c0,11.69,1.615,23.268,4.801,34.413
	l15.109-4.319C148.227,397.591,146.816,387.465,146.816,377.236z"/>
<rect x="279.104" y="210.945" width="23.047" height="15.715"/>
<path d="M237.723,304.709c0-15.308-12.454-27.763-27.763-27.763s-27.763,12.454-27.763,27.763h15.715
	c0-6.643,5.405-12.048,12.048-12.048c6.643,0,12.048,5.405,12.048,12.048H237.723z"/>
<path d="M290.105,304.709c0-6.643,5.405-12.048,12.048-12.048c6.643,0,12.048,5.405,12.048,12.048h15.715
	c0-15.308-12.454-27.763-27.763-27.763s-27.763,12.454-27.763,27.763H290.105z"/>
<path d="M271.011,409.998l26.508-44.759h-82.923l26.508,44.759h7.097v28.35l-20.735,11.383l7.561,13.774l21.032-11.543
	l21.032,11.543l7.561-13.774l-20.735-11.383v-28.35H271.011z M269.948,380.954l-7.893,13.329h-11.997l-7.893-13.329H269.948z"/>
<g>
</g>
<g>
</g>
<g>
</g>
<g>
</g>
<g>
</g>
<g>
</g>
<g>
</g>
<g>
</g>
<g>
</g>
<g>
</g>
<g>
</g>
<g>
</g>
<g>
</g>
<g>
</g>
<g>
</g>
</svg>
