<?xml version="1.0" encoding="iso-8859-1"?>
<!-- Generator: Adobe Illustrator 19.0.0, SVG Export Plug-In . SVG Version: 6.00 Build 0)  -->
<svg version="1.1" id="Layer_1" xmlns="http://www.w3.org/2000/svg" xmlns:xlink="http://www.w3.org/1999/xlink" x="0px" y="0px"
	 viewBox="0 0 512 512" style="enable-background:new 0 0 512 512;" xml:space="preserve">
<path style="fill:#FFDA44;" d="M260.627,220.74c8.98,19.257,14.858,38.961,17.818,58.238c10.013,65.188-13.331,125.66-62.91,148.779
	c-49.578,23.119-110.908,2.131-154.41-47.441c-12.864-14.659-24.18-31.826-33.16-51.085c-6.881-14.752-11.936-29.766-15.265-44.639
	c-15.673-70.228,7.341-137.655,60.357-162.377c53.018-24.723,119.462,0.99,163.185,58.138
	C245.495,192.463,253.747,205.987,260.627,220.74z"/>
<path style="fill:#EDC10C;" d="M73.058,122.218c-5.147,2.4-10.007,5.207-14.58,8.375c61.629-16.843,135.59,26.695,171.781,104.31
	c36.192,77.614,22.004,162.257-30.513,198.641c5.367-1.467,10.641-3.385,15.788-5.785c64.248-29.959,84.436-122.644,45.093-207.016
	S137.306,92.258,73.058,122.218z"/>
<path style="fill:#FFFFFF;" d="M260.627,220.74c8.98,19.257,14.858,38.961,17.818,58.238L61.124,380.317
	c-12.864-14.659-24.18-31.826-33.16-51.085c-6.88-14.753-11.935-29.767-15.264-44.64l223.543-104.24
	C245.495,192.463,253.747,205.987,260.627,220.74z"/>
<path style="fill:#E6E6E6;" d="M260.627,220.74c8.98,19.257,14.858,38.961,17.818,58.238l-30.358,14.156
	c-2.96-19.278-8.843-38.967-17.827-58.234c-6.88-14.754-15.121-28.281-24.394-40.384l30.377-14.165
	C245.495,192.463,253.747,205.987,260.627,220.74z"/>
<path style="fill:#FFFFFF;" d="M48.054,319.866C10.783,239.939,26.945,152.562,83.37,118.107c-3.484,1.172-6.927,2.533-10.312,4.111
	C8.81,152.177-11.379,244.862,27.965,329.234s123.321,128.484,187.569,98.524c3.385-1.579,6.64-3.341,9.777-5.257
	C162.648,443.579,85.326,399.794,48.054,319.866z"/>
<g>
	<path style="fill:#FFDA44;" d="M88.175,344.143c-6.705-14.38-31.307-23.335-45.687-16.629c14.38-6.706,23.334-31.307,16.628-45.688
		c6.705,14.38,31.307,23.335,45.687,16.629C90.422,305.161,81.468,329.762,88.175,344.143z"/>
	<path style="fill:#FFDA44;" d="M160.76,310.296c-6.705-14.38-31.307-23.335-45.687-16.629c14.38-6.706,23.335-31.307,16.629-45.688
		c6.705,14.38,31.307,23.335,45.687,16.629C163.008,271.314,154.054,295.914,160.76,310.296z"/>
	<path style="fill:#FFDA44;" d="M233.345,276.448c-6.705-14.38-31.307-23.335-45.687-16.629
		c14.38-6.705,23.335-31.307,16.629-45.687c6.706,14.38,31.307,23.335,45.688,16.629
		C235.594,237.466,226.64,262.068,233.345,276.448z"/>
</g>
<ellipse transform="matrix(0.4226 -0.9063 0.9063 0.4226 -2.486 470.1021)" style="fill:#64C37D;" cx="367.708" cy="237.002" rx="168.563" ry="128.36"/>
<path style="fill:#49AA60;" d="M438.943,84.239c-5.147-2.4-10.421-4.318-15.788-5.785c52.517,36.385,66.705,121.028,30.513,198.641
	s-110.152,121.153-171.781,104.31c4.573,3.169,9.433,5.975,14.58,8.375c64.248,29.959,148.225-14.152,187.569-98.524
	S503.19,114.199,438.943,84.239z"/>
<polygon style="fill:#FFDA44;" points="235.813,229.54 242.112,257.504 267.581,244.354 273.879,272.317 299.344,259.166 
	305.64,287.128 331.108,273.977 337.408,301.941 362.875,288.791 369.174,316.755 394.644,303.605 400.945,331.57 426.413,318.419 
	432.715,346.384 458.189,333.236 501.324,240.732 475.85,253.88 469.548,225.914 444.08,239.065 437.78,211.101 412.309,224.25 
	406.011,196.287 380.543,209.437 374.244,181.473 348.775,194.624 342.48,166.661 317.013,179.813 310.717,151.85 285.248,165 
	278.949,137.036 "/>
<path style="fill:#EDC10C;" d="M499.902,243.788l-41.711,89.449l-25.479,13.145l-5.822-25.841
	c10.238-12.881,19.314-27.441,26.778-43.447c7.621-16.342,13.01-32.997,16.268-49.452l5.91,26.236l24.584-12.687
	C500.265,242.058,500.091,242.921,499.902,243.788z"/>
<path style="fill:#FFFFFF;" d="M271.463,192.132C308.734,112.204,386.057,68.42,448.72,89.497c-3.137-1.916-6.393-3.679-9.777-5.257
	c-64.248-29.959-148.225,14.152-187.569,98.524s-19.155,177.057,45.093,207.016c3.385,1.579,6.827,2.939,10.312,4.111
	C250.353,359.436,234.191,272.06,271.463,192.132z"/>
<path d="M212.223,420.657c-43.682,20.369-97.482,3.603-138.038-37.786l143.332-66.837l-6.623-14.203l-147.666,68.86
	c-10.827-13.106-20.398-28.122-28.16-44.769c-5.643-12.102-10.074-24.488-13.271-36.927l199.9-93.216l-6.623-14.203L18.417,273.28
	c-3.919-22.694-3.679-45.252,0.904-66.291c7.984-36.654,28.245-64.236,57.048-77.669c47.013-21.925,107.294-1.36,149.996,51.171
	l12.161-9.885c-47.312-58.203-115.139-80.504-168.78-55.488c-33.342,15.547-56.689,46.99-65.738,88.536
	c-8.88,40.765-2.894,86.541,16.854,128.893s50.967,76.361,87.904,95.762c21.185,11.128,42.831,16.731,63.651,16.731
	c16.173,0,31.85-3.38,46.428-10.178c18.426-8.592,33.76-21.963,45.579-39.747l-13.051-8.675
	C241.172,401.787,227.999,413.3,212.223,420.657z"/>
<path d="M108.115,305.556l-6.624-14.203c-4.836,2.256-12.397,2.001-19.73-0.669c-7.332-2.669-13.288-7.332-15.544-12.171
	l-14.204,6.624c4.927,10.566-2.272,30.347-12.839,35.275l6.624,14.203c4.838-2.255,12.398-2,19.73,0.669
	c7.332,2.669,13.288,7.332,15.544,12.172l14.204-6.624C90.349,330.265,97.548,310.484,108.115,305.556z M78.929,324.241
	c-2.499-1.409-5.19-2.647-8.041-3.684c-2.85-1.037-5.708-1.819-8.529-2.346c2.866-5.076,4.933-10.755,6-16.485
	c2.499,1.409,5.19,2.647,8.041,3.684c2.85,1.037,5.708,1.819,8.529,2.346C82.064,312.832,79.996,318.512,78.929,324.241z"/>
<path d="M180.701,271.709l-6.624-14.203c-4.837,2.256-12.398,1.999-19.73-0.669c-7.332-2.669-13.288-7.332-15.544-12.171
	l-14.204,6.624c4.927,10.566-2.272,30.347-12.839,35.275l6.624,14.203c4.838-2.257,12.398-2,19.73,0.669
	c7.332,2.669,13.288,7.332,15.544,12.171l14.204-6.624C162.934,296.417,170.134,276.637,180.701,271.709z M151.516,290.395
	c-2.499-1.409-5.192-2.647-8.041-3.684c-2.85-1.037-5.708-1.82-8.529-2.346c2.866-5.076,4.933-10.755,6-16.485
	c2.499,1.409,5.192,2.647,8.041,3.684c2.85,1.037,5.708,1.82,8.529,2.346C154.649,278.986,152.582,284.664,151.516,290.395z"/>
<path d="M507.991,165.676c-9.05-41.547-32.396-72.99-65.738-88.537c-33.342-15.547-72.435-13.221-110.079,6.552
	c-36.936,19.401-68.154,53.41-87.903,95.762c-6.683,14.333-11.822,29.167-15.329,44.191c-7.948-2.422-15.024-7.399-17.553-12.825
	l-14.204,6.624c2.257,4.838,2.001,12.398-0.669,19.731c-2.665,7.324-7.323,13.275-12.155,15.537
	c-0.005,0.002-0.009,0.004-0.015,0.007l6.623,14.204c8.909-4.155,25.028,0.491,32.511,8.795
	c0.529,19.293,4.021,37.749,10.452,54.678c11.738,30.904,32.217,53.895,59.223,66.488c14.579,6.799,30.253,10.178,46.429,10.178
	c20.818,0,42.467-5.602,63.65-16.73c36.937-19.402,68.154-53.41,87.904-95.762C510.885,252.216,516.872,206.441,507.991,165.676z
	 M435.631,91.341c47.347,22.08,68.916,81.308,57.783,144.655l-12.149,6.271l-6.302-27.967l-25.467,13.151l-6.301-27.965
	l-25.47,13.149l-6.298-27.964l-25.469,13.151l-6.3-27.965l-25.468,13.15l-6.295-27.963l-25.467,13.152l-6.298-27.963l-25.469,13.151
	l-2.999-13.313C329.035,90.815,388.276,69.26,435.631,91.341z M207.559,250.574c1.409-2.499,2.647-5.19,3.685-8.041
	c1.03-2.831,1.81-5.672,2.335-8.474c3.797,2.156,7.979,3.877,12.355,5.053c-0.919,5.829-1.6,11.624-2.013,17.366
	C218.865,253.65,213.233,251.619,207.559,250.574z M395.946,376.457c-33.21,17.444-67.363,19.655-96.168,6.223
	c-23.233-10.833-40.936-30.839-51.195-57.85c-6.515-17.153-9.667-36.685-9.395-56.996l22.978-11.864l6.297,27.964l25.466-13.151
	l6.295,27.962l25.47-13.152l6.299,27.965l25.468-13.151l6.298,27.963l25.471-13.149l6.301,27.966l25.468-13.151l5.713,25.35
	C417.096,363.671,406.786,370.763,395.946,376.457z M453.47,326.852l-15.341,7.918l-6.303-27.967l-25.467,13.151l-6.301-27.964
	L374.59,305.14l-6.298-27.965l-25.469,13.151l-6.299-27.965l-25.468,13.15l-6.295-27.962L279.296,260.7l-6.297-27.962l-25.47,13.15
	l-3.763-16.709c3.264-14.644,8.192-29.122,14.711-43.104c4.923-10.558,10.577-20.454,16.814-29.63l4.544,20.17l25.468-13.151
	l6.298,27.965l25.466-13.152l6.295,27.963l25.47-13.152l6.3,27.965l25.469-13.151l6.298,27.964l25.471-13.151l6.301,27.967
	l25.468-13.151l6.301,27.963l18.394-9.494c-3.022,10.682-6.97,21.381-11.896,31.946C470.375,302.01,462.469,315.062,453.47,326.852z
	"/>
<g>
</g>
<g>
</g>
<g>
</g>
<g>
</g>
<g>
</g>
<g>
</g>
<g>
</g>
<g>
</g>
<g>
</g>
<g>
</g>
<g>
</g>
<g>
</g>
<g>
</g>
<g>
</g>
<g>
</g>
</svg>
