<?xml version="1.0" encoding="iso-8859-1"?>
<!-- Generator: Adobe Illustrator 19.0.0, SVG Export Plug-In . SVG Version: 6.00 Build 0)  -->
<svg version="1.1" id="Layer_1" xmlns="http://www.w3.org/2000/svg" xmlns:xlink="http://www.w3.org/1999/xlink" x="0px" y="0px"
	 viewBox="0 0 511.998 511.998" style="enable-background:new 0 0 511.998 511.998;" xml:space="preserve">
<path style="fill:#F5E0CD;" d="M57.863,340.404c-11.494-24.648,7.688-57.918,7.688-57.918s37.816,6.692,49.308,31.34
	c11.494,24.648-7.687,57.918-7.687,57.918S69.357,365.052,57.863,340.404z"/>
<path style="fill:#F0D0B4;" d="M79.613,340.404c-8.566-18.37-0.095-41.523,4.776-52.128c-10.24-4.263-18.838-5.79-18.838-5.79
	s-19.18,33.27-7.688,57.918c11.493,24.648,49.308,31.34,49.308,31.34s1.247-2.166,2.911-5.79
	C98.844,361.276,85.626,353.302,79.613,340.404z"/>
<path style="fill:#F5E0CD;" d="M432.713,340.404c11.494-24.648-7.688-57.918-7.688-57.918s-37.816,6.692-49.308,31.34
	s7.687,57.918,7.687,57.918S421.219,365.052,432.713,340.404z"/>
<path style="fill:#F0D0B4;" d="M425.025,282.487c0,0-8.66,1.539-18.949,5.837c4.874,10.626,13.31,33.736,4.755,52.081
	c-5.995,12.855-19.145,20.819-30.361,25.503c1.675,3.651,2.932,5.836,2.932,5.836s37.816-6.692,49.308-31.34
	C444.205,315.756,425.025,282.487,425.025,282.487z"/>
<path style="fill:#F5E0CD;" d="M245.289,504.168L245.289,504.168c-75.564,0-136.821-61.256-136.821-136.821V237.565h273.642v129.782
	C382.109,442.911,320.852,504.168,245.289,504.168z"/>
<path style="fill:#FFFFFF;" d="M129.835,367.347V237.565h-21.368v129.782c0,75.564,61.256,136.821,136.821,136.821l0,0
	c3.595,0,7.158-0.14,10.683-0.412C185.402,498.304,129.835,439.316,129.835,367.347z"/>
<path style="fill:#F0D0B4;" d="M349.178,237.565v129.782c0,69.99-52.556,127.697-120.355,135.831
	c5.399,0.647,10.892,0.99,16.465,0.99l0,0c75.564,0,136.821-61.256,136.821-136.821V237.565H349.178z"/>
<rect x="87.997" y="185.141" style="fill:#FFFFFF;" width="318.489" height="78.317"/>
<rect x="349.179" y="185.141" style="fill:#E6E6E6;" width="57.312" height="78.317"/>
<path style="fill:#49AA60;" d="M389.428,69.775c-3.882-4.929-6.579-10.83-7.661-17.283H210.331l-99.803,133.071h273.433
	l-46.102-61.468L389.428,69.775z"/>
<g>
	<polygon style="fill:#64C37D;" points="284.156,52.491 210.329,52.491 110.53,185.566 383.961,185.566 	"/>
	<polygon style="fill:#64C37D;" points="383.958,185.57 110.527,185.57 137.719,149.314 183.132,88.749 210.324,52.493 
		284.15,52.493 311.342,88.749 	"/>
</g>
<polygon style="fill:#49AA60;" points="284.156,52.491 250.949,52.491 350.754,185.565 383.961,185.565 "/>
<polygon style="fill:#FFDA44;" points="356.766,149.314 137.719,149.314 183.132,88.749 311.342,88.749 "/>
<polygon style="fill:#EDC10C;" points="311.342,88.749 278.637,88.749 324.061,149.314 356.766,149.314 "/>
<g>
	<polygon style="fill:#FFFFFF;" points="210.329,52.491 110.53,185.565 131.623,185.565 231.421,52.491 	"/>
	<circle style="fill:#FFFFFF;" cx="419.507" cy="46.113" r="38.28"/>
</g>
<path style="fill:#E6E6E6;" d="M419.507,7.832c-3.763,0-7.395,0.552-10.831,1.564c15.865,4.673,27.45,19.338,27.45,36.716
	s-11.585,32.043-27.45,36.716c3.436,1.012,7.067,1.564,10.831,1.564c21.141,0,38.28-17.139,38.28-38.28S440.65,7.832,419.507,7.832z
	"/>
<path d="M64.961,337.094c-7.209-15.461,0.459-36.102,4.808-45.566c3.429,0.94,8.104,2.424,13.065,4.595l6.28-14.35
	c-11.645-5.096-21.773-6.924-22.199-6.998l-5.407-0.958l-2.742,4.758c-0.867,1.503-21.065,37.122-8.001,65.14
	c5.485,11.763,16.255,21.31,32.01,28.374l6.408-14.293C80.78,354.027,69.757,347.378,64.961,337.094z"/>
<path d="M429.067,273.818l-5.408,0.958c-0.429,0.075-10.639,1.918-22.344,7.063l6.302,14.339c5.008-2.2,9.732-3.702,13.189-4.649
	c4.35,9.469,12.018,30.106,4.809,45.566c-4.811,10.318-15.892,16.982-24.341,20.754l6.387,14.303
	c15.832-7.069,26.648-16.638,32.151-28.436c13.064-28.018-7.134-63.636-8.001-65.14L429.067,273.818z"/>
<path d="M414.321,271.29v-93.98h-26.76l-39.466-52.621l32.814-34.564l-11.36-10.785l-30.986,32.638l-38.741-51.654h60.788V44.662
	H206.415L106.93,177.31H80.168v93.98h20.467v96.057c0,24.596,6.286,48.89,18.179,70.256l13.686-7.618
	c-10.599-19.043-16.202-40.703-16.202-62.638V271.29h257.978v96.057c0,71.124-57.865,128.988-128.989,128.988
	c-39.196,0-75.808-17.517-100.447-48.059l-12.191,9.835c27.628,34.246,68.683,53.887,112.639,53.887
	c79.761,0,144.653-64.891,144.653-144.651V271.29H414.321z M141.634,157.141h179.295v-15.663H153.382l60.865-81.154h65.995
	l15.442,20.589H217.55v15.663h89.882l60.549,80.733H126.509L141.634,157.141z M95.832,193.395h302.826v62.232h-26.496v-25.375
	h-15.663v25.375H332.48v-25.375h-15.663v25.375H292.8v-25.375h-15.663v25.375h-24.017v-25.375h-15.663v25.375h-24.017v-25.375
	h-15.663v25.375h-24.017v-25.375h-15.663v25.375h-24.017v-25.375h-15.663v25.375H95.832V193.395z"/>
<path d="M419.507,0c-25.427,0-46.112,20.686-46.112,46.112s20.686,46.112,46.112,46.112c25.427,0,46.112-20.686,46.112-46.112
	S444.934,0,419.507,0z M419.507,76.561c-16.79,0-30.449-13.66-30.449-30.449s13.66-30.449,30.449-30.449
	c16.79,0,30.449,13.66,30.449,30.449S436.297,76.561,419.507,76.561z"/>
<path d="M188.084,279.312c-15.258,0-27.672,12.414-27.672,27.672h15.663c0-6.621,5.387-12.009,12.009-12.009
	s12.009,5.387,12.009,12.009h15.663C215.756,291.726,203.342,279.312,188.084,279.312z"/>
<path d="M302.492,294.975c6.621,0,12.009,5.387,12.009,12.009h15.663c0-15.258-12.414-27.672-27.672-27.672
	s-27.672,12.414-27.672,27.672h15.663C290.484,300.363,295.87,294.975,302.492,294.975z"/>
<path d="M210.215,402.64l-11.075,11.076c12.327,12.327,28.716,19.116,46.149,19.116s33.822-6.789,46.149-19.117l-11.075-11.074
	c-9.369,9.369-21.824,14.527-35.072,14.527C232.038,417.169,219.583,412.01,210.215,402.64z"/>
<g>
</g>
<g>
</g>
<g>
</g>
<g>
</g>
<g>
</g>
<g>
</g>
<g>
</g>
<g>
</g>
<g>
</g>
<g>
</g>
<g>
</g>
<g>
</g>
<g>
</g>
<g>
</g>
<g>
</g>
</svg>
