<?xml version="1.0" encoding="iso-8859-1"?>
<!-- Generator: Adobe Illustrator 19.0.0, SVG Export Plug-In . SVG Version: 6.00 Build 0)  -->
<svg version="1.1" id="Layer_1" xmlns="http://www.w3.org/2000/svg" xmlns:xlink="http://www.w3.org/1999/xlink" x="0px" y="0px"
	 viewBox="0 0 512 512" style="enable-background:new 0 0 512 512;" xml:space="preserve">
<rect x="47.64" y="78.528" style="fill:#64C37D;" width="418.814" height="77.481"/>
<rect x="420.384" y="78.528" style="fill:#49AA60;" width="46.07" height="77.481"/>
<rect x="47.012" y="78.528" style="fill:#FFFFFF;" width="23.035" height="77.481"/>
<rect x="422.479" y="156.008" style="fill:#D80027;" width="43.975" height="308.875"/>
<rect x="443.419" y="156.008" style="fill:#BC052F;" width="23.035" height="308.875"/>
<rect x="47.64" y="156.008" style="fill:#D80027;" width="43.975" height="308.875"/>
<g>
	<rect x="47.012" y="156.008" style="fill:#FFFFFF;" width="16.962" height="308.875"/>
	<rect x="7.853" y="47.117" style="fill:#FFFFFF;" width="496.294" height="31.411"/>
</g>
<rect x="458.078" y="47.117" style="fill:#E6E6E6;" width="46.07" height="31.411"/>
<rect x="91.616" y="387.403" style="fill:#FFFFFF;" width="330.863" height="77.481"/>
<rect x="387.926" y="387.403" style="fill:#E6E6E6;" width="34.552" height="77.481"/>
<path style="fill:#FF9811;" d="M304.878,287.185c0,27.428-22.235,49.663-49.663,49.663s-49.663-22.235-49.663-49.663
	s49.663-86.452,49.663-86.452S304.878,259.757,304.878,287.185z"/>
<g>
	<path style="fill:#FFDA44;" d="M283.841,306.332c0,15.809-12.816,28.626-28.626,28.626c-15.809,0-28.625-12.816-28.625-28.626
		c0-15.809,28.625-49.829,28.625-49.829S283.841,290.523,283.841,306.332z"/>
	<path style="fill:#FFDA44;" d="M152.082,337.193c0.519-0.032,1.043-0.048,1.571-0.048h209.93c13.878,0,25.129,11.25,25.129,25.129
		l0,0c0,13.878-11.25,25.129-25.129,25.129h-209.93"/>
</g>
<g>
	<circle style="fill:#EDC10C;" cx="148.941" cy="362.274" r="25.129"/>
	<path style="fill:#EDC10C;" d="M387.141,379.027h-12.564c-23.382,0-42.405-19.023-42.405-42.405h15.706
		c0,14.721,11.978,26.699,26.699,26.699h12.564V379.027z"/>
	<path style="fill:#EDC10C;" d="M325.89,385.832h-15.706c0-10.103-8.22-18.323-18.323-18.323H214.38
		c-15.876,0-28.793-12.917-28.793-28.793h15.706c0,7.217,5.871,13.088,13.088,13.088h77.481
		C310.625,351.804,325.89,367.068,325.89,385.832z"/>
</g>
<path d="M0,39.264V86.38h512V39.264H0z M496.294,70.675H15.706V54.969h480.589V70.675z"/>
<polygon points="458.601,148.155 55.493,148.155 55.493,101.039 39.787,101.039 39.787,163.861 474.307,163.861 474.307,101.039 
	458.601,101.039 "/>
<path d="M458.601,457.031h-28.27V379.55V178.519h-15.706V379.55h-22.963c3.104-5.028,4.901-10.946,4.901-17.276
	c0-18.186-14.796-32.982-32.982-32.982v15.706c9.526,0,17.276,7.75,17.276,17.276s-7.75,17.276-17.276,17.276H177.021
	c3.104-5.028,4.901-10.946,4.901-17.276s-1.797-12.248-4.901-17.276h175.306v-15.706h-57.989
	c11.304-10.509,18.393-25.493,18.393-42.108c0-29.443-46.235-85.242-51.507-91.509l-6.009-7.141l-6.009,7.141
	c-5.272,6.265-51.507,62.065-51.507,91.509c0,16.614,7.089,31.597,18.393,42.108h-62.441c-0.688,0-1.372,0.022-2.049,0.063
	l0.003,0.054c-0.881-0.071-1.767-0.117-2.666-0.117c-18.186,0-32.982,14.796-32.982,32.982c0,6.33,1.797,12.248,4.901,17.276H99.468
	V178.519H83.763V379.55v77.481h-28.27V178.519H39.787v294.217h434.519V178.519h-15.706V457.031z M255.215,327.104
	c-11.454,0-20.773-9.318-20.773-20.772c0-4.743,6.498-18.928,20.773-37.338c14.275,18.41,20.773,32.595,20.773,37.338
	C275.988,317.787,266.668,327.104,255.215,327.104z M213.403,287.185c0-16.036,23.604-51.114,41.811-74.035
	c18.207,22.921,41.811,57.998,41.811,74.035c0,7.427-1.956,14.402-5.365,20.454c0.016-0.435,0.034-0.869,0.034-1.307
	c0-17.775-25.381-48.838-30.471-54.886l-6.008-7.14l-6.008,7.14c-5.089,6.047-30.471,37.111-30.471,54.886
	c0,0.438,0.018,0.872,0.033,1.307C215.359,301.588,213.403,294.613,213.403,287.185z M131.665,362.274
	c0-9.526,7.75-17.276,17.276-17.276c9.526,0,17.276,7.75,17.276,17.276s-7.75,17.276-17.276,17.276
	C139.415,379.55,131.665,371.8,131.665,362.274z M414.626,457.031h-31.561v-27.223h-15.706v27.223h-31.561v-27.223h-15.706v27.223
	h-31.561v-27.223h-15.706v27.223h-31.561v-27.223h-15.706v27.223H194v-27.223h-15.706v27.223h-31.562v-27.223h-15.706v27.223H99.468
	v-61.775h315.157V457.031z"/>
<g>
</g>
<g>
</g>
<g>
</g>
<g>
</g>
<g>
</g>
<g>
</g>
<g>
</g>
<g>
</g>
<g>
</g>
<g>
</g>
<g>
</g>
<g>
</g>
<g>
</g>
<g>
</g>
<g>
</g>
</svg>
