<?xml version="1.0" encoding="iso-8859-1"?>
<!-- Generator: Adobe Illustrator 19.0.0, SVG Export Plug-In . SVG Version: 6.00 Build 0)  -->
<svg version="1.1" id="Layer_1" xmlns="http://www.w3.org/2000/svg" xmlns:xlink="http://www.w3.org/1999/xlink" x="0px" y="0px"
	 viewBox="0 0 512 512" style="enable-background:new 0 0 512 512;" xml:space="preserve">
<polygon style="fill:#FFDA44;" points="221.73,98.527 139.306,16.103 132.239,52.929 94.67,60.74 132.457,98.527 "/>
<polygon style="fill:#FFFFFF;" points="139.306,16.103 135.807,34.337 199.997,98.527 221.73,98.527 "/>
<polygon style="fill:#EDC10C;" points="165.436,98.527 132.453,98.527 94.672,60.736 122.037,55.044 "/>
<polygon style="fill:#FFDA44;" points="380.596,98.527 418.383,60.74 380.814,52.929 373.747,16.103 291.323,98.527 "/>
<polygon style="fill:#FFFFFF;" points="373.747,16.103 291.323,98.527 313.056,98.527 377.246,34.337 "/>
<polygon style="fill:#EDC10C;" points="418.381,60.736 380.599,98.527 347.617,98.527 391.016,55.044 "/>
<polyline style="fill:#64C37D;" points="418.548,164.809 418.548,504.109 93.452,504.109 93.452,164.809 "/>
<rect x="93.447" y="164.81" style="fill:#FFFFFF;" width="22.62" height="339.3"/>
<rect x="384.351" y="164.81" style="fill:#49AA60;" width="34.193" height="339.3"/>
<rect x="52.942" y="98.529" style="fill:#64C37D;" width="406.108" height="66.282"/>
<rect x="224.433" y="64.862" style="fill:#FFDA44;" width="63.126" height="438.197"/>
<rect x="224.433" y="64.862" style="fill:#FFFFFF;" width="16.833" height="438.197"/>
<rect x="264.413" y="64.862" style="fill:#EDC10C;" width="23.146" height="438.197"/>
<rect x="52.942" y="98.529" style="fill:#FFFFFF;" width="23.146" height="66.282"/>
<rect x="384.351" y="98.529" style="fill:#49AA60;" width="74.699" height="66.282"/>
<path d="M426.439,512H85.561V187.429h15.781v308.789h309.315V187.429h15.781V512z M466.945,172.7H295.453v307.211h-15.781V72.751
	h-47.344v407.16h-15.781V172.7H45.055V90.637h68.351L78.759,55.988l46.722-9.714L134.362,0l82.185,82.185V56.97h78.907v26.268
	L378.691,0l8.881,46.274l46.722,9.714l-34.649,34.649h67.299V172.7z M135.725,90.637h66.955l-58.43-58.43l-5.254,27.377
	l-28.416,5.907L135.725,90.637z M216.547,156.919v-50.5H60.837v50.5H216.547z M368.802,32.207l-58.429,58.43h66.953l25.145-25.145
	l-28.416-5.907L368.802,32.207z M451.163,106.418h-155.71v50.5h155.71V106.418z"/>
<g>
	<polygon style="fill:#FFFFFF;" points="216.547,428.848 101.342,313.644 101.342,335.962 216.547,451.166 	"/>
	<polygon style="fill:#FFFFFF;" points="101.342,240.521 216.547,355.726 216.547,333.408 101.342,218.203 	"/>
	<polygon style="fill:#FFFFFF;" points="101.342,431.401 166.16,496.219 188.478,496.219 101.342,409.083 	"/>
	<polygon style="fill:#FFFFFF;" points="295.453,434.633 357.04,496.219 379.358,496.219 295.453,412.314 	"/>
	<polygon style="fill:#FFFFFF;" points="295.453,243.753 410.658,358.958 410.658,336.639 295.453,221.434 	"/>
	<polygon style="fill:#FFFFFF;" points="410.658,263.519 410.658,241.2 342.159,172.7 319.841,172.7 	"/>
	<polygon style="fill:#FFFFFF;" points="295.453,316.875 295.453,339.193 410.658,454.397 410.658,432.079 	"/>
	<polygon style="fill:#FFFFFF;" points="216.547,237.969 151.279,172.7 128.961,172.7 216.547,260.286 	"/>
</g>
<g>
</g>
<g>
</g>
<g>
</g>
<g>
</g>
<g>
</g>
<g>
</g>
<g>
</g>
<g>
</g>
<g>
</g>
<g>
</g>
<g>
</g>
<g>
</g>
<g>
</g>
<g>
</g>
<g>
</g>
</svg>
