<?xml version="1.0" encoding="iso-8859-1"?>
<!-- Generator: Adobe Illustrator 19.0.0, SVG Export Plug-In . SVG Version: 6.00 Build 0)  -->
<svg version="1.1" id="Layer_1" xmlns="http://www.w3.org/2000/svg" xmlns:xlink="http://www.w3.org/1999/xlink" x="0px" y="0px"
	 viewBox="0 0 511.999 511.999" style="enable-background:new 0 0 511.999 511.999;" xml:space="preserve">
<path style="fill:#FFDA44;" d="M401.585,255.455c33.041,0,59.775-27.457,59.345-61.159c-0.423-33.169-27.611-59.556-60.23-59.556
	h-70.602c-7.523,0-12.461-8.051-9.089-14.889c5.312-10.769,8.226-22.972,8.026-35.888c-0.643-41.296-33.661-75.144-74.262-76.107
	c-42.854-1.017-77.909,34.008-77.909,77.359c0,12.469,2.903,24.247,8.056,34.677c3.368,6.817-1.61,14.847-9.112,14.847h-64.511
	c-32.619,0-59.807,26.387-60.23,59.556c-0.43,33.701,26.304,61.159,59.345,61.159h50.105c5.603,0,10.145,4.619,10.145,10.317v53.175
	c0,8.21-3.207,16.083-8.916,21.889l-59.289,60.285c-23.172,23.576-23.172,61.791,0,85.367c23.182,23.565,60.761,23.565,83.943,0
	l48.35-49.162c11.887-12.086,31.156-12.085,43.041,0.002l48.34,49.161c23.182,23.565,60.761,23.565,83.943,0
	c23.172-23.576,23.172-61.791,0-85.367l-65.915-67.033c-5.708-5.804-8.914-13.678-8.914-21.886v-46.429
	c0-5.698,4.542-10.317,10.145-10.317L401.585,255.455L401.585,255.455z"/>
<g>
	<path style="fill:#FFFFFF;" d="M132.221,255.455c-33.041,0-59.775-27.457-59.345-61.159c0.423-33.169,27.611-59.556,60.23-59.556
		h-21.807c-32.619,0-59.807,26.387-60.23,59.556c-0.429,33.701,26.304,61.159,59.345,61.159L132.221,255.455L132.221,255.455z"/>
	<path style="fill:#FFFFFF;" d="M124.267,486.488c-23.172-23.576-23.172-61.791,0-85.367l59.289-60.285
		c5.709-5.804,8.916-13.679,8.916-21.889v-53.175c0-5.698-4.542-10.317-10.145-10.317H160.52c5.603,0,10.145,4.619,10.145,10.317
		v53.175c0,8.21-3.207,16.083-8.916,21.889l-59.289,60.285c-23.172,23.576-23.172,61.791,0,85.367
		c14.378,14.615,34.291,20.157,52.875,16.643C143.954,500.98,133.072,495.438,124.267,486.488z"/>
</g>
<g>
	<path style="fill:#EDC10C;" d="M344.162,334.088c-5.707-5.804-8.914-13.678-8.914-21.886v-46.429
		c0-5.698,4.542-10.317,10.145-10.317h-32.528c-5.604,0-10.146,4.62-10.146,10.317v46.429c0,8.209,3.207,16.082,8.914,21.886
		l65.915,67.033c23.172,23.576,23.172,61.791,0,85.367c-7.41,7.533-16.295,12.646-25.708,15.363
		c20.032,5.782,42.464,0.67,58.235-15.363c23.172-23.576,23.172-61.791,0-85.367L344.162,334.088z"/>
	<path style="fill:#EDC10C;" d="M400.7,134.74h-32.528c32.618,0,59.807,26.387,60.23,59.556
		c0.43,33.701-26.304,61.159-59.345,61.159h32.528c33.041,0,59.775-27.457,59.345-61.159
		C460.507,161.127,433.319,134.74,400.7,134.74z"/>
</g>
<g>
	<polygon style="fill:#FFFFFF;" points="121.356,260.077 109.06,236.199 119.509,215.897 109.059,195.615 119.509,175.322 
		109.06,155.03 121.356,131.151 135.291,138.326 126.688,155.03 137.137,175.322 126.69,195.613 137.137,215.893 126.688,236.197 
		135.291,252.904 	"/>
	<polygon style="fill:#FFFFFF;" points="387.161,260.082 374.862,236.199 385.311,215.897 374.861,195.615 385.311,175.322 
		374.862,155.03 387.159,131.151 401.092,138.326 392.491,155.03 402.94,175.322 392.492,195.613 402.94,215.893 392.491,236.198 
		401.091,252.897 	"/>
	<polygon style="fill:#FFFFFF;" points="199.419,479.017 198.792,478.808 174.034,470.741 167.367,449.059 145.809,442.037 
		139.153,420.366 117.596,413.345 109.745,387.76 124.749,383.226 124.885,383.675 130.192,400.964 151.747,407.984 
		158.403,429.656 179.957,436.677 186.624,458.359 204.371,464.146 	"/>
	<polygon style="fill:#FFFFFF;" points="325.591,481.272 310.648,476.541 310.784,476.113 318.49,451.035 340.056,444.004 
		346.712,422.331 368.268,415.31 374.925,393.637 400.403,385.35 405.15,400.286 404.491,400.495 387.516,406.021 380.861,427.691 
		359.305,434.713 352.649,456.383 331.082,463.415 	"/>
	<circle style="fill:#FFFFFF;" cx="225.698" cy="74.709" r="13.584"/>
	<circle style="fill:#FFFFFF;" cx="277.943" cy="74.709" r="13.584"/>
	<path style="fill:#FFFFFF;" d="M252.865,143.746c-13.939,0-27.879-5.306-38.491-15.918l11.083-11.082
		c15.112,15.112,39.702,15.112,54.814,0l11.083,11.082C280.744,138.439,266.804,143.746,252.865,143.746z"/>
	<circle style="fill:#FFFFFF;" cx="252.865" cy="266.97" r="18.286"/>
	<circle style="fill:#FFFFFF;" cx="252.865" cy="204.276" r="18.286"/>
	<circle style="fill:#FFFFFF;" cx="252.865" cy="329.664" r="18.286"/>
</g>
<path d="M368.106,511.999c-0.002,0,0,0-0.001,0c-17.971,0-34.86-7.108-47.557-20.014l-48.342-49.162
	c-4.263-4.335-9.921-6.724-15.933-6.724c-6.011,0-11.67,2.388-15.934,6.723l-48.348,49.162
	c-12.698,12.908-29.587,20.015-47.559,20.015c-17.971,0-34.861-7.107-47.559-20.014c-26.112-26.568-26.112-69.792-0.002-96.356
	l59.29-60.287c4.238-4.308,6.667-10.283,6.667-16.393v-53.175c0-1.368-1.035-2.481-2.309-2.481h-50.105
	c-17.92,0-34.774-7.075-47.458-19.922C50,230.247,42.995,212.785,43.234,194.197c0.473-37.105,31.007-67.292,68.066-67.292h64.511
	c1.089,0,1.692-0.708,1.954-1.131c0.276-0.442,0.658-1.344,0.133-2.407c-5.884-11.909-8.867-24.744-8.867-38.148
	c0-23.392,9.147-45.209,25.756-61.427C211.027,7.929,232.411-0.508,254.96,0.024c21.695,0.515,42.128,9.496,57.538,25.291
	c15.376,15.759,24.032,36.545,24.373,58.53c0.213,13.68-2.842,27.331-8.834,39.476c-0.542,1.1-0.154,2.021,0.126,2.471
	c0.259,0.416,0.854,1.114,1.933,1.114h70.602c37.058,0,67.592,30.187,68.066,67.292c0.238,18.588-6.767,36.051-19.722,49.173
	c-12.684,12.847-29.538,19.922-47.458,19.922h-56.193c-1.273,0-2.308,1.113-2.308,2.481v46.429c0,6.11,2.429,12.084,6.665,16.392
	l65.915,67.032c26.111,26.567,26.111,69.791,0.001,96.355C402.967,504.89,386.075,511.999,368.106,511.999z M256.273,420.425
	c0,0,0.001,0,0.002,0c10.247,0,19.873,4.052,27.107,11.407l48.341,49.161c9.726,9.886,22.647,15.331,36.382,15.331
	c13.736,0,26.659-5.445,36.385-15.333c20.153-20.504,20.153-53.872-0.002-74.378l-65.914-67.032
	c-7.199-7.321-11.164-17.045-11.164-27.382V265.77c0-10.01,8.067-18.154,17.982-18.154h56.193c13.695,0,26.588-5.42,36.305-15.261
	c9.988-10.117,15.387-23.598,15.204-37.961c-0.366-28.573-23.869-51.819-52.394-51.819h-70.602c-6.232,0-11.93-3.182-15.244-8.512
	c-3.35-5.387-3.676-11.996-0.872-17.681c4.966-10.067,7.395-20.933,7.218-32.299c-0.28-17.963-7.354-34.949-19.92-47.827
	c-12.534-12.846-29.115-20.15-46.692-20.567c-18.322-0.456-35.655,6.423-48.853,19.311c-13.563,13.245-21.033,31.078-21.033,50.215
	c0,10.976,2.438,21.475,7.246,31.206c2.795,5.657,2.469,12.245-0.871,17.622c-3.32,5.344-9.028,8.533-15.267,8.533h-64.511
	c-28.526,0-52.029,23.246-52.394,51.819c-0.183,14.363,5.216,27.844,15.204,37.961c9.717,9.841,22.61,15.261,36.305,15.261h50.105
	c9.915,0,17.983,8.144,17.983,18.154v53.175c0,10.337-3.965,20.063-11.167,27.384l-59.288,60.285
	c-20.154,20.505-20.154,53.873,0.001,74.379c9.725,9.885,22.647,15.33,36.382,15.33c13.736,0,26.658-5.445,36.384-15.333
	l48.348-49.161C236.399,424.476,246.025,420.425,256.273,420.425z"/>
<g>
</g>
<g>
</g>
<g>
</g>
<g>
</g>
<g>
</g>
<g>
</g>
<g>
</g>
<g>
</g>
<g>
</g>
<g>
</g>
<g>
</g>
<g>
</g>
<g>
</g>
<g>
</g>
<g>
</g>
</svg>
