<?xml version="1.0" encoding="iso-8859-1"?>
<!-- Generator: Adobe Illustrator 19.0.0, SVG Export Plug-In . SVG Version: 6.00 Build 0)  -->
<svg version="1.1" id="Layer_1" xmlns="http://www.w3.org/2000/svg" xmlns:xlink="http://www.w3.org/1999/xlink" x="0px" y="0px"
	 viewBox="0 0 512 512" style="enable-background:new 0 0 512 512;" xml:space="preserve">
<polygon style="fill:#64C37D;" points="159.291,205.446 159.291,85.682 108.091,85.682 108.091,205.446 39.128,289.437 
	39.128,504.686 228.254,504.686 228.254,289.437 "/>
<polygon style="fill:#49AA60;" points="159.291,205.446 159.291,85.682 136.303,85.682 136.303,216.94 205.267,300.931 
	205.267,504.686 228.254,504.686 228.254,289.437 "/>
<rect x="39.65" y="339.592" style="fill:#FFFFFF;" width="189.127" height="94.041"/>
<rect x="206.315" y="339.592" style="fill:#E6E6E6;" width="22.465" height="94.041"/>
<polygon style="fill:#FFFFFF;" points="53.756,295.706 122.72,211.715 122.72,85.682 108.091,85.682 108.091,205.446 
	39.128,289.437 39.128,504.686 53.756,504.686 "/>
<rect x="108.094" y="8.359" style="fill:#FFDA44;" width="51.2" height="77.322"/>
<rect x="136.306" y="8.359" style="fill:#EDC10C;" width="22.988" height="77.322"/>
<rect x="108.094" y="8.359" style="fill:#FFFFFF;" width="15.673" height="77.322"/>
<path style="fill:#FFDA44;" d="M376.63,245.029c0-21.063,17.076-38.139,38.139-38.139s38.139,17.076,38.139,38.139"/>
<polygon style="fill:#D80027;" points="420.651,285.257 359.305,346.603 297.959,285.257 "/>
<polygon style="fill:#FFFFFF;" points="359.304,474.384 399.752,503.641 318.856,503.641 "/>
<polygon points="167.65,107.624 151.977,107.624 151.977,208.251 220.94,292.242 220.94,425.796 62.116,425.796 62.116,441.469 
	220.94,441.469 220.94,496.327 47.487,496.327 47.487,347.429 206.311,347.429 206.311,331.755 47.487,331.755 47.487,292.242 
	116.45,208.251 116.45,107.624 100.777,107.624 100.777,202.641 31.813,286.631 31.813,512 236.613,512 236.613,286.631 
	167.65,202.641 "/>
<path d="M167.65,0h-66.873v92.996h66.873V0z M151.977,15.673v22.988H116.45V15.673H151.977z M116.45,77.322V54.335h35.527v22.988
	H116.45z"/>
<path d="M367.141,349.849l113.045-113.045h-20.194c-3.89-21.438-22.682-37.751-45.224-37.751s-41.334,16.313-45.224,37.751h-41.589
	l-25.725-55.17l-14.204,6.625l41.577,89.161h-28.397l-24.943-24.943h23.045v-15.673h-60.884l113.044,113.045V470.38l-56.815,41.098
	h129.306l-56.817-41.098V349.849z M414.769,214.727c13.857,0,25.564,9.355,29.158,22.078H385.61
	C389.204,224.081,400.911,214.727,414.769,214.727z M335.263,252.478h107.083l-24.943,24.943h-70.51L335.263,252.478z
	 M336.91,293.094l9.405,20.17l14.204-6.625l-6.316-13.545h47.527l-42.427,42.426l-42.425-42.426H336.91z M343.062,495.804
	l16.242-11.748l16.242,11.748H343.062z"/>
<g>
</g>
<g>
</g>
<g>
</g>
<g>
</g>
<g>
</g>
<g>
</g>
<g>
</g>
<g>
</g>
<g>
</g>
<g>
</g>
<g>
</g>
<g>
</g>
<g>
</g>
<g>
</g>
<g>
</g>
</svg>
