<?xml version="1.0" encoding="iso-8859-1"?>
<!-- Generator: Adobe Illustrator 19.0.0, SVG Export Plug-In . SVG Version: 6.00 Build 0)  -->
<svg version="1.1" id="Layer_1" xmlns="http://www.w3.org/2000/svg" xmlns:xlink="http://www.w3.org/1999/xlink" x="0px" y="0px"
	 viewBox="0 0 512 512" style="enable-background:new 0 0 512 512;" xml:space="preserve">
<g>
	<rect x="7.837" y="244.893" style="fill:#FFFFFF;" width="213.776" height="51.118"/>
	<rect x="169.075" y="244.893" style="fill:#FFFFFF;" width="52.527" height="51.127"/>
</g>
<rect x="169.075" y="244.893" style="fill:#E6E6E6;" width="52.527" height="51.127"/>
<polyline style="fill:#D80027;" points="202.42,244.656 202.42,227.275 270.808,158.887 238.949,127.028 202.42,150.732 
	202.42,29.834 27.023,29.834 27.023,244.656 "/>
<polygon style="fill:#BC052F;" points="238.949,127.028 202.42,150.732 202.42,29.834 169.075,29.834 169.075,244.656 
	202.42,244.656 202.42,227.275 270.808,158.887 "/>
<g>
	<rect x="27.023" y="29.834" style="fill:#FFFFFF;" width="21.565" height="214.821"/>
	<polygon style="fill:#FFFFFF;" points="162.939,132.291 147.431,132.291 156.261,123.46 149.255,116.454 133.42,132.291 
		119.675,132.291 119.675,118.547 135.513,102.711 128.506,95.705 119.675,104.536 119.675,89.027 109.768,89.027 109.768,104.536 
		100.937,95.705 93.931,102.711 109.768,118.547 109.768,132.291 96.024,132.291 80.189,116.454 73.182,123.46 82.013,132.291 
		66.504,132.291 66.504,142.2 82.013,142.2 73.182,151.03 80.189,158.036 96.024,142.2 109.768,142.2 109.768,155.943 
		93.931,171.78 100.937,178.785 109.768,169.954 109.768,185.464 119.675,185.464 119.675,169.954 128.506,178.785 135.513,171.78 
		119.675,155.943 119.675,142.2 133.42,142.2 149.255,158.036 156.261,151.03 147.431,142.2 162.939,142.2 	"/>
	<rect x="290.398" y="431.042" style="fill:#FFFFFF;" width="213.776" height="51.118"/>
	<rect x="290.398" y="431.042" style="fill:#FFFFFF;" width="52.527" height="51.127"/>
</g>
<rect x="290.398" y="431.042" style="fill:#E6E6E6;" width="52.527" height="51.127"/>
<polyline style="fill:#D80027;" points="309.58,430.808 309.58,413.427 241.192,345.038 273.051,313.179 309.58,336.884 
	309.58,215.987 484.977,215.987 484.977,430.808 "/>
<polygon style="fill:#BC052F;" points="273.051,313.179 309.58,336.884 309.58,215.987 342.925,215.987 342.925,430.808 
	309.58,430.808 309.58,413.427 241.192,345.038 "/>
<g>
	<rect x="463.412" y="215.991" style="fill:#FFFFFF;" width="21.565" height="214.821"/>
	<polygon style="fill:#FFFFFF;" points="349.061,318.443 364.569,318.443 355.739,309.612 362.745,302.606 378.581,318.443 
		392.325,318.443 392.325,304.7 376.487,288.863 383.494,281.858 392.325,290.688 392.325,275.179 402.232,275.179 402.232,290.688 
		411.063,281.858 418.069,288.863 402.232,304.7 402.232,318.443 415.976,318.443 431.811,302.606 438.818,309.612 429.988,318.443 
		445.496,318.443 445.496,328.351 429.988,328.351 438.818,337.182 431.811,344.188 415.976,328.351 402.232,328.351 
		402.232,342.095 418.069,357.931 411.063,364.936 402.232,356.106 402.232,371.615 392.325,371.615 392.325,356.106 
		383.494,364.936 376.487,357.931 392.325,342.095 392.325,328.351 378.581,328.351 362.745,344.188 355.739,337.182 
		364.569,328.351 349.061,328.351 	"/>
</g>
<path d="M210.258,230.522l71.634-71.635l-41.989-41.989l-52.051,35.452l8.822,12.954l41.325-28.145l21.729,21.729l-65.142,65.143
	v13.029H34.86V37.672h159.723v79.359h15.673V21.998H19.186v215.061H0v66.792h229.444v-66.792h-19.186V230.522z M213.77,288.178
	H15.673v-35.445h14.866v14.604h15.673v-14.604h14.865v14.604h15.673v-14.604h14.865v14.604h15.673v-14.604h14.866v14.604h15.673
	v-14.604h14.866v14.604h15.673v-14.604h14.866v14.604h15.673v-14.604h14.866v35.445H213.77z"/>
<path d="M492.814,423.21V208.149h-191.07v95.032h15.673v-79.359H477.14V423.21H317.417v-13.029l-65.142-65.143l21.729-21.729
	l41.325,28.145l8.822-12.954l-52.052-35.452l-41.99,41.989l71.634,71.635v6.537h-19.186v66.792H512V423.21H492.814z M496.327,474.33
	H298.23v-35.445h14.866v14.603h15.673v-14.603h14.866v14.603h15.673v-14.603h14.866v14.603h15.673v-14.603h14.866v14.603h15.673
	v-14.603h14.865v14.603h15.673v-14.603h14.866v14.603h15.673v-14.603h14.863V474.33z"/>
<g>
</g>
<g>
</g>
<g>
</g>
<g>
</g>
<g>
</g>
<g>
</g>
<g>
</g>
<g>
</g>
<g>
</g>
<g>
</g>
<g>
</g>
<g>
</g>
<g>
</g>
<g>
</g>
<g>
</g>
</svg>
