<?xml version="1.0" encoding="iso-8859-1"?>
<!-- Generator: Adobe Illustrator 19.0.0, SVG Export Plug-In . SVG Version: 6.00 Build 0)  -->
<svg version="1.1" id="Layer_1" xmlns="http://www.w3.org/2000/svg" xmlns:xlink="http://www.w3.org/1999/xlink" x="0px" y="0px"
	 viewBox="0 0 512 512" style="enable-background:new 0 0 512 512;" xml:space="preserve">
<path style="fill:#FFFFFF;" d="M382.354,169.084c-8.362-7.379-17.375-14.035-26.94-19.876
	c-14.485,40.93-53.522,70.255-99.414,70.255s-84.929-29.324-99.414-70.255c-9.565,5.841-18.578,12.497-26.94,19.876
	c-39.668,35.013-64.68,86.227-64.68,143.286c0,105.507,85.527,191.035,191.035,191.035s191.035-85.527,191.035-191.035
	C447.035,255.311,422.023,204.097,382.354,169.084z"/>
<path style="fill:#E6E6E6;" d="M382.347,169.1c-3.491,8-7.734,15.596-12.616,22.72c26.786,32.879,42.854,74.834,42.854,120.551
	c0,99.698-76.377,181.543-173.81,190.253c5.675,0.507,11.417,0.782,17.224,0.782c105.505,0,191.035-85.529,191.035-191.035
	C447.035,255.311,422.01,204.104,382.347,169.1z"/>
<path style="fill:#49AA60;" d="M355.414,149.208c-14.485,40.93-53.522,70.255-99.414,70.255s-84.929-29.324-99.414-70.255
	c-9.565,5.841-18.578,12.497-26.94,19.876c21.243,48.698,69.827,82.74,126.354,82.74s105.111-34.042,126.354-82.74
	C373.993,161.705,364.98,155.049,355.414,149.208z"/>
<path style="fill:#64C37D;" d="M186.147,192.995l-75.086,75.086l37.277,7.751l7.012,36.539l93.175-93.175
	C224.668,217.525,203.003,207.917,186.147,192.995z"/>
<path style="fill:#FFFFFF;" d="M198.136,202.166l-69.555,69.555l-17.517-3.643L186.152,193
	C189.921,196.33,193.919,199.389,198.136,202.166z"/>
<path style="fill:#49AA60;" d="M221.509,213.686l-71.396,71.396l5.237,27.289l93.175-93.175
	C239.126,218.537,230.068,216.648,221.509,213.686z"/>
<circle style="fill:#FFFFFF;" cx="255.997" cy="114.026" r="105.434"/>
<path style="fill:#E6E6E6;" d="M256,8.594c-5.867,0-11.619,0.488-17.224,1.408c50.035,8.223,88.21,51.663,88.21,104.026
	s-38.175,95.803-88.21,104.026c5.606,0.921,11.358,1.408,17.224,1.408c58.23,0,105.434-47.204,105.434-105.434
	S314.23,8.594,256,8.594z"/>
<g>
	<circle style="fill:#D80027;" cx="255.997" cy="302.367" r="17.366"/>
	<circle style="fill:#D80027;" cx="255.997" cy="448.462" r="17.366"/>
	<circle style="fill:#D80027;" cx="255.997" cy="375.42" r="17.366"/>
</g>
<circle cx="287.314" cy="97.845" r="18.268"/>
<circle cx="224.68" cy="97.845" r="18.268"/>
<circle cx="255.997" cy="302.367" r="17.366"/>
<circle cx="255.997" cy="448.462" r="17.366"/>
<circle cx="255.997" cy="375.42" r="17.366"/>
<circle cx="287.314" cy="97.845" r="18.268"/>
<circle cx="224.68" cy="97.845" r="18.268"/>
<path d="M512,303.098l-11.447-10.683l-39.31,42.118l-7.255-3.558c0.571-6.128,0.877-12.331,0.877-18.604
	c0-34.978-9.21-69.379-26.635-99.483c-15.608-26.965-37.476-50.001-63.521-67.043c2.961-10.098,4.556-20.774,4.556-31.816
	c0-62.454-50.81-113.264-113.264-113.264s-113.264,50.81-113.264,113.264c0,11.037,1.594,21.708,4.551,31.802
	c-26.225,17.159-48.212,40.419-63.834,67.609c-17.217,29.966-26.318,64.176-26.318,98.932c0,6.274,0.306,12.477,0.877,18.604
	l-7.255,3.558l-39.31-42.118L0,303.098l36.064,38.639L3.204,357.85l6.894,14.059l50.118-24.575
	c16.57,93.039,98.056,163.9,195.784,163.9s179.215-70.861,195.784-163.9l50.118,24.575l6.893-14.059l-32.86-16.112L512,303.098z
	 M372.735,171.192C350.979,215.655,305.97,243.995,256,243.995c-6.618,0-13.209-0.507-19.707-1.495l15.302-15.302
	c1.463,0.056,2.929,0.094,4.405,0.094c45.739,0,85.23-27.254,103.093-66.375C363.802,164.132,368.352,167.562,372.735,171.192z
	 M186.678,203.536c13.106,10.174,28.497,17.533,45.258,21.175l-71.682,71.682l-5.213-27.163l-28.195-5.862L186.678,203.536z
	 M256,16.424c53.82,0,97.605,43.786,97.605,97.605S309.82,211.634,256,211.634s-97.605-43.786-97.605-97.605
	S202.18,16.424,256,16.424z M174.98,193.09l-11.846,11.846c-9.663-9.887-17.786-21.369-23.87-33.735
	c4.383-3.631,8.936-7.061,13.646-10.275C158.384,172.91,165.89,183.776,174.98,193.09z M256,495.576
	c-91.583,0-167.685-67.548-181.104-155.44l62.153-30.475l-6.894-14.059l-57.009,27.953c-0.224-3.702-0.352-7.428-0.352-11.184
	c0-32.022,8.38-63.535,24.236-91.131c8.259-14.376,18.466-27.546,30.216-39.16c6.579,12.388,14.987,23.895,24.816,33.928
	l-56.788,56.788l46.359,9.638l8.812,45.914l72.484-72.484c10.793,2.505,21.898,3.788,33.072,3.788
	c54.474,0,103.686-30.058,128.759-77.568c11.607,11.474,21.708,24.465,29.917,38.646c16.047,27.724,24.529,59.412,24.529,91.639
	c0,3.756-0.127,7.483-0.352,11.184l-57.01-27.953l-6.894,14.059l62.153,30.475C423.685,428.028,347.583,495.576,256,495.576z"/>
<g>
</g>
<g>
</g>
<g>
</g>
<g>
</g>
<g>
</g>
<g>
</g>
<g>
</g>
<g>
</g>
<g>
</g>
<g>
</g>
<g>
</g>
<g>
</g>
<g>
</g>
<g>
</g>
<g>
</g>
</svg>
