<?xml version="1.0" encoding="iso-8859-1"?>
<!-- Generator: Adobe Illustrator 19.0.0, SVG Export Plug-In . SVG Version: 6.00 Build 0)  -->
<svg version="1.1" id="Layer_1" xmlns="http://www.w3.org/2000/svg" xmlns:xlink="http://www.w3.org/1999/xlink" x="0px" y="0px"
	 viewBox="0 0 512 512" style="enable-background:new 0 0 512 512;" xml:space="preserve">
<g>
	<path style="fill:#FFFFFF;" d="M483.034,234.862c0,99.832-64.446,184.623-154.007,215.03H182.973
		C93.413,419.485,28.966,334.695,28.966,234.862C28.966,109.477,130.615,7.829,256,7.829S483.034,109.477,483.034,234.862z"/>
	<circle style="fill:#FFFFFF;" cx="332.722" cy="105.427" r="15.136"/>
	<circle style="fill:#FFFFFF;" cx="152.139" cy="189.978" r="23.486"/>
	<circle style="fill:#FFFFFF;" cx="106.21" cy="306.887" r="15.136"/>
	<circle style="fill:#FFFFFF;" cx="375.519" cy="193.109" r="23.486"/>
	<circle style="fill:#FFFFFF;" cx="240.864" cy="70.981" r="23.486"/>
</g>
<path style="fill:#64C37D;" d="M306.605,276.616h53.061L264.25,162.118c-2.533,1.083-5.321,1.687-8.25,1.687
	c-2.93,0-5.717-0.603-8.25-1.687l-95.416,114.498h53.061l-53.061,63.674h53.932l-53.932,64.718h207.332l-53.932-64.718h53.932
	L306.605,276.616z"/>
<path style="fill:#E6E6E6;" d="M483.034,234.862c0,99.832-64.446,184.623-154.007,215.03h-33.925
	c89.561-30.407,154.007-115.197,154.007-215.03c0-119.686-92.609-217.723-210.071-226.407C244.643,8.048,250.29,7.829,256,7.829
	C381.385,7.829,483.034,109.477,483.034,234.862z"/>
<rect x="235.645" y="405.007" style="fill:#FFDA44;" width="40.709" height="44.885"/>
<rect x="258.088" y="405.007" style="fill:#EDC10C;" width="18.267" height="44.885"/>
<polygon style="fill:#49AA60;" points="273.049,340.289 326.981,405.007 359.666,405.007 305.734,340.289 "/>
<g>
	<polygon style="fill:#FFFFFF;" points="206.266,340.289 152.334,405.007 173.928,405.007 227.859,340.289 	"/>
	<path style="fill:#FFFFFF;" d="M206.273,340.289l-17.12,20.547c38.799,31.753,94.895,31.753,133.694,0l-17.12-20.547H206.273z"/>
</g>
<path style="fill:#E6E6E6;" d="M273.049,340.289l28.409,34.091c7.521-3.582,14.715-8.082,21.389-13.544l-17.12-20.547H273.049z"/>
<polygon style="fill:#FFFFFF;" points="205.395,276.616 152.334,340.289 173.928,340.289 226.989,276.616 "/>
<polygon style="fill:#49AA60;" points="273.919,276.616 326.981,340.289 359.666,340.289 306.605,276.616 "/>
<path style="fill:#FFFFFF;" d="M205.403,276.616l-16.25,19.503c38.799,31.753,94.895,31.753,133.694,0l-16.25-19.503H205.403z"/>
<path style="fill:#E6E6E6;" d="M273.919,276.616l27.539,33.047c7.521-3.582,14.715-8.082,21.389-13.544l-16.251-19.503H273.919z"/>
<path style="fill:#FFFFFF;" d="M256,163.803c-2.93,0-5.717-0.603-8.25-1.687l-95.416,114.499h21.594l92.869-111.443l-2.546-3.055
	C261.717,163.201,258.93,163.803,256,163.803z"/>
<polygon style="fill:#49AA60;" points="256,152.216 239.657,171.827 326.981,276.616 359.666,276.616 "/>
<path style="fill:#FFFFFF;" d="M264.253,162.117c-2.534,1.083-5.323,1.688-8.253,1.688s-5.719-0.603-8.253-1.688l-58.594,70.324
	c38.799,31.753,94.895,31.753,133.694,0L264.253,162.117z"/>
<path style="fill:#E6E6E6;" d="M280.623,181.764l-16.371-19.646c-2.533,1.083-5.321,1.687-8.25,1.687
	c-2.93,0-5.717-0.603-8.25-1.687l-8.092,9.711l61.798,74.158c7.522-3.583,14.717-8.082,21.391-13.545L280.623,181.764z"/>
<circle style="fill:#D80027;" cx="256" cy="142.796" r="21.002"/>
<rect x="118.736" y="449.892" style="fill:#FFDA44;" width="274.528" height="54.279"/>
<rect x="118.736" y="449.892" style="fill:#FFFFFF;" width="22.442" height="54.279"/>
<rect x="359.339" y="449.892" style="fill:#EDC10C;" width="33.925" height="54.279"/>
<circle style="fill:#FFFFFF;" cx="400.049" cy="329.851" r="15.136"/>
<path d="M332.722,128.391c12.663,0,22.964-10.302,22.964-22.964s-10.302-22.964-22.964-22.964s-22.964,10.302-22.964,22.964
	S320.059,128.391,332.722,128.391z M332.722,98.12c4.028,0,7.307,3.278,7.307,7.307c0,4.029-3.279,7.307-7.307,7.307
	c-4.028,0-7.307-3.278-7.307-7.307C325.415,101.398,328.694,98.12,332.722,98.12z"/>
<path d="M183.454,189.978c0-17.267-14.048-31.315-31.315-31.315s-31.315,14.048-31.315,31.315s14.048,31.315,31.315,31.315
	S183.454,207.245,183.454,189.978z M136.481,189.978c0-8.634,7.024-15.658,15.657-15.658c8.634,0,15.657,7.024,15.657,15.658
	c0,8.634-7.024,15.657-15.657,15.657C143.505,205.635,136.481,198.611,136.481,189.978z"/>
<path d="M106.21,283.923c-12.663,0-22.964,10.302-22.964,22.964s10.302,22.964,22.964,22.964s22.964-10.302,22.964-22.964
	S118.873,283.923,106.21,283.923z M106.21,314.194c-4.029,0-7.307-3.278-7.307-7.307s3.278-7.307,7.307-7.307
	c4.029,0,7.307,3.278,7.307,7.307S110.239,314.194,106.21,314.194z"/>
<path d="M344.204,193.109c0,17.267,14.048,31.315,31.315,31.315c17.267,0,31.315-14.048,31.315-31.315s-14.048-31.315-31.315-31.315
	C358.252,161.794,344.204,175.842,344.204,193.109z M375.519,177.452c8.635,0,15.658,7.024,15.658,15.658
	c0,8.634-7.023,15.657-15.658,15.657c-8.635,0-15.657-7.024-15.657-15.657C359.861,184.476,366.884,177.452,375.519,177.452z"/>
<path d="M240.864,102.296c17.267,0,31.315-14.048,31.315-31.315s-14.048-31.315-31.315-31.315s-31.315,14.048-31.315,31.315
	S223.597,102.296,240.864,102.296z M240.864,55.323c8.634,0,15.658,7.024,15.658,15.657s-7.024,15.657-15.658,15.657
	c-8.634,0-15.657-7.024-15.657-15.657S232.231,55.323,240.864,55.323z"/>
<path d="M275.792,163.738c5.563-5.26,9.044-12.699,9.044-20.941c0-15.901-12.936-28.836-28.836-28.836s-28.836,12.936-28.836,28.836
	c0,8.242,3.481,15.682,9.044,20.941L135.619,284.444h53.061l-53.061,63.674h53.931l-53.931,64.718h240.762l-53.932-64.718h53.932
	l-53.061-63.674h53.061L275.792,163.738z M256,129.618c7.267,0,13.178,5.912,13.178,13.178s-5.911,13.178-13.178,13.178
	c-7.266,0-13.178-5.912-13.178-13.178C242.822,135.529,248.734,129.618,256,129.618z M250.46,171.093
	c1.794,0.351,3.645,0.54,5.54,0.54c1.895,0,3.746-0.189,5.54-0.54l81.413,97.694H169.049L250.46,171.093z M342.952,397.178H169.049
	l40.884-49.06h92.136L342.952,397.178z M342.952,332.461H169.049l40.013-48.016h93.876L342.952,332.461z"/>
<path d="M422.073,68.79C377.714,24.43,318.734,0,256,0S134.287,24.43,89.927,68.79s-68.79,103.338-68.79,166.073
	c0,50.249,15.642,98.176,45.236,138.598c21.109,28.834,47.958,52.101,78.876,68.603h-34.342V512h290.186v-69.937H366.75
	c30.918-16.502,57.767-39.769,78.877-68.603c29.593-40.422,45.236-88.349,45.236-138.598
	C490.862,172.128,466.433,113.149,422.073,68.79z M385.435,496.342H126.565v-38.622h258.871V496.342z M327.7,442.063h-43.516V422.23
	h-15.658v19.833h-25.052V422.23h-15.658v19.833h-43.517C95.977,411.525,36.795,328.556,36.795,234.862
	c0-120.87,98.335-219.205,219.205-219.205s219.205,98.335,219.205,219.205C475.205,328.556,416.022,411.526,327.7,442.063z"/>
<path d="M114.82,134.465c16.842-23.411,39.413-42.432,65.273-55.008l-6.848-14.08c-28.185,13.707-52.782,34.435-71.135,59.944
	c-18.704,25.999-30.555,56.524-34.271,88.276l15.551,1.82C86.797,186.302,97.665,158.31,114.82,134.465z"/>
<path d="M400.049,306.887c-12.663,0-22.964,10.302-22.964,22.964s10.302,22.964,22.964,22.964s22.964-10.302,22.964-22.964
	S412.712,306.887,400.049,306.887z M400.049,337.158c-4.028,0-7.307-3.278-7.307-7.307s3.279-7.307,7.307-7.307
	s7.307,3.278,7.307,7.307S404.077,337.158,400.049,337.158z"/>
<g>
</g>
<g>
</g>
<g>
</g>
<g>
</g>
<g>
</g>
<g>
</g>
<g>
</g>
<g>
</g>
<g>
</g>
<g>
</g>
<g>
</g>
<g>
</g>
<g>
</g>
<g>
</g>
<g>
</g>
</svg>
