<?xml version="1.0" encoding="iso-8859-1"?>
<!-- Generator: Adobe Illustrator 19.0.0, SVG Export Plug-In . SVG Version: 6.00 Build 0)  -->
<svg version="1.1" id="Layer_1" xmlns="http://www.w3.org/2000/svg" xmlns:xlink="http://www.w3.org/1999/xlink" x="0px" y="0px"
	 viewBox="0 0 512 512" style="enable-background:new 0 0 512 512;" xml:space="preserve">
<circle style="fill:#FFFFFF;" cx="255.744" cy="256.358" r="95.835"/>
<path style="fill:#E6E6E6;" d="M255.746,160.52c-3.164,0-6.291,0.157-9.375,0.457c48.528,4.713,86.46,45.613,86.46,95.378
	s-37.932,90.665-86.46,95.378c3.084,0.3,6.212,0.457,9.375,0.457c52.928,0,95.835-42.907,95.835-95.835
	S308.674,160.52,255.746,160.52z"/>
<circle style="fill:#FFFFFF;" cx="255.744" cy="256.358" r="56.251"/>
<path d="M512,248.022h-44.409l42.859-42.859l-11.048-11.048l-53.907,53.907H424.87l22.235-22.235l-11.048-11.048l-33.283,33.284
	h-43.716c-1.824-22.823-11.074-43.583-25.326-59.86l30.766-30.766h47.502v-15.625h-31.877l13.542-13.542h78.752v-15.625H409.29
	l32.443-32.443l-11.049-11.049l-31.186,31.186V39.685h-15.625v76.238l-14.584,14.584V99.061h-15.625v47.071l-31.078,31.078
	c-16.319-13.803-36.945-22.662-59.549-24.241v-43.885l33.65-33.65l-11.048-11.048l-22.601,22.601V67.803l55.318-55.318
	L307.307,1.438l-44.269,44.269V0.101h-15.625v44.563L204.186,1.438l-11.048,11.048l54.276,54.276v20.224l-22.601-22.601
	l-11.048,11.048l33.65,33.65v43.961c-22.196,1.774-42.439,10.573-58.507,24.165l-32.119-32.119V99.061h-15.625v30.404
	l-13.542-13.542V38.643h-15.625v61.654L81.328,69.632L70.28,80.681l30.881,30.881H39.076v15.625h77.711l14.584,14.584H97.41v15.625
	h49.585l30.766,30.766c-14.252,16.277-23.502,37.038-25.326,59.86h-45.493l-32.546-32.546l-11.049,11.049l21.498,21.498H65.692
	l-54.644-54.645L0,204.426l43.596,43.595H0.533v15.625H43.9L0,307.548l11.048,11.049l54.949-54.95h20.624l-24.012,24.014
	l11.048,11.049l35.061-35.062h43.639c1.579,22.603,10.437,43.23,24.241,59.549l-32.119,32.119H98.452v15.625h30.403l-13.542,13.542
	H38.034v15.625h61.653l-30.665,30.665l11.049,11.048l30.881-30.881v62.085h15.625v-77.711l14.584-14.584v33.96h15.625v-49.585
	l30.766-30.766c16.277,14.252,37.038,23.501,59.86,25.326v45.627l-32.608,32.608l11.048,11.049l21.56-21.56v19.183l-54.276,54.276
	l11.048,11.049l43.228-43.228v42.897h15.625v-43.938l44.269,44.269l11.048-11.049l-55.318-55.318v-20.224l23.643,23.643
	l11.048-11.049l-34.691-34.691v-43.468c23.233-1.623,44.377-10.934,60.902-25.402l30.766,30.766v47.502h15.625v-31.877
	l13.542,13.542v78.752h15.625v-63.127l32.443,32.443l11.049-11.048l-31.186-31.186h60.612v-15.625h-76.238l-14.584-14.584h31.445
	v-15.625h-47.071l-31.078-31.078c13.803-16.319,22.662-36.945,24.241-59.549h43.334l33.588,33.588l11.048-11.048l-22.54-22.54
	h19.151l55.685,55.686l11.048-11.048l-44.637-44.637h46.187v-15.626H512z M255.746,344.378c-48.535,0-88.022-39.487-88.022-88.022
	s39.487-88.022,88.022-88.022s88.022,39.487,88.022,88.022S304.281,344.378,255.746,344.378z"/>
<path d="M255.746,192.292c-35.325,0-64.064,28.739-64.064,64.064s28.739,64.064,64.064,64.064s64.064-28.739,64.064-64.064
	S291.07,192.292,255.746,192.292z M255.746,304.794c-26.709,0-48.438-21.729-48.438-48.438c0-26.709,21.73-48.438,48.438-48.438
	s48.438,21.73,48.438,48.438C304.184,283.064,282.455,304.794,255.746,304.794z"/>
<g>
</g>
<g>
</g>
<g>
</g>
<g>
</g>
<g>
</g>
<g>
</g>
<g>
</g>
<g>
</g>
<g>
</g>
<g>
</g>
<g>
</g>
<g>
</g>
<g>
</g>
<g>
</g>
<g>
</g>
</svg>
