<?xml version="1.0" encoding="iso-8859-1"?>
<!-- Generator: Adobe Illustrator 19.0.0, SVG Export Plug-In . SVG Version: 6.00 Build 0)  -->
<svg version="1.1" id="Layer_1" xmlns="http://www.w3.org/2000/svg" xmlns:xlink="http://www.w3.org/1999/xlink" x="0px" y="0px"
	 viewBox="0 0 512 512" style="enable-background:new 0 0 512 512;" xml:space="preserve">
<polygon style="fill:#64C37D;" points="411.675,504.216 100.325,504.216 256,224 "/>
<polygon style="fill:#FFFFFF;" points="256,224 100.325,504.216 123.157,504.216 267.416,244.55 "/>
<polygon style="fill:#49AA60;" points="256,224 238.876,254.824 377.427,504.216 411.675,504.216 "/>
<polygon style="fill:#FFDA44;" points="256,222.966 167.805,265.514 184.649,175.395 113.298,111.574 211.902,98.425 256,16.433 
	300.098,98.425 398.703,111.574 327.351,175.395 344.195,265.514 "/>
<path style="fill:#FFFFFF;" d="M256,64.636l23.989,44.603l5.526,10.276l11.565,1.542l49.407,6.588l-34.358,30.732l-9.584,8.573
	l2.362,12.64l8.55,45.744l-47.536-22.933L256,197.614l-9.921,4.786l-47.536,22.933l8.55-45.744l2.362-12.64l-9.584-8.573
	l-34.358-30.732l49.407-6.588l11.565-1.542l5.526-10.276L256,64.636 M256,16.433l-44.098,81.992l-98.605,13.148l71.351,63.822
	l-16.844,90.118L256,222.966l88.195,42.548l-16.844-90.118l71.351-63.822l-98.605-13.148L256,16.433L256,16.433z"/>
<path style="fill:#EDC10C;" d="M398.703,111.572l-98.605-13.149L256,16.433v48.208l23.984,44.596l5.532,10.275l11.561,1.546
	l49.411,6.59l-34.363,30.73l-9.579,8.573l2.356,12.641l8.552,45.748l-47.533-22.936L256,197.619v25.344l88.195,42.551
	l-16.844-90.115L398.703,111.572z"/>
<path d="M424.904,512L273.939,240.262l80.735,38.949l-14.465-77.395l-15.303,2.86l8.81,47.14L256,214.324l-77.716,37.493
	l14.821-79.3l-62.007-55.463l85.775-11.438L256,32.866l39.126,72.749l85.775,11.438l-58.739,52.542l10.378,11.603l83.963-75.102
	L305.069,91.235L256,0l-49.069,91.235l-111.435,14.86l80.696,72.18l-18.866,100.937l80.735-38.949L87.096,512H424.904z
	 M209.46,323.8l65.929-48.873l13.994,25.188L175.87,384.263L209.46,323.8z M227.765,290.853L256,240.029l11.763,21.173
	L227.765,290.853z M157.889,416.972l139.119-103.129l13.993,25.188L123.975,477.674l33.805-60.85L157.889,416.972z M246.898,496.432
	h-47.972l141.32-104.76l13.994,25.188L246.898,496.432z M361.866,430.587l13.993,25.189l-54.847,40.657h-47.973L361.866,430.587z
	 M172.784,496.432h-47.973l193.815-143.676l13.994,25.189L172.784,496.432z M347.155,496.432l36.329-26.931l14.961,26.931H347.155z"
	/>
<g>
</g>
<g>
</g>
<g>
</g>
<g>
</g>
<g>
</g>
<g>
</g>
<g>
</g>
<g>
</g>
<g>
</g>
<g>
</g>
<g>
</g>
<g>
</g>
<g>
</g>
<g>
</g>
<g>
</g>
</svg>
