<?xml version="1.0" encoding="iso-8859-1"?>
<!-- Generator: Adobe Illustrator 19.0.0, SVG Export Plug-In . SVG Version: 6.00 Build 0)  -->
<svg version="1.1" id="Layer_1" xmlns="http://www.w3.org/2000/svg" xmlns:xlink="http://www.w3.org/1999/xlink" x="0px" y="0px"
	 viewBox="0 0 512 512" style="enable-background:new 0 0 512 512;" xml:space="preserve">
<path style="fill:#64C37D;" d="M183.377,157.257V7.837h-56.424v149.42c-36.392,11.871-62.691,46.078-62.691,86.433v260.473h181.805
	V243.69C246.068,203.335,219.769,169.128,183.377,157.257z"/>
<path style="fill:#FFFFFF;" d="M144.713,157.257V7.837h-17.76v149.42c-36.392,11.871-62.691,46.078-62.691,86.433v260.473h17.76
	V243.69C82.022,203.335,108.321,169.128,144.713,157.257z"/>
<path style="fill:#49AA60;" d="M183.377,157.257V7.837h-27.164v149.42c36.392,11.871,62.691,46.078,62.691,86.433v260.473h27.164
	V243.69C246.068,203.335,219.769,169.128,183.377,157.257z"/>
<rect x="124.865" y="253.388" style="fill:#FFFFFF;" width="121.208" height="193.306"/>
<rect x="218.906" y="253.388" style="fill:#E6E6E6;" width="27.164" height="193.306"/>
<rect x="105.012" y="47.543" style="fill:#FFDA44;" width="100.31" height="33.437"/>
<rect x="171.363" y="47.543" style="fill:#EDC10C;" width="33.957" height="33.437"/>
<g>
	<rect x="105.012" y="47.543" style="fill:#FFFFFF;" width="22.467" height="33.437"/>
	<rect x="297.273" y="318.851" style="fill:#FFFFFF;" width="150.465" height="185.313"/>
</g>
<rect x="421.605" y="318.851" style="fill:#E6E6E6;" width="26.133" height="185.313"/>
<rect x="297.273" y="378.671" style="fill:#FFDA44;" width="150.465" height="95.817"/>
<rect x="421.605" y="378.671" style="fill:#EDC10C;" width="26.133" height="95.817"/>
<g>
	<rect x="321.818" y="394.083" style="fill:#FFFFFF;" width="11.878" height="11.878"/>
	<rect x="419.223" y="395.672" style="fill:#FFFFFF;" width="11.878" height="11.878"/>
	
		<rect x="372.592" y="399.541" transform="matrix(-0.7071 -0.7071 0.7071 -0.7071 359.4758 959.8595)" style="fill:#FFFFFF;" width="11.878" height="11.878"/>
	
		<rect x="412.012" y="436.135" transform="matrix(-0.7071 -0.7071 0.7071 -0.7071 400.8943 1050.2034)" style="fill:#FFFFFF;" width="11.878" height="11.878"/>
	
		<rect x="316.365" y="447.055" transform="matrix(-0.7071 -0.7071 0.7071 -0.7071 229.8927 1001.2133)" style="fill:#FFFFFF;" width="11.878" height="11.878"/>
	<rect x="334.492" y="421.804" style="fill:#FFFFFF;" width="11.878" height="11.878"/>
	<rect x="380.426" y="446.349" style="fill:#FFFFFF;" width="11.878" height="11.878"/>
</g>
<path d="M191.215,151.743V88.816h21.943v-49.11H97.174v49.11h21.943v62.927c-37.727,14.75-62.691,51.005-62.691,91.947V512h197.479
	V243.69C253.904,202.747,228.942,166.493,191.215,151.743z M112.846,55.38h84.637v17.763h-84.637V55.38z M238.231,369.894H149.94
	v15.673h88.291v18.808h-53.809v15.673h53.809v76.278H72.1V243.69c0-36.066,23.021-67.807,57.284-78.983l5.406-1.764V88.816h40.751
	v74.127l5.406,1.764c34.263,11.176,57.283,42.917,57.283,78.983V369.894z"/>
<polygon points="134.79,15.673 175.541,15.673 175.541,25.078 191.215,25.078 191.215,0 119.116,0 119.116,25.078 134.79,25.078 "/>
<polygon points="117.026,454.531 222.563,454.531 222.563,438.857 132.699,438.857 132.699,261.224 222.563,261.224 
	222.563,245.551 117.026,245.551 "/>
<path d="M289.435,311.016V512h166.139V311.016H289.435z M439.9,326.689v44.15H305.109v-44.15H439.9z M439.9,386.513v80.149H305.109
	v-80.149L439.9,386.513L439.9,386.513z M305.109,496.327v-13.991H439.9v13.991H305.109z"/>
<g>
</g>
<g>
</g>
<g>
</g>
<g>
</g>
<g>
</g>
<g>
</g>
<g>
</g>
<g>
</g>
<g>
</g>
<g>
</g>
<g>
</g>
<g>
</g>
<g>
</g>
<g>
</g>
<g>
</g>
</svg>
