<?xml version="1.0" encoding="iso-8859-1"?>
<!-- Generator: Adobe Illustrator 19.0.0, SVG Export Plug-In . SVG Version: 6.00 Build 0)  -->
<svg version="1.1" id="Layer_1" xmlns="http://www.w3.org/2000/svg" xmlns:xlink="http://www.w3.org/1999/xlink" x="0px" y="0px"
	 viewBox="0 0 512 512" style="enable-background:new 0 0 512 512;" xml:space="preserve">
<polygon style="fill:#64C37D;" points="439.755,398.713 72.245,398.713 256,72.265 "/>
<polygon style="fill:#49AA60;" points="256,72.265 238.986,102.491 405.726,398.713 439.755,398.713 "/>
<polygon style="fill:#FFDA44;" points="390.659,311.493 121.341,311.493 181.451,204.695 330.549,204.695 "/>
<polygon style="fill:#EDC10C;" points="330.549,204.695 297.682,204.695 357.793,311.493 390.659,311.493 "/>
<g>
	<polygon style="fill:#FFFFFF;" points="256,72.265 72.245,398.713 94.757,398.713 267.256,92.261 	"/>
	<rect x="42.332" y="398.711" style="fill:#FFFFFF;" width="427.347" height="105.436"/>
</g>
<rect x="405.726" y="398.711" style="fill:#E6E6E6;" width="63.942" height="105.436"/>
<circle style="fill:#FFFFFF;" cx="256" cy="59.429" r="51.577"/>
<path style="fill:#E6E6E6;" d="M256,7.853c-3.726,0-7.356,0.404-10.858,1.155c23.269,4.988,40.718,25.663,40.718,50.421
	s-17.449,45.434-40.718,50.421c3.502,0.751,7.132,1.155,10.858,1.155c28.485,0,51.576-23.091,51.576-51.576S284.485,7.853,256,7.853
	z"/>
<path d="M444.346,390.861L292.597,121.271l-13.687,7.704l38.202,67.868H217.26v15.706h108.693l100.371,178.313H85.677l40.255-71.516
	h230.583V303.64H134.772l98.319-174.667l-13.687-7.703L67.654,390.861H34.475V512h443.051V390.861H444.346z M461.82,496.294h-45.344
	v-37.376H400.77v37.376h-45.344v-37.376h-15.706v37.376h-45.344v-37.376h-15.706v37.376h-45.344v-37.376h-15.706v37.376h-45.343
	v-37.376h-15.706v37.376h-45.345v-37.376H95.523v37.376H50.18v-89.728h8.634h394.372h8.634V496.294z"/>
<path d="M256,118.858c32.77,0,59.43-26.66,59.43-59.429C315.43,26.66,288.77,0,256,0s-59.43,26.66-59.43,59.429
	C196.57,92.199,223.23,118.858,256,118.858z M256,15.706c24.109,0,43.724,19.614,43.724,43.723S280.11,103.152,256,103.152
	c-24.11,0-43.724-19.614-43.724-43.723C212.276,35.32,231.891,15.706,256,15.706z"/>
<g>
</g>
<g>
</g>
<g>
</g>
<g>
</g>
<g>
</g>
<g>
</g>
<g>
</g>
<g>
</g>
<g>
</g>
<g>
</g>
<g>
</g>
<g>
</g>
<g>
</g>
<g>
</g>
<g>
</g>
</svg>
