<?xml version="1.0" encoding="iso-8859-1"?>
<!-- Generator: Adobe Illustrator 19.0.0, SVG Export Plug-In . SVG Version: 6.00 Build 0)  -->
<svg version="1.1" id="Layer_1" xmlns="http://www.w3.org/2000/svg" xmlns:xlink="http://www.w3.org/1999/xlink" x="0px" y="0px"
	 viewBox="0 0 512 512" style="enable-background:new 0 0 512 512;" xml:space="preserve">
<rect x="7.837" y="323.406" style="fill:#FFFFFF;" width="426.475" height="104.166"/>
<rect x="368.849" y="323.406" style="fill:#E6E6E6;" width="65.463" height="104.166"/>
<path style="fill:#BC052F;" d="M412.249,167.718c-5.22-6.627-8.846-14.562-10.302-23.237H171.441L37.249,323.402h367.649
	l-61.986-82.649L412.249,167.718z"/>
<polygon style="fill:#D80027;" points="270.702,144.478 171.436,144.478 37.251,323.406 404.898,323.406 "/>
<polygon style="fill:#FFFFFF;" points="171.436,144.478 37.251,323.406 58.671,323.406 192.857,144.478 "/>
<polygon style="fill:#BC052F;" points="270.702,144.478 237.787,144.478 371.984,323.406 404.898,323.406 "/>
<circle style="fill:#FFFFFF;" cx="452.692" cy="135.899" r="51.472"/>
<path style="fill:#E6E6E6;" d="M452.693,84.431c-3.764,0-7.428,0.415-10.962,1.182c23.158,5.025,40.51,25.626,40.51,50.289
	c0,24.664-17.351,45.264-40.51,50.289c3.534,0.767,7.198,1.182,10.962,1.182c28.426,0,51.471-23.044,51.471-51.471
	S481.119,84.431,452.693,84.431z"/>
<path d="M452.692,76.594c-32.702,0-59.307,26.605-59.307,59.307s26.605,59.307,59.307,59.307c32.703,0,59.308-26.605,59.308-59.307
	S485.395,76.594,452.692,76.594z M452.692,179.535c-24.059,0-43.634-19.574-43.634-43.634s19.574-43.634,43.634-43.634
	s43.635,19.574,43.635,43.634S476.752,179.535,452.692,179.535z"/>
<path d="M353.152,241.348l51.4-54.14l-11.367-10.791l-49.57,52.214l-57.235-76.314h95.008v-15.673H167.522L33.33,315.565H0v119.84
	h442.146v-119.84h-33.33L353.152,241.348z M175.359,152.316h91.428l122.438,163.25H52.922L175.359,152.316z M426.473,419.732
	h-45.252v-37.3h-15.673v37.3h-45.251v-37.3h-15.673v37.3h-45.251v-37.3h-15.673v37.3h-45.251v-37.3h-15.673v37.3H137.52v-37.3
	h-15.673v37.3H76.598v-37.3H60.925v37.3H15.673v-88.493h410.8V419.732z"/>
<g>
</g>
<g>
</g>
<g>
</g>
<g>
</g>
<g>
</g>
<g>
</g>
<g>
</g>
<g>
</g>
<g>
</g>
<g>
</g>
<g>
</g>
<g>
</g>
<g>
</g>
<g>
</g>
<g>
</g>
</svg>
