<?xml version="1.0" encoding="iso-8859-1"?>
<!-- Generator: Adobe Illustrator 19.0.0, SVG Export Plug-In . SVG Version: 6.00 Build 0)  -->
<svg version="1.1" id="Layer_1" xmlns="http://www.w3.org/2000/svg" xmlns:xlink="http://www.w3.org/1999/xlink" x="0px" y="0px"
	 viewBox="0 0 512 512" style="enable-background:new 0 0 512 512;" xml:space="preserve">
<path style="fill:#EDC10C;" d="M256,53.703L256,53.703c20.633,0,40.328,4.003,58.364,11.262C313.695,33.294,287.832,7.821,256,7.821
	s-57.695,25.473-58.364,57.144C215.672,57.706,235.367,53.703,256,53.703z"/>
<g>
	<rect x="100.095" y="366.534" style="fill:#FFDA44;" width="26.069" height="137.646"/>
	<rect x="385.835" y="366.534" style="fill:#FFDA44;" width="26.069" height="135.56"/>
	<path style="fill:#FFDA44;" d="M256,53.703L256,53.703c-86.386,0-156.415,70.029-156.415,156.415v69.866h312.831v-69.866
		C412.415,123.732,342.386,53.703,256,53.703z"/>
</g>
<path style="fill:#FFFFFF;" d="M267.47,54.123c-3.788-0.274-7.612-0.42-11.47-0.42l0,0c-86.386,0-156.415,70.029-156.415,156.415
	v69.866h22.941v-69.866C122.525,127.59,186.441,59.997,267.47,54.123z"/>
<path style="fill:#EDC10C;" d="M256,53.703L256,53.703c-5.817,0-11.555,0.327-17.206,0.946
	c78.289,8.567,139.21,74.899,139.21,155.469v69.866h34.411v-69.866C412.415,123.732,342.386,53.703,256,53.703z"/>
<rect x="74.558" y="279.984" style="fill:#FFFFFF;" width="362.884" height="86.55"/>
<rect x="378.004" y="279.984" style="fill:#FFDA44;" width="59.438" height="86.55"/>
<rect x="378.004" y="279.984" style="fill:#E6E6E6;" width="59.438" height="86.55"/>
<path d="M256,15.642c20.286,0,38.548,12.054,46.525,30.709l14.382-6.149C306.465,15.779,282.557,0,256,0
	c-26.556,0-50.464,15.779-60.907,40.199l14.382,6.15C217.452,27.695,235.714,15.642,256,15.642z"/>
<polygon points="118.348,496.358 107.92,496.358 107.92,393.646 92.279,393.646 92.279,512 133.99,512 133.99,393.646 
	118.348,393.646 "/>
<polygon points="404.08,494.273 393.652,494.273 393.652,391.56 378.01,391.56 378.01,509.914 419.721,509.914 419.721,391.56 
	404.08,391.56 "/>
<path d="M420.236,272.163v-62.045c0-90.56-73.676-164.236-164.236-164.236S91.764,119.558,91.764,210.118v62.045H66.737v102.191
	h378.525V272.163H420.236z M147.378,287.805v70.908h-24.679v-70.908H147.378z M163.019,287.805h24.679v70.908h-24.679
	L163.019,287.805L163.019,287.805z M203.34,287.805h24.679v70.908H203.34V287.805z M243.661,287.805h24.679v70.908h-24.679
	L243.661,287.805L243.661,287.805z M283.981,287.805h24.679v70.908h-24.679V287.805z M324.301,287.805h24.679v70.908h-24.679
	V287.805z M364.622,287.805h24.679v70.908h-24.679V287.805z M107.405,210.118c0-81.936,66.659-148.595,148.595-148.595
	s148.595,66.659,148.595,148.595v62.045H107.405V210.118z M82.379,287.805h24.678v70.908H82.379V287.805z M429.621,358.713h-24.679
	v-70.908h24.679V358.713z"/>
<g>
</g>
<g>
</g>
<g>
</g>
<g>
</g>
<g>
</g>
<g>
</g>
<g>
</g>
<g>
</g>
<g>
</g>
<g>
</g>
<g>
</g>
<g>
</g>
<g>
</g>
<g>
</g>
<g>
</g>
</svg>
