<?xml version="1.0" encoding="iso-8859-1"?>
<!-- Generator: Adobe Illustrator 19.0.0, SVG Export Plug-In . SVG Version: 6.00 Build 0)  -->
<svg version="1.1" id="Layer_1" xmlns="http://www.w3.org/2000/svg" xmlns:xlink="http://www.w3.org/1999/xlink" x="0px" y="0px"
	 viewBox="0 0 512 512" style="enable-background:new 0 0 512 512;" xml:space="preserve">
<rect x="77.364" y="101.977" transform="matrix(0.9063 -0.4226 0.4226 0.9063 -77.0283 82.304)" style="fill:#FFFFFF;" width="139.506" height="225.814"/>
<g>
	
		<rect x="46.676" y="134.336" transform="matrix(-0.9063 0.4226 -0.4226 -0.9063 180.4817 283.7283)" style="fill:#E6E6E6;" width="24.231" height="55.067"/>
	
		<rect x="122.742" y="316.826" transform="matrix(0.4226 0.9063 -0.9063 0.4226 377.0499 66.0417)" style="fill:#E6E6E6;" width="27.902" height="24.231"/>
</g>
<rect x="83.105" y="155.774" transform="matrix(0.9063 -0.4226 0.4226 0.9063 -81.6929 85.8838)" style="fill:#FFDA44;" width="139.506" height="142.84"/>
<rect x="29.193" y="239.445" transform="matrix(0.4226 0.9063 -0.9063 0.4226 286.0854 54.063)" style="fill:#EDC10C;" width="142.84" height="24.231"/>
<g>
	
		<rect x="189.983" y="197.572" transform="matrix(0.9063 -0.4226 0.4226 0.9063 -67.5076 101.6413)" style="fill:#FFFFFF;" width="11.014" height="11.013"/>
	
		<rect x="104.89" y="246.17" transform="matrix(0.9063 -0.4226 0.4226 0.9063 -96.0174 70.233)" style="fill:#FFFFFF;" width="11.013" height="11.013"/>
	
		<rect x="145.595" y="231.154" transform="matrix(0.342 -0.9397 0.9397 0.342 -122.9653 297.7133)" style="fill:#FFFFFF;" width="11.015" height="11.014"/>
	
		<rect x="126.804" y="277.36" transform="matrix(0.342 -0.9397 0.9397 0.342 -178.7497 310.4601)" style="fill:#FFFFFF;" width="11.015" height="11.015"/>
	
		<rect x="211.463" y="249.052" transform="matrix(0.342 -0.9397 0.9397 0.342 -96.4426 371.3867)" style="fill:#FFFFFF;" width="11.014" height="11.015"/>
	
		<rect x="186.33" y="234.92" transform="matrix(-0.4226 -0.9063 0.9063 -0.4226 55.0062 515.8975)" style="fill:#FFFFFF;" width="11.013" height="11.014"/>
	
		<rect x="157.357" y="273.544" transform="matrix(-0.4226 -0.9063 0.9063 -0.4226 -21.2159 544.5854)" style="fill:#FFFFFF;" width="11.013" height="11.013"/>
	
		<rect x="173.785" y="164.619" transform="matrix(-0.9063 0.4226 -0.4226 -0.9063 413.683 248.5438)" style="fill:#FFFFFF;" width="11.013" height="11.013"/>
	
		<rect x="145.674" y="194.836" transform="matrix(-0.342 0.9397 -0.9397 -0.342 391.1474 126.7949)" style="fill:#FFFFFF;" width="11.015" height="11.014"/>
	
		<rect x="91.181" y="206.382" transform="matrix(0.4226 0.9063 -0.9063 0.4226 247.8647 34.7143)" style="fill:#FFFFFF;" width="11.013" height="11.013"/>
	
		<rect x="112.27" y="180.346" transform="matrix(0.4226 0.9063 -0.9063 0.4226 236.4438 0.5679)" style="fill:#FFFFFF;" width="11.013" height="11.013"/>
	
		<rect x="295.129" y="184.19" transform="matrix(-0.9063 -0.4226 0.4226 -0.9063 570.0236 720.5612)" style="fill:#FFFFFF;" width="139.506" height="225.814"/>
</g>
<g>
	
		<rect x="361.33" y="399.031" transform="matrix(-0.4226 0.9063 -0.9063 -0.4226 906.504 244.7769)" style="fill:#E6E6E6;" width="27.902" height="24.231"/>
	
		<rect x="425.678" y="231.979" transform="matrix(0.4226 -0.9063 0.9063 0.4226 40.456 551.6899)" style="fill:#E6E6E6;" width="55.067" height="24.231"/>
</g>
<rect x="289.383" y="237.992" transform="matrix(-0.9063 -0.4226 0.4226 -0.9063 553.8666 741.6097)" style="fill:#FFDA44;" width="139.506" height="142.84"/>
<rect x="339.941" y="321.662" transform="matrix(-0.4226 0.9063 -0.9063 -0.4226 887.7116 102.0116)" style="fill:#EDC10C;" width="142.84" height="24.231"/>
<g>
	
		<rect x="311.006" y="279.789" transform="matrix(-0.9063 -0.4226 0.4226 -0.9063 482.8051 677.6238)" style="fill:#FFFFFF;" width="11.014" height="11.013"/>
	
		<rect x="396.1" y="328.385" transform="matrix(-0.9063 -0.4226 0.4226 -0.9063 624.4829 806.2245)" style="fill:#FFFFFF;" width="11.013" height="11.013"/>
	
		<rect x="355.379" y="313.372" transform="matrix(-0.342 -0.9397 0.9397 -0.342 184.6599 767.0604)" style="fill:#FFFFFF;" width="11.015" height="11.014"/>
	
		<rect x="374.167" y="359.571" transform="matrix(-0.342 -0.9397 0.9397 -0.342 166.4585 846.7143)" style="fill:#FFFFFF;" width="11.015" height="11.015"/>
	
		<rect x="289.509" y="331.263" transform="matrix(-0.342 -0.9397 0.9397 -0.342 79.4482 729.1725)" style="fill:#FFFFFF;" width="11.014" height="11.015"/>
	
		<rect x="314.657" y="317.147" transform="matrix(0.4226 -0.9063 0.9063 0.4226 -107.5657 476.4675)" style="fill:#FFFFFF;" width="11.013" height="11.014"/>
	
		<rect x="343.63" y="355.78" transform="matrix(0.4226 -0.9063 0.9063 0.4226 -125.8494 525.0318)" style="fill:#FFFFFF;" width="11.013" height="11.013"/>
	
		<rect x="327.181" y="246.846" transform="matrix(0.9063 0.4226 -0.4226 0.9063 137.8144 -116.954)" style="fill:#FFFFFF;" width="11.013" height="11.013"/>
	
		<rect x="355.316" y="277.044" transform="matrix(0.342 0.9397 -0.9397 0.342 502.9346 -153.1471)" style="fill:#FFFFFF;" width="11.014" height="11.014"/>
	
		<rect x="409.784" y="288.602" transform="matrix(-0.4226 0.9063 -0.9063 -0.4226 857.3503 42.0171)" style="fill:#FFFFFF;" width="11.013" height="11.013"/>
	
		<rect x="388.704" y="262.558" transform="matrix(-0.4226 0.9063 -0.9063 -0.4226 803.757 24.0718)" style="fill:#FFFFFF;" width="11.013" height="11.013"/>
</g>
<path d="M166.383,72.728L25.824,138.271l102.019,218.779l140.56-65.543L166.383,72.728z M236.075,259.043L123.754,311.42
	L69.969,196.078l112.321-52.376L236.075,259.043z M158.848,93.431l16.858,36.151L63.385,181.958l-16.858-36.151L158.848,93.431z
	 M135.378,336.348l-5.04-10.809l112.321-52.376l5.04,10.809L135.378,336.348z"/>
<polygon points="73.231,296.606 20.704,183.96 33.448,178.017 26.864,163.897 0,176.424 65.695,317.309 92.559,304.783 
	85.975,290.663 "/>
<path d="M345.609,154.948L243.59,373.728l140.56,65.544l102.02-218.779L345.609,154.948z M353.145,175.651l112.321,52.376
	l-16.858,36.151l-112.321-52.376L353.145,175.651z M442.023,278.298L388.238,393.64l-112.32-52.376l53.785-115.342L442.023,278.298z
	 M264.294,366.193l5.039-10.808l112.32,52.376l-5.04,10.809L264.294,366.193z"/>
<polygon points="485.304,246.156 478.719,260.276 491.296,266.141 438.402,379.575 425.824,373.71 419.24,387.83 445.938,400.279 
	512,258.606 "/>
<rect x="269.709" y="88.781" width="15.579" height="35.313"/>
<rect x="205.088" y="121.389" transform="matrix(-0.7071 -0.7071 0.7071 -0.7071 289.1103 378.1096)" width="35.552" height="15.579"/>
<rect x="324.328" y="111.418" transform="matrix(-0.7071 -0.7071 0.7071 -0.7071 475.6093 455.3818)" width="15.579" height="35.541"/>
<g>
</g>
<g>
</g>
<g>
</g>
<g>
</g>
<g>
</g>
<g>
</g>
<g>
</g>
<g>
</g>
<g>
</g>
<g>
</g>
<g>
</g>
<g>
</g>
<g>
</g>
<g>
</g>
<g>
</g>
</svg>
