<?xml version="1.0" encoding="iso-8859-1"?>
<!-- Generator: Adobe Illustrator 19.0.0, SVG Export Plug-In . SVG Version: 6.00 Build 0)  -->
<svg version="1.1" id="Layer_1" xmlns="http://www.w3.org/2000/svg" xmlns:xlink="http://www.w3.org/1999/xlink" x="0px" y="0px"
	 viewBox="0 0 511.996 511.996" style="enable-background:new 0 0 511.996 511.996;" xml:space="preserve">
<circle style="fill:#EDC10C;" cx="256.001" cy="412.345" r="26.465"/>
<polygon style="fill:#FFDA44;" points="291.098,126.474 287.53,126.474 287.53,144.135 224.468,144.135 224.468,126.474 
	220.9,126.474 167.167,153.341 167.167,291.334 344.831,291.334 344.831,153.341 "/>
<polygon style="fill:#EDC10C;" points="311.742,136.796 311.742,291.334 344.831,291.334 344.831,153.341 "/>
<polygon style="fill:#FFFFFF;" points="167.167,153.341 167.167,291.334 188.732,291.334 188.732,142.558 "/>
<rect x="130.349" y="291.339" style="fill:#FFDA44;" width="251.294" height="59.216"/>
<rect x="130.349" y="291.339" style="fill:#FFFFFF;" width="21.593" height="59.216"/>
<rect x="312.116" y="291.339" style="fill:#EDC10C;" width="69.527" height="59.216"/>
<polygon style="fill:#64C37D;" points="371.12,241.503 334.144,235.555 313.974,268.158 244.374,118.91 313.953,118.91 "/>
<polygon style="fill:#FFFFFF;" points="371.12,241.503 313.953,118.91 299.733,118.91 355.745,239.03 "/>
<polygon style="fill:#49AA60;" points="265.889,118.91 244.374,118.91 313.974,268.158 326.241,248.328 "/>
<polygon style="fill:#64C37D;" points="267.624,118.91 198.023,268.158 177.854,235.555 140.878,241.503 198.044,118.91 "/>
<polygon style="fill:#49AA60;" points="246.109,118.91 185.756,248.328 198.023,268.158 267.624,118.91 "/>
<polygon style="fill:#FFFFFF;" points="212.265,118.91 198.044,118.91 140.878,241.503 156.252,239.03 "/>
<polygon style="fill:#D80027;" points="224.468,58.475 133.027,12.754 133.027,170.411 224.468,124.691 "/>
<polygon style="fill:#FFFFFF;" points="146.69,147.288 146.69,19.586 133.027,12.754 133.027,170.411 224.468,124.691 
	224.468,108.399 "/>
<polygon style="fill:#D80027;" points="287.53,58.475 287.53,124.691 378.971,170.411 378.971,12.754 "/>
<polygon style="fill:#BC052F;" points="355.848,24.316 355.848,135.726 287.53,101.568 287.53,124.691 378.971,170.411 
	378.971,12.754 "/>
<rect x="224.47" y="39.025" style="fill:#D80027;" width="63.063" height="105.104"/>
<path d="M352.714,283.452v-36.921l31.837,5.121l-31.837-68.275v-17.28l34.139,17.07V0l-91.441,45.72V31.148h-78.828V45.72L125.143,0
	v183.166l34.139-17.07v17.28l-31.837,68.275l31.837-5.121v36.921h-36.813v74.988h125.646v20.476
	c-15.153,3.574-26.468,17.199-26.468,33.428c0,18.942,15.409,34.351,34.351,34.351c18.941,0,34.351-15.409,34.351-34.351
	c0-16.228-11.316-29.855-26.468-33.428v-20.476h125.646v-74.988L352.714,283.452L352.714,283.452z M274.583,412.343
	c0,10.248-8.338,18.586-18.586,18.586c-10.248,0-18.586-8.338-18.586-18.586c0-10.248,8.338-18.586,18.586-18.586
	C266.246,393.758,274.583,402.096,274.583,412.343z M313.778,283.452l23.171-37.451v37.451H313.778z M330.201,226.942
	l-15.255,24.656l-46.436-99.581h26.903v-14.573l24.111,12.055l38.173,81.863L330.201,226.942z M371.088,25.51v132.147
	l-75.673-37.837l-0.002-56.473L371.088,25.51z M232.35,46.913h47.297v89.339H232.35V46.913z M140.91,25.51l75.675,37.838v56.472
	l-75.675,37.838V25.51z M192.474,149.5l24.111-12.055v14.573h26.902l-46.436,99.581l-15.255-24.656l-27.495,4.422L192.474,149.5z
	 M175.049,246.001l23.17,37.451h-23.17V246.001z M373.762,342.673H138.236v-43.456h105.151v-15.766h-43.793l56.404-120.961
	l56.756,121.715v15.012h61.007v43.456H373.762z"/>
<rect x="266.512" y="283.456" width="23.123" height="15.766"/>
<rect x="248.118" y="471.54" width="15.766" height="40.456"/>
<rect x="298.212" y="457.837" transform="matrix(0.7071 0.7071 -0.7071 0.7071 422.6219 -88.8599)" width="40.724" height="15.765"/>
<rect x="321.439" y="395.245" width="43.429" height="15.766"/>
<rect x="147.123" y="395.245" width="42.241" height="15.766"/>
<rect x="185.551" y="445.368" transform="matrix(0.7071 0.7071 -0.7071 0.7071 385.976 -0.3693)" width="15.765" height="40.722"/>
<g>
</g>
<g>
</g>
<g>
</g>
<g>
</g>
<g>
</g>
<g>
</g>
<g>
</g>
<g>
</g>
<g>
</g>
<g>
</g>
<g>
</g>
<g>
</g>
<g>
</g>
<g>
</g>
<g>
</g>
</svg>
