<?xml version="1.0" encoding="iso-8859-1"?>
<!-- Generator: Adobe Illustrator 19.0.0, SVG Export Plug-In . SVG Version: 6.00 Build 0)  -->
<svg version="1.1" id="Layer_1" xmlns="http://www.w3.org/2000/svg" xmlns:xlink="http://www.w3.org/1999/xlink" x="0px" y="0px"
	 viewBox="0 0 512 512" style="enable-background:new 0 0 512 512;" xml:space="preserve">
<path style="fill:#FFDA44;" d="M393.022,144.866c0,57.036-34.852,105.946-84.43,126.562H203.399
	c-49.568-20.626-84.42-69.525-84.42-126.562c0-75.676,61.346-137.021,137.021-137.021S393.022,69.191,393.022,144.866z"/>
<path style="fill:#FFFFFF;" d="M226.442,271.428h-23.043c-49.568-20.626-84.42-69.525-84.42-126.562
	c0-75.676,61.346-137.021,137.021-137.021c3.881,0,7.709,0.167,11.506,0.481c-70.289,5.847-125.516,64.745-125.516,136.54
	C141.99,201.913,176.852,250.812,226.442,271.428z"/>
<path style="fill:#EDC10C;" d="M393.022,144.866c0,57.036-34.852,105.946-84.43,126.562h-34.517
	c49.579-20.616,84.43-69.525,84.43-126.562c0-69.829-52.236-127.451-119.763-135.944c5.648-0.711,11.411-1.077,17.258-1.077
	C331.676,7.845,393.022,69.191,393.022,144.866z"/>
<path style="fill:#FFFFFF;" d="M320.143,281.353l-9.765-4.492c-7.368-3.436-12.34-10.89-12.34-19.02v-65.906l-89.953,31.379V369.87
	c0,8.13-4.71,15.523-12.079,18.959l-4.096,1.91c-14.535,6.778-20.824,24.056-14.046,38.591l0,0
	c5.508,11.812,17.951,18.178,30.22,16.512v58.314h89.953V335.207c13.772,4.497,29.65-1.207,36.021-15.141h0.066
	C340.902,305.422,334.679,288.131,320.143,281.353z"/>
<path style="fill:#E6E6E6;" d="M334.124,320.065h-0.063c-6.37,13.932-22.248,19.633-36.023,15.146v168.944h-24.256V200.396
	l24.256-8.462v65.906c0,8.127,4.968,15.585,12.342,19.016l9.759,4.498C334.678,288.132,340.902,305.422,334.124,320.065z"/>
<path style="fill:#FF9811;" d="M293.331,132.838c0,23.395-18.965,42.362-42.362,42.362s-42.362-18.966-42.362-42.362
	s42.362-73.741,42.362-73.741S293.331,109.441,293.331,132.838z"/>
<path d="M256.001,0c-79.879,0-144.866,64.987-144.866,144.866c0,25.546,6.742,50.662,19.499,72.634
	c12.373,21.313,30.103,39.25,51.272,51.874l8.036-13.475c-18.886-11.262-34.702-27.263-45.74-46.276
	c-11.369-19.583-17.378-41.975-17.378-64.757c0-71.228,57.949-129.177,129.177-129.177s129.177,57.949,129.177,129.177
	c0,47.62-26.074,91.235-68.045,113.826l7.436,13.815c47.062-25.331,76.298-74.241,76.298-127.641C400.867,64.987,335.88,0,256.001,0
	z"/>
<path d="M355.053,120.52l15.27-3.604c-10.477-44.383-46.116-78.934-90.794-88.021l-3.126,15.375
	C315.105,52.141,345.977,82.071,355.053,120.52z"/>
<path d="M323.459,274.244l-9.765-4.491c-4.671-2.179-7.81-6.965-7.81-11.91V180.89l-46.744,16.307V182.37
	c23.811-3.914,42.037-24.629,42.037-49.532c0-25.521-39.68-73.414-44.204-78.792l-6.003-7.133l-6.003,7.133
	c-4.525,5.377-44.204,53.271-44.204,78.792c0,25.128,18.556,46.002,42.686,49.641v20.19l-43.209,15.072v152.128
	c0,5.059-2.963,9.711-7.55,11.85l-4.095,1.91c-8.929,4.164-15.702,11.555-19.072,20.813s-2.933,19.274,1.231,28.202
	c5.584,11.976,16.827,19.785,29.485,21.112V512h105.643V344.543c13.129,0.593,25.698-5.652,32.799-16.633h0.455l2.106-4.55
	C349.812,304.847,341.835,282.812,323.459,274.244z M216.453,132.838c0-13.14,19.227-41.894,34.519-61.305
	c15.29,19.403,34.515,48.148,34.515,61.305c0,19.032-15.484,34.517-34.517,34.517S216.453,151.87,216.453,132.838z M327.665,315.184
	l-0.74,1.619c-4.441,9.714-15.812,14.42-26.451,10.946l-10.28-3.357v171.918h-74.264v-59.452l-8.901,1.209
	c-9.241,1.259-18.107-3.589-22.055-12.053c-2.393-5.13-2.643-10.886-0.707-16.206c1.936-5.32,5.828-9.567,10.96-11.961l4.095-1.91
	c10.089-4.705,16.608-14.937,16.608-26.069V228.885l27.519-9.6v46.913h15.689v-52.385l6.799-2.371v75.676h15.689v-81.149
	l8.566-2.988v54.862c0,11.095,6.622,21.351,16.906,26.147l9.742,4.481C326.871,293.155,331.486,304.862,327.665,315.184z"/>
<rect x="265.937" y="310.129" width="15.689" height="19.873"/>
<g>
</g>
<g>
</g>
<g>
</g>
<g>
</g>
<g>
</g>
<g>
</g>
<g>
</g>
<g>
</g>
<g>
</g>
<g>
</g>
<g>
</g>
<g>
</g>
<g>
</g>
<g>
</g>
<g>
</g>
</svg>
