<?xml version="1.0" encoding="iso-8859-1"?>
<!-- Generator: Adobe Illustrator 19.0.0, SVG Export Plug-In . SVG Version: 6.00 Build 0)  -->
<svg version="1.1" id="Layer_1" xmlns="http://www.w3.org/2000/svg" xmlns:xlink="http://www.w3.org/1999/xlink" x="0px" y="0px"
	 viewBox="0 0 512 512" style="enable-background:new 0 0 512 512;" xml:space="preserve">
<path style="fill:#64C37D;" d="M197.326,303.138c-15.715,5.771-33.524,7.549-53.314,5.246c-21.372-2.479-38.409-9.099-44.6-11.76
	c-0.516,23.061-7.662,41.546-21.262,54.978c-19.837,19.582-48.055,22.542-56.787,22.984c2.639,6.195,9.4,23.651,11.83,44.97
	c3.488,30.528-2.702,56.363-18.406,76.993c20.704-15.764,46.644-21.939,77.31-18.369c21.43,2.486,38.505,9.137,44.652,11.782
	c0.441-8.736,3.395-36.929,22.984-56.774c9.864-9.989,22.466-16.481,37.592-19.438L197.326,303.138L197.326,303.138z"/>
<path style="fill:#FFFFFF;" d="M197.326,303.138c-15.715,5.771-33.524,7.549-53.314,5.246c-21.372-2.479-38.409-9.099-44.6-11.76
	c-0.516,23.061-7.662,41.546-21.262,54.978c-19.837,19.582-48.055,22.542-56.787,22.984c2.639,6.195,9.4,23.651,11.83,44.97
	c3.488,30.528-2.702,56.363-18.406,76.993c7.107-5.412,14.831-9.693,23.152-12.837c5.984-15.834,7.856-33.828,5.57-53.838
	c-2.43-21.319-9.191-38.776-11.83-44.97c8.732-0.443,36.95-3.402,56.787-22.984c13.6-13.432,20.746-31.917,21.262-54.978
	c6.19,2.661,23.228,9.281,44.6,11.76c15.576,1.813,29.926,1.1,42.996-2.093v-13.47H197.326z"/>
<path style="fill:#49AA60;" d="M197.326,396.658c-22.108,0.883-39.91,7.984-52.942,21.179
	c-19.589,19.844-22.543,48.038-22.984,56.774c-6.147-2.645-23.223-9.296-44.652-11.782c-17.036-1.984-32.613-0.954-46.644,3.051
	c-3.204,11.227-8.31,21.467-15.315,30.669c20.704-15.764,46.644-21.939,77.31-18.369c21.43,2.486,38.505,9.137,44.652,11.782
	c0.441-8.736,3.395-36.929,22.984-56.774c9.864-9.989,22.466-16.481,37.592-19.438v-17.093H197.326z"/>
<path style="fill:#64C37D;" d="M197.326,162.921h11.491c2.798-10.794,6.036-19.012,7.679-22.867
	c-8.732-0.443-36.95-3.402-56.788-22.984c-13.6-13.432-20.746-31.917-21.262-54.978c-6.19,2.661-23.228,9.281-44.6,11.76
	c-30.667,3.569-56.607-2.605-77.31-18.369c15.703,20.63,21.892,46.465,18.405,76.993c-2.424,21.254-9.151,38.671-11.809,44.917
	c23.067,0.514,41.557,7.66,54.992,21.263c19.588,19.844,22.543,48.038,22.984,56.774c6.147-2.645,23.223-9.296,44.652-11.782
	c19.056-2.218,36.283-0.668,51.566,4.602v-85.33H197.326z"/>
<path style="fill:#FFFFFF;" d="M201.514,162.921h7.303c2.798-10.794,6.036-19.012,7.679-22.867
	c-8.732-0.443-36.95-3.402-56.788-22.984c-13.6-13.432-20.746-31.917-21.262-54.978c-6.19,2.661-23.228,9.281-44.6,11.76
	c-30.667,3.569-56.607-2.605-77.31-18.369c5.411,7.107,9.691,14.832,12.835,23.155C45.29,84.655,63.39,86.514,83.53,84.17
	c21.372-2.479,38.409-9.099,44.6-11.76c0.516,23.061,7.662,41.547,21.262,54.978c19.837,19.582,48.055,22.542,56.787,22.984
	C205.112,152.877,203.37,157.224,201.514,162.921z"/>
<path style="fill:#49AA60;" d="M197.326,228.974c-11.207-1.948-23.29-2.181-36.214-0.676c-21.43,2.486-38.505,9.137-44.652,11.782
	c-0.441-8.736-3.395-36.929-22.984-56.774c-13.435-13.603-31.925-20.749-54.992-21.263c2.657-6.246,9.385-23.664,11.809-44.917
	c1.932-16.911,0.889-32.379-3.091-46.324c-11.226-3.204-21.465-8.312-30.667-15.318c15.704,20.63,21.893,46.465,18.406,76.993
	c-2.424,21.254-9.151,38.671-11.809,44.917c23.067,0.514,41.557,7.66,54.992,21.263c19.588,19.844,22.543,48.038,22.984,56.774
	c6.147-2.645,23.223-9.296,44.652-11.782c19.056-2.218,36.283-0.668,51.566,4.602v-19.277H197.326z"/>
<path style="fill:#64C37D;" d="M495.464,55.484c-20.704,15.764-46.644,21.938-77.31,18.369c-21.372-2.479-38.409-9.099-44.6-11.76
	c-0.516,23.061-7.662,41.547-21.262,54.978c-19.837,19.582-48.055,22.542-56.788,22.984c1.642,3.855,4.881,12.073,7.679,22.867
	h11.361v85.371c15.316-5.305,32.588-6.868,51.696-4.643c21.43,2.486,38.505,9.137,44.652,11.782
	c0.441-8.736,3.395-36.93,22.984-56.774c13.435-13.603,31.925-20.749,54.992-21.263c-2.657-6.246-9.385-23.664-11.808-44.917
	C473.571,101.949,479.76,76.113,495.464,55.484z"/>
<path style="fill:#FFFFFF;" d="M418.153,73.853c-21.372-2.479-38.409-9.099-44.6-11.76c-0.516,23.061-7.662,41.547-21.262,54.978
	c-19.837,19.582-48.055,22.542-56.788,22.984c1.642,3.855,4.881,12.073,7.679,22.867h7.303c-1.856-5.697-3.597-10.045-4.664-12.55
	c8.732-0.443,36.95-3.402,56.787-22.984c13.6-13.432,20.746-31.917,21.262-54.978c6.19,2.661,23.228,9.281,44.6,11.76
	c20.14,2.345,38.24,0.486,54.158-5.532c3.145-8.321,7.425-16.047,12.835-23.155C474.76,71.247,448.82,77.422,418.153,73.853z"/>
<path style="fill:#49AA60;" d="M495.464,55.484c-9.202,7.006-19.441,12.113-30.666,15.318c-3.98,13.944-5.023,29.413-3.091,46.324
	c2.424,21.254,9.152,38.671,11.808,44.917c-23.067,0.514-41.557,7.66-54.992,21.263c-19.589,19.845-22.543,48.038-22.984,56.774
	c-6.146-2.645-23.223-9.296-44.652-11.782c-12.975-1.51-25.1-1.268-36.344,0.7v19.294c15.316-5.305,32.588-6.868,51.695-4.643
	c21.43,2.486,38.505,9.137,44.652,11.782c0.441-8.736,3.395-36.93,22.984-56.774c13.435-13.603,31.925-20.749,54.992-21.263
	c-2.657-6.246-9.385-23.664-11.808-44.917C473.571,101.949,479.76,76.113,495.464,55.484z"/>
<rect x="197.329" y="162.922" style="fill:#FFDA44;" width="117.222" height="341.231"/>
<rect x="197.329" y="162.922" style="fill:#FFFFFF;" width="21.974" height="341.231"/>
<rect x="282.092" y="162.922" style="fill:#EDC10C;" width="32.459" height="341.231"/>
<path style="fill:#FF9811;" d="M298.327,85.987c0,23.413-18.979,42.392-42.392,42.392c-23.413,0-42.392-18.979-42.392-42.392
	s42.392-73.794,42.392-73.794S298.327,62.575,298.327,85.987z"/>
<rect x="41.362" y="383.952" transform="matrix(-0.7071 0.7071 -0.7071 -0.7071 481.1243 584.317)" width="156.368" height="15.701"/>
<rect x="40.129" y="149.424" transform="matrix(0.7071 0.7071 -0.7071 0.7071 145.8629 -37.5956)" width="156.368" height="15.701"/>
<path d="M487.445,131.124c-3.674-32.507,4.514-59.04,24.337-78.863l-1.234-1.234l-9.87-9.87l-1.234-1.234
	c-19.823,19.823-46.355,28.008-78.863,24.337c-25.003-2.826-44.285-11.95-44.468-12.038l-11.256-5.42v12.495
	c0,21.633-6.192,38.725-18.405,50.801c-20.68,20.451-52.281,20.33-52.601,20.328l-12.674-0.191l5.474,11.438
	c0.032,0.068,2.442,5.149,5.156,13.398h-27.699v-19.516c23.829-3.917,42.068-24.647,42.068-49.568
	c0-25.538-39.708-73.467-44.237-78.849L255.936,0l-6.007,7.139c-4.528,5.382-44.236,53.311-44.236,78.849
	c0,25.146,18.57,46.035,42.717,49.677v19.406h-28.221c2.715-8.253,5.125-13.329,5.154-13.39l5.47-11.398l-12.649,0.142
	c-0.33-0.01-31.939,0.121-52.618-20.327c-12.212-12.077-18.405-29.169-18.405-50.802l-0.008-12.457l-11.24,5.381
	c-0.192,0.091-19.473,9.215-44.476,12.041c-32.505,3.672-59.04-4.515-78.863-24.337l-1.234,1.234l0,0L0.217,52.262
	c19.823,19.823,28.011,46.356,24.336,78.863c-2.826,25.003-11.949,44.285-12.037,44.468l-5.42,11.256h12.493
	c21.634,0,38.726,6.192,50.802,18.405c20.446,20.676,20.33,52.302,20.327,52.601l-0.199,12.711l11.454-5.515
	c0.465-0.224,45.205-21.366,87.502-8.973v39.649c-42.161,12.336-87.042-8.753-87.502-8.973l-11.256-5.42v12.494
	c0,21.633-6.191,38.725-18.405,50.801c-20.678,20.449-52.305,20.352-52.601,20.328l-12.674-0.191l5.474,11.438
	c0.092,0.193,9.215,19.473,12.041,44.476c3.675,32.507-4.513,59.04-24.336,78.863l11.102,11.103l0,0l1.234,1.234
	c19.823-19.824,46.361-28.007,78.863-24.337c25.003,2.826,44.285,11.95,44.468,12.038l11.398,5.47l-0.141-12.649
	c-0.025-2.219-0.046-51.207,42.335-66.471V512h132.919V256.112c42.203-12.411,87.169,8.717,87.632,8.939l11.398,5.47l-0.142-12.649
	c-0.003-0.317-0.118-31.943,20.328-52.619c12.076-12.212,29.168-18.405,50.801-18.405l12.457-0.008l-5.381-11.24
	C499.396,175.409,490.273,156.127,487.445,131.124z M221.394,85.987c0-13.15,19.24-41.922,34.542-61.347
	c15.302,19.426,34.542,48.198,34.542,61.347c0,19.046-15.496,34.542-34.542,34.542C236.888,120.529,221.394,105.034,221.394,85.987z
	 M105.593,246.63c-1.751-13.23-7.178-35.292-23.924-52.302c-12.859-13.062-29.859-20.655-50.647-22.649
	c3.177-8.819,7.229-22.408,9.076-38.296c2.639-22.694-0.05-43.412-7.802-61.38c17.968,7.752,38.687,10.442,61.379,7.803
	c15.888-1.849,29.479-5.9,38.296-9.076c1.993,20.787,9.587,37.787,22.649,50.647c17.02,16.755,39.101,22.179,52.327,23.927
	c-1.009,2.788-2.112,6.078-3.208,9.767h-14.264v84.737C155.558,231.418,122.051,240.637,105.593,246.63z M138.885,455.762
	c-3.847,9.542-5.71,18.645-6.609,25.424c-8.809-3.193-22.529-7.318-38.601-9.186c-22.693-2.639-43.411,0.05-61.378,7.801
	c7.752-17.967,10.441-38.685,7.802-61.378c-1.868-16.065-5.99-29.779-9.182-38.588c13.227-1.749,35.305-7.175,52.32-23.927
	c13.057-12.854,20.651-29.848,22.647-50.625c16.562,5.995,49.875,15.052,83.59,6.714v97.452
	C165.836,416.22,148.416,432.117,138.885,455.762z M306.694,496.299H205.177V170.772h25.637v52.859h15.701v-52.859h18.841v121.943
	h15.701V170.772h25.637V496.299z M430.332,194.328c-16.743,17.007-22.173,39.071-23.924,52.301
	c-16.482-6.001-50.055-15.221-84.013-6.775v-84.781h-14.134c-1.096-3.69-2.199-6.98-3.208-9.768
	c13.226-1.747,35.308-7.172,52.327-23.927c13.061-12.859,20.655-29.858,22.649-50.646c8.819,3.176,22.408,7.228,38.297,9.076
	c22.693,2.638,43.411-0.051,61.379-7.803c-7.752,17.968-10.441,38.686-7.802,61.38c1.849,15.888,5.9,29.478,9.076,38.296
	C460.19,173.673,443.191,181.267,430.332,194.328z"/>
<rect x="385.841" y="79.104" transform="matrix(0.7071 0.7071 -0.7071 0.7071 226.5291 -232.3133)" width="15.701" height="156.368"/>
<g>
</g>
<g>
</g>
<g>
</g>
<g>
</g>
<g>
</g>
<g>
</g>
<g>
</g>
<g>
</g>
<g>
</g>
<g>
</g>
<g>
</g>
<g>
</g>
<g>
</g>
<g>
</g>
<g>
</g>
</svg>
