<?xml version="1.0" encoding="iso-8859-1"?>
<!-- Generator: Adobe Illustrator 19.0.0, SVG Export Plug-In . SVG Version: 6.00 Build 0)  -->
<svg version="1.1" id="Layer_1" xmlns="http://www.w3.org/2000/svg" xmlns:xlink="http://www.w3.org/1999/xlink" x="0px" y="0px"
	 viewBox="0 0 512 512" style="enable-background:new 0 0 512 512;" xml:space="preserve">
<rect x="117.551" y="220.996" style="fill:#D80027;" width="276.898" height="283.167"/>
<rect x="117.551" y="220.996" style="fill:#FFFFFF;" width="22.465" height="283.167"/>
<rect x="360.49" y="220.996" style="fill:#BC052F;" width="33.959" height="283.167"/>
<g>
	<rect x="91.429" y="126.955" style="fill:#FFFFFF;" width="328.098" height="94.041"/>
	<rect x="360.49" y="126.955" style="fill:#FFFFFF;" width="59.037" height="94.041"/>
</g>
<rect x="360.49" y="126.955" style="fill:#E6E6E6;" width="59.037" height="94.041"/>
<path style="fill:#FFFFFF;" d="M415.971,95.608c8.079,0,14.629-6.549,14.629-14.629l0,0c0-8.079-6.549-14.629-14.629-14.629H299.413
	c-8.079,0-14.629-6.549-14.629-14.629l0,0c0-8.079,6.549-14.629,14.629-14.629h57.098c8.079,0,14.629-6.549,14.629-14.629l0,0
	c0-8.079-6.549-14.629-14.629-14.629H96.029c-8.079,0-14.629,6.549-14.629,14.629l0,0c0,8.079,6.549,14.629,14.629,14.629h108.062
	c8.079,0,14.629,6.549,14.629,14.629l0,0c0,8.079-6.549,14.629-14.629,14.629h-43.413c-8.079,0-14.629,6.549-14.629,14.629l0,0
	c0,8.079,6.549,14.629,14.629,14.629H415.971z"/>
<path d="M83.592,228.833h26.122V512h292.571V228.833h25.078V119.118H83.592V228.833z M125.388,439.693v-40.96h158.824v40.96H125.388
	z M125.388,342.1h85.682v40.96h-85.682V342.1z M299.886,398.733h86.727v40.96h-86.727V398.733z M226.743,383.06V342.1h159.869v40.96
	H226.743z M299.886,326.426v-40.96h86.727v40.96H299.886z M284.212,326.426H125.388v-40.96h158.824V326.426z M125.388,269.793
	v-40.96h85.682v40.96H125.388z M125.388,455.366h85.682v40.96h-85.682V455.366z M226.743,496.327v-40.96h159.869v40.96H226.743z
	 M386.612,269.793H226.743v-40.96h159.869V269.793z M99.265,134.792h31.198v28.212h15.673v-28.212h31.198v28.212h15.673v-28.212
	h31.198v28.212h15.673v-28.212h31.198v28.212h15.673v-28.212h31.198v28.212h15.673v-28.212h31.198v28.212h15.673v-28.212h31.199
	v78.367h-9.404H109.714H99.265V134.792z"/>
<path d="M415.971,58.514H299.413c-3.745,0-6.792-3.047-6.792-6.792s3.047-6.792,6.792-6.792h57.098
	c12.387,0,22.465-10.078,22.465-22.465S368.899,0,356.512,0H96.029C83.642,0,73.564,10.078,73.564,22.465
	s10.078,22.465,22.465,22.465h108.063c3.745,0,6.792,3.047,6.792,6.792s-3.047,6.792-6.792,6.792h-43.413
	c-12.387,0-22.465,10.078-22.465,22.465s10.078,22.465,22.465,22.465h255.292c12.387,0,22.465-10.078,22.465-22.465
	S428.358,58.514,415.971,58.514z M415.971,87.771H160.678c-3.745,0-6.792-3.047-6.792-6.792c0-3.745,3.047-6.792,6.792-6.792h43.413
	c12.387,0,22.465-10.078,22.465-22.465s-10.078-22.465-22.465-22.465H96.029c-3.745,0-6.792-3.047-6.792-6.792
	s3.047-6.792,6.792-6.792h260.483c3.745,0,6.792,3.047,6.792,6.792s-3.047,6.792-6.792,6.792h-57.098
	c-12.387,0-22.465,10.078-22.465,22.465s10.078,22.465,22.465,22.465H415.97c3.745,0,6.792,3.047,6.792,6.792
	C422.762,84.725,419.716,87.771,415.971,87.771z"/>
<g>
</g>
<g>
</g>
<g>
</g>
<g>
</g>
<g>
</g>
<g>
</g>
<g>
</g>
<g>
</g>
<g>
</g>
<g>
</g>
<g>
</g>
<g>
</g>
<g>
</g>
<g>
</g>
<g>
</g>
</svg>
