<?xml version="1.0" encoding="iso-8859-1"?>
<!-- Generator: Adobe Illustrator 19.0.0, SVG Export Plug-In . SVG Version: 6.00 Build 0)  -->
<svg version="1.1" id="Layer_1" xmlns="http://www.w3.org/2000/svg" xmlns:xlink="http://www.w3.org/1999/xlink" x="0px" y="0px"
	 viewBox="0 0 512 512" style="enable-background:new 0 0 512 512;" xml:space="preserve">
<path style="fill:#FFDA44;" d="M63.739,419.265c0-93.914,76.251-170.048,170.313-170.048c94.061,0,170.313,76.133,170.313,170.048
	H63.739z"/>
<path style="fill:#FFFFFF;" d="M245.023,249.579c-3.629-0.231-7.285-0.362-10.971-0.362c-94.062,0-170.313,76.133-170.313,170.048
	h21.943C85.682,329.032,156.076,255.227,245.023,249.579z"/>
<path style="fill:#EDC10C;" d="M234.052,249.218c-5.64,0-11.214,0.281-16.713,0.816c86.217,8.385,153.6,80.948,153.6,169.232h33.425
	C404.364,325.351,328.113,249.218,234.052,249.218z"/>
<path style="fill:#E6E6E6;" d="M501.926,347.459c-4.261-9.147-15.123-13.105-24.26-8.84c-0.805,0.376-1.554,0.819-2.276,1.292
	l-0.91-1.954c0.825-0.25,1.647-0.539,2.451-0.915c9.138-4.265,13.09-15.138,8.83-24.287c-4.261-9.147-15.123-13.105-24.26-8.839
	c-9.138,4.265-13.09,15.138-8.83,24.286c1.257,2.7,3.1,4.933,5.293,6.651L398.5,362.611c6.06,4.693,11.358,10.326,15.648,16.701
	l53-24.741c-0.095,2.787,0.429,5.635,1.686,8.334c4.261,9.147,15.123,13.105,24.26,8.84
	C502.233,367.48,506.187,356.606,501.926,347.459z"/>
<path style="fill:#FFDA44;" d="M283.268,419.265c0-39.543,32.022-71.599,71.522-71.599s71.522,32.056,71.522,71.599H283.268z"/>
<path style="fill:#FFFFFF;" d="M365.764,348.506c-3.578-0.552-7.242-0.839-10.975-0.839c-39.5,0-71.522,32.055-71.522,71.599h21.948
	C305.217,383.458,331.474,353.792,365.764,348.506z"/>
<path style="fill:#EDC10C;" d="M354.79,347.667c-5.591,0-11.025,0.664-16.246,1.878c31.67,7.368,55.276,35.775,55.276,69.721h32.492
	C426.313,379.722,394.291,347.667,354.79,347.667z"/>
<rect x="7.837" y="419.265" style="fill:#FFFFFF;" width="496.327" height="26.122"/>
<rect x="393.927" y="419.265" style="fill:#E6E6E6;" width="110.237" height="26.122"/>
<path d="M104.871,349.7l13.777,7.473c17.231-31.761,47.077-55.248,81.883-64.441l-4.002-15.153
	C157.562,287.869,124.154,314.157,104.871,349.7z"/>
<path d="M305.857,396.987l14.052,6.941c7.114-14.401,21.462-23.347,37.445-23.347v-15.673
	C335.364,364.908,315.631,377.199,305.857,396.987z"/>
<path d="M291.603,411.429c3.872-31.472,30.722-55.925,63.187-55.925c27.324,0,51.57,17.394,60.332,43.285l14.846-5.025
	c-1.295-3.824-2.868-7.495-4.68-11.003l36.274-16.934c0.057,0.129,0.109,0.259,0.168,0.388c2.945,6.322,8.173,11.118,14.723,13.504
	c2.913,1.062,5.932,1.589,8.942,1.589c3.76,0,7.506-0.824,11.014-2.462c13.036-6.084,18.696-21.649,12.619-34.696
	c-2.945-6.322-8.173-11.118-14.723-13.504c-0.313-0.114-0.629-0.216-0.946-0.319c2.644-6.498,2.692-14.035-0.497-20.88
	c-2.945-6.322-8.173-11.118-14.723-13.504c-6.551-2.385-13.638-2.076-19.957,0.872c-13.035,6.084-18.696,21.649-12.619,34.697
	c0.062,0.133,0.139,0.254,0.203,0.385l-46.384,21.653c-12.852-8.733-28.28-13.721-44.595-13.721
	c-41.117,0-75.024,31.463-78.969,71.599H71.769c4.11-85.818,75.326-154.374,162.283-154.374c53.574,0,103.685,26.363,134.05,70.522
	l12.915-8.88c-33.289-48.413-88.229-77.316-146.965-77.316c-95.602,0-173.844,75.585-177.967,170.048H0v41.796h512v-41.796H291.603z
	 M412.515,364.718l44.91-20.965c0.927,0.468,1.875,0.901,2.865,1.261c0.315,0.115,0.634,0.199,0.952,0.301
	c-0.522,1.281-0.94,2.602-1.255,3.95l-43.32,20.223C415.343,367.842,413.959,366.248,412.515,364.718z M494.822,350.768
	c2.431,5.218,0.169,11.443-5.042,13.875c-2.521,1.177-5.349,1.301-7.961,0.348c-2.615-0.953-4.703-2.869-5.881-5.396
	c-2.431-5.218-0.17-11.443,5.041-13.875c1.4-0.653,2.894-0.981,4.395-0.981c1.201,0,2.405,0.21,3.567,0.633
	C491.557,346.325,493.645,348.242,494.822,350.768z M464.816,311.017c1.4-0.653,2.894-0.981,4.395-0.981
	c1.201,0,2.405,0.21,3.567,0.633c2.615,0.953,4.703,2.869,5.88,5.396c2.431,5.218,0.17,11.443-5.041,13.875
	c-2.521,1.174-5.349,1.3-7.961,0.348c-2.615-0.953-4.704-2.868-5.881-5.395C457.343,319.675,459.605,313.449,464.816,311.017z
	 M496.327,437.551H15.673v-10.449h480.653V437.551z"/>
<path d="M159.81,181.624c-8.146,6.789-18.285,15.238-18.285,31.796h15.673c0-8.789,4.569-13.026,12.645-19.755
	c8.146-6.789,18.285-15.238,18.285-31.796c0-16.557-10.138-25.007-18.285-31.795c-8.076-6.729-12.645-10.965-12.645-19.755
	c0-8.788,4.569-13.023,12.645-19.752c8.146-6.788,18.285-15.236,18.285-31.792h-15.673c0,8.787-4.569,13.022-12.644,19.751
	c-8.146,6.788-18.285,15.236-18.285,31.793c0,16.558,10.139,25.008,18.285,31.796c8.076,6.729,12.644,10.965,12.644,19.754
	C172.455,170.658,167.886,174.895,159.81,181.624z"/>
<path d="M206.309,142.116c8.076,6.729,12.644,10.965,12.644,19.754c0,8.789-4.569,13.026-12.645,19.755
	c-8.146,6.789-18.285,15.238-18.285,31.796h15.673c0-8.789,4.569-13.026,12.645-19.755c8.146-6.789,18.285-15.238,18.285-31.796
	c0-16.557-10.138-25.007-18.285-31.795c-8.076-6.729-12.645-10.965-12.645-19.755c0-8.788,4.569-13.023,12.645-19.752
	c8.146-6.788,18.285-15.236,18.285-31.792h-15.673c0,8.787-4.569,13.022-12.644,19.751c-8.146,6.788-18.285,15.236-18.285,31.793
	C188.024,126.878,198.163,135.327,206.309,142.116z"/>
<path d="M252.284,142.116c8.076,6.729,12.644,10.965,12.644,19.754c0,8.789-4.569,13.026-12.645,19.755
	c-8.146,6.789-18.285,15.238-18.285,31.796h15.673c0-8.789,4.569-13.026,12.645-19.755c8.146-6.789,18.284-15.238,18.284-31.796
	c0-16.557-10.138-25.007-18.284-31.795c-8.076-6.729-12.645-10.965-12.645-19.755c0-8.788,4.569-13.023,12.645-19.752
	c8.146-6.788,18.284-15.236,18.284-31.792h-15.673c0,8.787-4.569,13.022-12.644,19.751c-8.146,6.788-18.285,15.236-18.285,31.793
	C234,126.878,244.138,135.327,252.284,142.116z"/>
<path d="M298.26,142.116c8.076,6.729,12.644,10.965,12.644,19.754c0,8.789-4.568,13.026-12.645,19.755
	c-8.146,6.789-18.285,15.238-18.285,31.796h15.673c0-8.789,4.569-13.026,12.645-19.755c8.146-6.789,18.285-15.238,18.285-31.796
	c0-16.557-10.138-25.007-18.285-31.795c-8.075-6.729-12.645-10.965-12.645-19.755c0-8.788,4.569-13.023,12.645-19.752
	c8.146-6.788,18.285-15.236,18.285-31.792h-15.673c0,8.787-4.568,13.022-12.644,19.751c-8.146,6.788-18.285,15.236-18.285,31.793
	C279.975,126.878,290.113,135.327,298.26,142.116z"/>
<g>
</g>
<g>
</g>
<g>
</g>
<g>
</g>
<g>
</g>
<g>
</g>
<g>
</g>
<g>
</g>
<g>
</g>
<g>
</g>
<g>
</g>
<g>
</g>
<g>
</g>
<g>
</g>
<g>
</g>
</svg>
