<?xml version="1.0" encoding="iso-8859-1"?>
<!-- Generator: Adobe Illustrator 19.0.0, SVG Export Plug-In . SVG Version: 6.00 Build 0)  -->
<svg version="1.1" id="Layer_1" xmlns="http://www.w3.org/2000/svg" xmlns:xlink="http://www.w3.org/1999/xlink" x="0px" y="0px"
	 viewBox="0 0 512 512" style="enable-background:new 0 0 512 512;" xml:space="preserve">
<polygon style="fill:#64C37D;" points="497.433,413.375 413.374,497.436 390.593,428.664 428.721,390.535 "/>
<polygon style="fill:#FFFFFF;" points="389.874,428.494 406.173,412.195 429.395,482.302 413.097,498.6 "/>
<polygon style="fill:#49AA60;" points="497.433,413.375 474.201,436.608 405.489,413.768 428.721,390.535 "/>
<polygon style="fill:#64C37D;" points="121.336,82.533 82.485,121.384 14.541,98.6 98.605,14.537 "/>
<polygon style="fill:#FFFFFF;" points="29.674,82.579 98.949,105.81 82.655,122.104 13.38,98.873 "/>
<polygon style="fill:#49AA60;" points="121.336,82.533 98.101,105.768 75.369,37.772 98.605,14.537 "/>
<rect x="37.619" y="173.204" transform="matrix(-0.7071 -0.7071 0.7071 -0.7071 254.2831 618.16)" style="fill:#64C37D;" width="435.096" height="166.425"/>
<rect x="-13.516" y="296.65" transform="matrix(0.7071 0.7071 -0.7071 0.7071 277.2361 -54.1907)" style="fill:#FFFFFF;" width="435.096" height="21.816"/>
<rect x="84.903" y="192.813" transform="matrix(0.7071 0.7071 -0.7071 0.7071 236.4779 -152.6059)" style="fill:#49AA60;" width="435.096" height="32.677"/>
<polygon points="409.918,512 391.433,456.204 406.354,451.26 416.824,482.862 482.872,416.815 451.188,406.286 456.146,391.369 
	511.992,409.927 "/>
<rect x="404.939" y="414.968" transform="matrix(-0.7071 -0.7071 0.7071 -0.7071 420.701 1019.9165)" width="33.286" height="15.72"/>
<polygon points="56.54,120.977 0.008,102.02 102.03,0 120.947,56.583 106.036,61.568 95.177,29.085 29.075,95.185 61.538,106.071 
	"/>
<rect x="73.337" y="83.392" transform="matrix(-0.7071 -0.7071 0.7071 -0.7071 89.0798 219.4031)" width="33.286" height="15.72"/>
<path d="M350.155,480.216L31.377,161.438L160.178,32.638l318.778,318.778L350.155,480.216z M53.609,161.438l296.546,296.546
	l106.569-106.569L160.178,54.869L53.609,161.438z"/>
<g>
	<polygon style="fill:#FFFFFF;" points="261.603,156.295 58.751,156.296 53.609,161.438 64.187,172.016 277.323,172.015 	"/>
	<polygon style="fill:#FFFFFF;" points="216.439,111.131 200.719,95.41 119.636,95.41 103.915,111.131 	"/>
	<polygon style="fill:#FFFFFF;" points="292.002,399.832 307.722,415.552 392.588,415.552 408.308,399.832 	"/>
	<polygon style="fill:#FFFFFF;" points="322.487,217.179 109.35,217.18 125.07,232.899 338.207,232.899 	"/>
	<polygon style="fill:#FFFFFF;" points="383.371,278.063 170.233,278.063 185.954,293.784 399.092,293.784 	"/>
	<polygon style="fill:#FFFFFF;" points="456.724,351.415 444.254,338.946 231.117,338.946 246.837,354.667 453.472,354.667 	"/>
</g>
<g>
</g>
<g>
</g>
<g>
</g>
<g>
</g>
<g>
</g>
<g>
</g>
<g>
</g>
<g>
</g>
<g>
</g>
<g>
</g>
<g>
</g>
<g>
</g>
<g>
</g>
<g>
</g>
<g>
</g>
</svg>
