<?xml version="1.0" encoding="iso-8859-1"?>
<!-- Generator: Adobe Illustrator 19.0.0, SVG Export Plug-In . SVG Version: 6.00 Build 0)  -->
<svg version="1.1" id="Layer_1" xmlns="http://www.w3.org/2000/svg" xmlns:xlink="http://www.w3.org/1999/xlink" x="0px" y="0px"
	 viewBox="0 0 512 512" style="enable-background:new 0 0 512 512;" xml:space="preserve">
<path style="fill:#D80027;" d="M459.638,323.203c0,100.611-91.166,180.952-203.639,180.952S52.36,423.815,52.36,323.203
	c0-65.927,39.15-139.636,97.777-190.366h211.724C420.498,183.305,459.638,257.276,459.638,323.203z"/>
<path style="fill:#FFFFFF;" d="M74.001,323.203c0-65.927,39.15-139.636,97.777-190.366h-21.641
	C91.51,183.567,52.36,257.276,52.36,323.203c0,100.611,91.166,180.952,203.639,180.952c3.631,0,7.237-0.087,10.821-0.252
	C159.379,498.944,74.001,420.567,74.001,323.203z"/>
<path style="fill:#BC052F;" d="M459.638,323.203c0,100.611-91.166,180.952-203.639,180.952c-5.512,0-10.972-0.199-16.369-0.575
	c104.806-7.353,187.27-84.692,187.27-180.377c0-65.927-39.161-139.908-97.798-190.366h32.76
	C420.498,183.305,459.638,257.276,459.638,323.203z"/>
<polygon style="fill:#D80027;" points="154.904,7.845 203.701,86.815 307.251,86.815 353.956,7.845 "/>
<polygon style="fill:#FFFFFF;" points="154.904,7.845 203.701,86.815 225.302,86.815 176.506,7.845 "/>
<polygon style="fill:#BC052F;" points="321.167,7.845 274.462,86.815 307.251,86.815 353.956,7.845 "/>
<polygon style="fill:#64C37D;" points="150.879,60.666 150.879,165.263 224.097,128.654 224.097,97.275 "/>
<polygon style="fill:#FFFFFF;" points="166.046,68.249 150.879,60.666 150.879,165.263 166.046,157.679 "/>
<polygon style="fill:#64C37D;" points="286.855,97.275 286.855,128.654 360.073,165.263 360.073,60.666 "/>
<polygon style="fill:#49AA60;" points="337.584,71.91 337.584,154.018 360.073,165.263 360.073,60.666 "/>
<rect x="224.097" y="81.324" style="fill:#FFDA44;" width="62.758" height="62.758"/>
<rect x="224.097" y="81.324" style="fill:#FFFFFF;" width="17.258" height="62.758"/>
<rect x="266.459" y="81.324" style="fill:#EDC10C;" width="20.396" height="62.758"/>
<path d="M388.479,147.286l-11.33,10.852c46.742,48.8,74.647,110.506,74.647,165.067c0,46.31-20.244,89.757-57.004,122.336
	c-36.941,32.741-86.233,50.771-138.793,50.771s-101.852-18.03-138.793-50.771c-36.76-32.58-57.004-76.027-57.004-122.337
	c0-54.023,27.619-115.4,73.882-164.183l-11.385-10.796c-48.957,51.625-78.186,117.038-78.186,174.98
	c0,50.862,22.121,98.479,62.287,134.077C146.613,492.566,199.601,512,256,512s109.386-19.433,149.201-54.72
	c40.166-35.598,62.287-83.215,62.287-134.077C467.486,264.696,437.951,198.933,388.479,147.286z"/>
<path d="M85.24,326.898c0,41.81,18.829,79.471,53.02,106.048l9.628-12.388c-30.282-23.537-46.959-56.8-46.959-93.66H85.24z"/>
<path d="M185.354,458.545l5.314-14.762c-8.759-3.154-17.152-6.983-24.947-11.385l-7.714,13.663
	C166.568,450.894,175.769,455.094,185.354,458.545z"/>
<path d="M143.035,47.973v129.982l73.218-36.608v10.58H294.7v-10.58l73.218,36.608V47.973l-40.58,20.291L367.709,0H140.836
	l41.913,67.83L143.035,47.973z M158.724,152.569V73.36l57.528,28.764v2.735h-21.965v15.689h21.965v3.258L158.724,152.569z
	 M279.01,136.237h-47.068V89.169h47.068V136.237z M352.228,152.569L294.7,123.805v-3.258h21.965v-15.689H294.7v-2.735l57.528-28.764
	V152.569z M168.974,15.689h171.228l-38.745,65.514l-6.757,3.378V73.479h-5.104l17.074-28.673l-13.481-8.027l-21.853,36.7h-7.491
	V51.252h-15.689v22.227h-7.494l-21.892-36.708l-13.475,8.037l17.099,28.671h-6.139v11.103l-6.817-3.408L168.974,15.689z"/>
<g>
</g>
<g>
</g>
<g>
</g>
<g>
</g>
<g>
</g>
<g>
</g>
<g>
</g>
<g>
</g>
<g>
</g>
<g>
</g>
<g>
</g>
<g>
</g>
<g>
</g>
<g>
</g>
<g>
</g>
</svg>
