<?xml version="1.0" encoding="iso-8859-1"?>
<!-- Generator: Adobe Illustrator 19.0.0, SVG Export Plug-In . SVG Version: 6.00 Build 0)  -->
<svg version="1.1" id="Layer_1" xmlns="http://www.w3.org/2000/svg" xmlns:xlink="http://www.w3.org/1999/xlink" x="0px" y="0px"
	 viewBox="0 0 512.001 512.001" style="enable-background:new 0 0 512.001 512.001;" xml:space="preserve">
<path style="fill:#FFFFFF;" d="M304.858,461.294L304.858,461.294h-69.002l0,0c-59.763-43.345-95.139-112.702-95.139-186.53v-4.795
	h259.281v4.795C399.997,348.591,364.621,417.948,304.858,461.294z"/>
<path style="fill:#E6E6E6;" d="M365.496,269.97v4.795c0,73.828-35.375,143.185-95.139,186.53l0,0h34.501l0,0
	c59.764-43.346,95.139-112.702,95.139-186.53v-4.795H365.496z"/>
<polygon style="fill:#FFFFFF;" points="416.202,461.294 124.511,461.294 147.512,504.159 393.201,504.159 "/>
<polygon style="fill:#E6E6E6;" points="393.201,504.159 359.223,504.159 382.224,461.294 416.202,461.294 "/>
<polygon style="fill:#FFDA44;" points="331.256,348.658 311.668,348.658 322.821,337.505 313.973,328.656 293.971,348.658 
	276.613,348.658 276.613,331.3 296.615,311.299 287.767,302.45 276.613,313.603 276.613,294.016 264.099,294.016 264.099,313.603 
	252.946,302.45 244.098,311.299 264.099,331.3 264.099,348.658 246.741,348.658 226.74,328.656 217.891,337.505 229.044,348.658 
	209.457,348.658 209.457,361.172 229.044,361.172 217.891,372.325 226.74,381.174 246.741,361.172 264.099,361.172 264.099,378.53 
	244.098,398.531 252.946,407.38 264.099,396.227 264.099,415.815 276.613,415.815 276.613,396.227 287.767,407.38 296.615,398.531 
	276.613,378.53 276.613,361.172 293.971,361.172 313.973,381.174 322.821,372.325 311.668,361.172 331.256,361.172 "/>
<rect x="197.168" y="262.124" width="23" height="15.682"/>
<path d="M327.144,453.453c50.882-44.935,80.694-110.188,80.694-178.688v-12.636h-90.119c50.855-25.027,85.937-77.383,85.937-137.786
	C403.656,55.78,347.876,0,279.313,0c-55.715,0-101.042,45.327-101.042,101.042c0,45.437,36.965,82.401,82.402,82.401
	c37.214,0,67.489-30.276,67.489-67.49c0-30.636-24.924-55.56-55.56-55.56c-24.929,0-45.129,19.505-45.989,44.406l15.673,0.542
	c0.567-16.41,13.882-29.264,30.316-29.264c21.989,0,39.878,17.888,39.878,39.878c0,28.567-23.241,51.808-51.807,51.808
	c-36.79,0-66.72-29.93-66.72-66.719c0-47.069,38.292-85.36,85.36-85.36c59.916,0,108.661,48.745,108.661,108.661
	c0,75.976-61.81,137.786-137.786,137.786h-18.515v15.682h160.46c-0.953,69.123-34.339,134.408-89.845,175.642h-63.865
	c-55.506-41.234-88.893-106.519-89.846-175.642h37.094V262.13h-52.797v12.636c0,68.5,29.812,133.752,80.694,178.688H111.405
	l31.416,58.547h255.073l31.416-58.547H327.144V453.453z M388.509,496.318H152.203l-14.586-27.183h265.478L388.509,496.318z"/>
<path d="M153.334,388.836c-30.801-8.831-52.76-36.454-54.804-68.161h24.413v-15.682H82.692v10.84
	c0,40.662,27.272,76.882,66.319,88.078L153.334,388.836z"/>
<g>
</g>
<g>
</g>
<g>
</g>
<g>
</g>
<g>
</g>
<g>
</g>
<g>
</g>
<g>
</g>
<g>
</g>
<g>
</g>
<g>
</g>
<g>
</g>
<g>
</g>
<g>
</g>
<g>
</g>
</svg>
