<?xml version="1.0" encoding="iso-8859-1"?>
<!-- Generator: Adobe Illustrator 19.0.0, SVG Export Plug-In . SVG Version: 6.00 Build 0)  -->
<svg version="1.1" id="Layer_1" xmlns="http://www.w3.org/2000/svg" xmlns:xlink="http://www.w3.org/1999/xlink" x="0px" y="0px"
	 viewBox="0 0 512 512" style="enable-background:new 0 0 512 512;" xml:space="preserve">
<rect x="99.831" y="466.404" style="fill:#FFFFFF;" width="282.986" height="37.732"/>
<rect x="348.23" y="466.404" style="fill:#E6E6E6;" width="34.587" height="37.732"/>
<rect x="99.831" y="189.706" style="fill:#64C37D;" width="282.986" height="314.429"/>
<rect x="99.831" y="189.706" style="fill:#FFFFFF;" width="23.058" height="314.429"/>
<rect x="348.23" y="189.706" style="fill:#49AA60;" width="34.587" height="314.429"/>
<rect x="74.677" y="146.734" style="fill:#D80027;" width="333.295" height="42.972"/>
<rect x="74.677" y="146.734" style="fill:#FFFFFF;" width="23.058" height="42.972"/>
<rect x="348.23" y="146.734" style="fill:#BC052F;" width="59.742" height="42.972"/>
<g>
	<rect x="135.991" y="189.706" style="fill:#FFFFFF;" width="15.721" height="127.868"/>
	<rect x="170.578" y="189.706" style="fill:#FFFFFF;" width="15.721" height="47.164"/>
	<rect x="205.165" y="189.706" style="fill:#FFFFFF;" width="15.721" height="70.223"/>
	<rect x="150.664" y="146.734" style="fill:#FFFFFF;" width="15.721" height="42.972"/>
	<rect x="185.251" y="146.734" style="fill:#FFFFFF;" width="15.721" height="42.972"/>
	<rect x="219.839" y="146.734" style="fill:#FFFFFF;" width="15.721" height="42.972"/>
	<polygon style="fill:#FFFFFF;" points="317.838,339.064 293.228,339.064 307.24,325.051 296.124,313.934 270.995,339.064 
		249.187,339.064 249.187,317.255 274.317,292.127 263.199,281.01 249.187,295.022 249.187,270.413 233.466,270.413 
		233.466,295.022 219.453,281.01 208.337,292.127 233.466,317.255 233.466,339.064 211.658,339.064 186.529,313.934 
		175.412,325.051 189.425,339.064 164.815,339.064 164.815,354.785 189.425,354.785 175.412,368.797 186.529,379.915 
		211.658,354.785 233.466,354.785 233.466,376.593 208.337,401.721 219.453,412.838 233.466,398.826 233.466,423.436 
		249.187,423.436 249.187,398.826 263.199,412.838 274.317,401.721 249.187,376.593 249.187,354.785 270.995,354.785 
		296.124,379.915 307.24,368.797 293.228,354.785 317.838,354.785 	"/>
</g>
<polygon points="390.681,512 91.973,512 91.973,212.767 107.694,212.767 107.694,496.279 374.959,496.279 374.959,212.767 
	390.681,212.767 "/>
<polygon points="445.182,428.152 405.878,428.152 405.878,412.431 429.46,412.431 429.46,258.359 405.878,258.359 405.878,242.638 
	445.182,242.638 "/>
<path d="M415.835,197.57H66.818v-58.693h349.017V197.57z M82.54,181.848h317.574v-27.251H82.54L82.54,181.848L82.54,181.848z"/>
<g>
	<line style="fill:none;stroke:#000000;stroke-width:15;stroke-miterlimit:10;" x1="172.15" y1="30.395" x2="172.15" y2="113.195"/>
	<line style="fill:none;stroke:#000000;stroke-width:15;stroke-miterlimit:10;" x1="218.266" y1="0" x2="218.266" y2="113.195"/>
	
		<line style="fill:none;stroke:#000000;stroke-width:15;stroke-miterlimit:10;" x1="264.383" y1="97.473" x2="264.383" y2="42.972"/>
	
		<line style="fill:none;stroke:#000000;stroke-width:15;stroke-miterlimit:10;" x1="310.499" y1="14.673" x2="310.499" y2="116.339"/>
</g>
<g>
</g>
<g>
</g>
<g>
</g>
<g>
</g>
<g>
</g>
<g>
</g>
<g>
</g>
<g>
</g>
<g>
</g>
<g>
</g>
<g>
</g>
<g>
</g>
<g>
</g>
<g>
</g>
<g>
</g>
</svg>
