<?xml version="1.0" encoding="iso-8859-1"?>
<!-- Generator: Adobe Illustrator 19.0.0, SVG Export Plug-In . SVG Version: 6.00 Build 0)  -->
<svg version="1.1" id="Layer_1" xmlns="http://www.w3.org/2000/svg" xmlns:xlink="http://www.w3.org/1999/xlink" x="0px" y="0px"
	 viewBox="0 0 512 512" style="enable-background:new 0 0 512 512;" xml:space="preserve">
<path style="fill:#FFFFFF;" d="M256.235,504.171h-57.358c-61.124,0-110.673-49.55-110.673-110.672V154.487h278.703v239.012
	C366.907,454.622,317.358,504.171,256.235,504.171z"/>
<path style="fill:#E6E6E6;" d="M332.983,154.487v239.012c0,61.123-49.55,110.672-110.672,110.672h33.925
	c61.123,0,110.672-49.55,110.672-110.672V154.487H332.983z"/>
<rect x="88.204" y="154.487" style="fill:#64C37D;" width="278.703" height="35.49"/>
<rect x="332.983" y="154.487" style="fill:#49AA60;" width="33.925" height="35.49"/>
<path d="M359.078,393.499c0,56.708-46.135,102.844-102.844,102.844h-57.358c-56.709,0-102.845-46.135-102.845-102.844V212.942
	H80.375v180.557C80.375,458.84,133.534,512,198.876,512h57.358c65.343,0,118.502-53.16,118.502-118.501V212.942h-15.657V393.499z"/>
<polygon points="391.437,214.508 391.437,230.165 415.967,230.165 415.967,375.258 391.437,375.258 391.437,390.915 
	431.625,390.915 431.625,214.508 "/>
<path d="M301.722,134.753c8.138-6.782,18.265-15.222,18.265-31.764c0-16.541-10.127-24.981-18.265-31.763
	c-8.068-6.722-12.632-10.954-12.632-19.735c0-8.779,4.565-13.009,12.631-19.732c8.139-6.781,18.266-15.22,18.266-31.76h-15.658
	c0,8.778-4.565,13.009-12.631,19.731c-8.138,6.781-18.266,15.22-18.266,31.761c0,16.542,10.128,24.982,18.266,31.764
	c8.067,6.722,12.631,10.954,12.631,19.734c0,8.781-4.565,13.012-12.632,19.735c-6.741,5.618-14.841,12.379-17.426,23.935h-29.474
	c1.991-4.206,5.745-7.531,10.996-11.906c8.138-6.782,18.265-15.222,18.265-31.764c0-16.541-10.127-24.981-18.265-31.763
	c-8.068-6.722-12.632-10.954-12.632-19.735c0-8.779,4.565-13.009,12.631-19.732c8.139-6.781,18.266-15.22,18.266-31.76h-15.658
	c0,8.778-4.565,13.009-12.631,19.731c-8.138,6.781-18.266,15.22-18.266,31.761c0,16.542,10.128,24.982,18.265,31.764
	c8.068,6.722,12.631,10.954,12.631,19.734c0,8.781-4.565,13.012-12.632,19.735c-6.741,5.618-14.841,12.379-17.426,23.935h-29.474
	c1.991-4.206,5.745-7.531,10.996-11.906c8.138-6.782,18.265-15.222,18.265-31.764c0-16.541-10.127-24.981-18.265-31.763
	c-8.068-6.722-12.632-10.954-12.632-19.735c0-8.779,4.565-13.009,12.631-19.732c8.14-6.781,18.267-15.22,18.267-31.76h-15.657
	c0,8.778-4.565,13.009-12.631,19.731c-8.138,6.781-18.266,15.22-18.266,31.761c0,16.542,10.128,24.982,18.265,31.764
	c8.068,6.722,12.631,10.954,12.631,19.734c0,8.781-4.565,13.012-12.632,19.735c-6.741,5.618-14.841,12.379-17.426,23.935h-29.996
	c1.991-4.206,5.745-7.531,10.996-11.906c8.138-6.782,18.265-15.222,18.265-31.764c0-16.541-10.127-24.981-18.265-31.763
	c-8.068-6.722-12.632-10.954-12.632-19.735c0-8.779,4.565-13.009,12.631-19.732c8.14-6.781,18.267-15.22,18.267-31.76h-15.657
	c0,8.778-4.565,13.009-12.631,19.731c-8.138,6.781-18.266,15.22-18.266,31.761c0,16.542,10.128,24.982,18.265,31.764
	c8.068,6.722,12.631,10.954,12.631,19.734c0,8.781-4.565,13.012-12.632,19.735c-6.741,5.618-14.841,12.379-17.426,23.935H80.375
	v43.321v7.827h294.361v-7.827v-43.321h-84.01C292.717,142.453,296.471,139.127,301.722,134.753z M359.078,182.149H96.033v-19.833
	h263.046V182.149z"/>
<polygon style="fill:#FFDA44;" points="303.755,318.891 279.246,318.891 293.202,304.936 282.13,293.863 257.103,318.891 
	235.384,318.891 235.384,297.172 260.411,272.146 249.34,261.073 235.384,275.029 235.384,250.52 219.727,250.52 219.727,275.029 
	205.771,261.073 194.7,272.146 219.727,297.172 219.727,318.891 198.008,318.891 172.981,293.863 161.909,304.936 175.865,318.891 
	151.356,318.891 151.356,334.548 175.865,334.548 161.909,348.503 172.981,359.576 198.008,334.548 219.727,334.548 
	219.727,356.267 194.7,381.293 205.771,392.366 219.727,378.41 219.727,402.919 235.384,402.919 235.384,378.41 249.34,392.366 
	260.411,381.293 235.384,356.267 235.384,334.548 257.103,334.548 282.13,359.576 293.202,348.503 279.246,334.548 303.755,334.548 
	"/>
<g>
</g>
<g>
</g>
<g>
</g>
<g>
</g>
<g>
</g>
<g>
</g>
<g>
</g>
<g>
</g>
<g>
</g>
<g>
</g>
<g>
</g>
<g>
</g>
<g>
</g>
<g>
</g>
<g>
</g>
</svg>
