<?xml version="1.0" encoding="iso-8859-1"?>
<!-- Generator: Adobe Illustrator 19.0.0, SVG Export Plug-In . SVG Version: 6.00 Build 0)  -->
<svg version="1.1" id="Layer_1" xmlns="http://www.w3.org/2000/svg" xmlns:xlink="http://www.w3.org/1999/xlink" x="0px" y="0px"
	 viewBox="0 0 512 512" style="enable-background:new 0 0 512 512;" xml:space="preserve">
<polygon style="fill:#FFDA44;" points="291.319,252.992 291.319,117.939 106.389,117.939 106.389,404.541 430.774,404.541 
	430.774,252.992 "/>
<polygon style="fill:#EDC10C;" points="291.319,252.992 291.319,117.939 258.298,117.939 258.298,285.707 430.774,285.707 
	430.774,252.992 "/>
<g>
	<rect x="106.383" y="44.571" style="fill:#FFFFFF;" width="234.777" height="73.368"/>
	<rect x="106.394" y="377.52" style="fill:#FFFFFF;" width="324.38" height="27.031"/>
</g>
<path style="fill:#EDC10C;" d="M192.853,403.717c0,0.273,0,0.555-0.01,0.828h-86.448v-86.763c0.168-0.01,0.346-0.01,0.514-0.01
	C154.377,317.772,192.853,356.248,192.853,403.717z"/>
<g>
	<rect x="106.383" y="117.944" style="fill:#FFFFFF;" width="22.01" height="286.606"/>
	<rect x="258.297" y="44.571" style="fill:#FFFFFF;" width="82.864" height="73.368"/>
</g>
<rect x="258.297" y="44.571" style="fill:#E6E6E6;" width="82.864" height="73.368"/>
<path d="M98.528,197.763H41.925v15.722h56.603v16.77h-7.342v15.722h7.342v17.818H52.406v15.722h46.122v132.887h340.107V245.131
	H299.18V125.8h49.842V36.71H98.523l0.005,122.273H0v15.722h98.528V197.763z M114.25,325.989
	c37.307,3.496,67.056,33.344,70.409,70.692H114.25C114.25,396.681,114.25,325.989,114.25,325.989z M200.451,396.681
	c-0.286-3.837-0.807-7.609-1.542-11.306h224.005v11.306H200.451z M114.244,110.078V89.116H333.3v20.962H114.244z M333.3,52.432
	v20.962H114.244V52.432H333.3z M114.25,125.8h169.208v20.606h-46.584v15.722h46.584v22.01h-46.584v15.722h46.584v22.01h-46.584
	v15.722h46.584v23.261h139.456v108.801H194.311c-12.812-32.76-43.533-56.615-80.06-59.456v-64.221h27.245v-15.722H114.25v-55.55
	h40.871v-15.722H114.25C114.25,158.983,114.25,125.8,114.25,125.8z"/>
<path d="M465.883,383.056v15.722c16.76,0,30.395,13.635,30.395,30.395c0,16.76-13.635,30.395-30.395,30.395H363.436v-32.96h-15.722
	v32.96H327.8v-32.96h-15.722v32.96h-86.993v-32.96h-15.722v32.96H189.45v-32.96h-15.722v32.96H62.363V425.56H46.641v49.73h419.242
	c25.429,0,46.117-20.688,46.117-46.117C512,403.744,491.311,383.056,465.883,383.056z"/>
<rect y="263.8" width="35.636" height="15.722"/>
<rect x="10.481" y="230.26" width="67.079" height="15.722"/>
<g>
</g>
<g>
</g>
<g>
</g>
<g>
</g>
<g>
</g>
<g>
</g>
<g>
</g>
<g>
</g>
<g>
</g>
<g>
</g>
<g>
</g>
<g>
</g>
<g>
</g>
<g>
</g>
<g>
</g>
</svg>
