<?xml version="1.0" encoding="iso-8859-1"?>
<!-- Generator: Adobe Illustrator 19.0.0, SVG Export Plug-In . SVG Version: 6.00 Build 0)  -->
<svg version="1.1" id="Layer_1" xmlns="http://www.w3.org/2000/svg" xmlns:xlink="http://www.w3.org/1999/xlink" x="0px" y="0px"
	 viewBox="0 0 512 512" style="enable-background:new 0 0 512 512;" xml:space="preserve">
<path style="fill:#64C37D;" d="M472.705,418.482c2.463-21.601,9.313-39.287,11.987-45.563c-8.847-0.449-37.437-3.447-57.537-23.287
	c-7.509-7.416-13.06-16.363-16.656-26.743c-15.747,18.329-39.076,29.953-65.134,29.953c-2.084,0-4.144-0.1-6.191-0.246
	c-6.736,26.297-25.62,47.717-50.313,57.959c-0.026,0.063-0.056,0.133-0.082,0.194c23.371,0.52,42.105,7.76,55.717,21.543
	c19.847,20.106,22.84,48.672,23.287,57.523c6.228-2.68,23.529-9.418,45.24-11.937c31.071-3.617,57.353,2.64,78.329,18.611
	C475.442,475.588,469.172,449.412,472.705,418.482z"/>
<path style="fill:#FFFFFF;" d="M472.705,418.482c2.463-21.601,9.313-39.287,11.987-45.563c-8.847-0.449-37.437-3.447-57.537-23.287
	c-7.509-7.416-13.06-16.363-16.656-26.743c-3.204,3.729-6.705,7.196-10.498,10.328c3.595,10.432,9.162,19.422,16.701,26.867
	c20.099,19.84,48.69,22.839,57.537,23.287c-2.674,6.276-9.524,23.963-11.987,45.563c-2.316,20.274-0.419,38.506,5.644,54.548
	c8.43,3.186,16.257,7.524,23.457,13.006C475.442,475.588,469.172,449.412,472.705,418.482z"/>
<path style="fill:#49AA60;" d="M475.837,465.416c-14.217-4.059-29.998-5.101-47.26-3.092c-21.711,2.519-39.013,9.257-45.24,11.937
	c-0.447-8.851-3.44-37.417-23.287-57.523c-11.95-12.1-27.848-19.154-47.364-21.049c-7.02,6.178-15.053,11.226-23.824,14.865
	c-0.026,0.063-0.056,0.133-0.082,0.194c23.371,0.52,42.105,7.76,55.717,21.543c19.847,20.106,22.84,48.672,23.287,57.523
	c6.228-2.68,23.529-9.418,45.24-11.937c31.071-3.617,57.353,2.64,78.329,18.611C484.257,487.167,479.084,476.792,475.837,465.416z"
	/>
<path style="fill:#64C37D;" d="M192.438,185.078c28.126,8.852,50.011,31.781,57.376,60.534c2.045-0.146,4.102-0.246,6.183-0.246
	c2.084,0,4.144,0.1,6.191,0.246c7.191-28.077,28.228-50.596,55.399-59.884c-2.86-7.769-4.291-15.748-4.24-23.907
	c0.183-28.251,18.265-50.567,24.208-57.141c-6.299-2.508-23.298-9.977-40.431-23.549c-24.527-19.413-38.687-42.421-42.227-68.548
	c-3.528,26.031-17.604,48.974-41.974,68.346c-17.015,13.534-34.365,21.196-40.694,23.744c5.938,6.572,24.035,28.91,24.218,57.151
	C196.496,169.755,195.139,177.516,192.438,185.078z"/>
<path style="fill:#FFFFFF;" d="M192.438,185.078c4.407,1.388,8.664,3.114,12.732,5.161c4.088-9.179,6.12-18.67,6.059-28.416
	c-0.183-28.241-18.279-50.578-24.218-57.151c6.328-2.547,23.679-10.21,40.694-23.742C243.679,68.232,255.23,54,262.286,38.368
	c-3.708-8.214-6.175-16.815-7.39-25.784c-3.528,26.031-17.604,48.974-41.974,68.346c-17.015,13.533-34.365,21.195-40.694,23.743
	c5.938,6.572,24.035,28.91,24.218,57.151C196.496,169.755,195.139,177.516,192.438,185.078z"/>
<path style="fill:#49AA60;" d="M275.128,81.133c17.133,13.572,34.132,21.041,40.431,23.549c-5.943,6.574-24.025,28.89-24.209,57.141
	c-0.07,11.242,2.657,22.142,8.1,32.616c5.636-3.575,11.712-6.513,18.135-8.71c-2.86-7.769-4.291-15.748-4.24-23.907
	c0.183-28.251,18.265-50.567,24.208-57.141c-6.299-2.508-23.298-9.977-40.431-23.549c-24.527-19.413-38.687-42.421-42.227-68.548
	c-1.574,11.611-5.252,22.605-11,32.944C251.08,58.451,261.501,70.347,275.128,81.133z"/>
<path style="fill:#64C37D;" d="M172.82,352.597c-2.045,0.146-4.102,0.246-6.183,0.246c-26.058,0-49.388-11.625-65.134-29.953
	c-3.596,10.378-9.148,19.327-16.656,26.743c-20.099,19.84-48.69,22.839-57.536,23.287c2.674,6.276,9.524,23.963,11.987,45.563
	c3.534,30.93-2.736,57.106-18.648,78.007c20.977-15.971,47.259-22.228,78.329-18.611c21.711,2.519,39.013,9.257,45.24,11.937
	c0.447-8.851,3.44-37.417,23.287-57.523c13.612-13.782,32.346-21.023,55.717-21.543c-0.025-0.059-0.053-0.126-0.079-0.187
	C198.444,400.323,179.556,378.898,172.82,352.597z"/>
<path style="fill:#FFFFFF;" d="M111.999,333.217c-3.792-3.131-7.293-6.599-10.498-10.328c-3.596,10.378-9.148,19.327-16.656,26.743
	c-20.099,19.84-48.69,22.839-57.536,23.287c2.674,6.276,9.524,23.963,11.987,45.563c3.534,30.93-2.736,57.106-18.648,78.007
	c7.201-5.482,15.027-9.82,23.457-13.006c6.063-16.042,7.96-34.274,5.644-54.548c-2.463-21.601-9.313-39.287-11.987-45.563
	c8.847-0.448,37.437-3.447,57.536-23.287C102.837,352.639,108.404,343.649,111.999,333.217z"/>
<path style="fill:#49AA60;" d="M199.309,395.691c-19.513,1.897-35.41,8.951-47.358,21.048
	c-19.847,20.106-22.84,48.672-23.287,57.523c-6.228-2.68-23.529-9.418-45.24-11.937c-17.261-2.01-33.042-0.966-47.26,3.092
	c-3.246,11.375-8.419,21.75-15.516,31.073c20.977-15.971,47.259-22.228,78.329-18.611c21.711,2.519,39.013,9.257,45.24,11.937
	c0.447-8.851,3.44-37.417,23.287-57.523c13.612-13.782,32.346-21.023,55.717-21.543c-0.025-0.06-0.054-0.129-0.08-0.191
	C214.367,406.921,206.331,401.871,199.309,395.691z"/>
<circle style="fill:#D80027;" cx="345.368" cy="266.983" r="85.861"/>
<g>
	<path style="fill:#FFFFFF;" d="M339.174,352.596c2.047,0.146,4.106,0.246,6.191,0.246c2.958,0,5.88-0.15,8.761-0.441
		c-4.896-0.496-9.663-1.425-14.282-2.708C339.631,350.664,339.42,351.637,339.174,352.596z"/>
	<path style="fill:#FFFFFF;" d="M279.041,248.521c7.841-35.767,37.958-63.194,75.086-66.956c-2.881-0.291-5.803-0.443-8.761-0.443
		c-40.041,0-73.679,27.411-83.178,64.491C267.984,246.027,273.62,247.013,279.041,248.521z"/>
</g>
<path style="fill:#BC052F;" d="M345.365,181.122c-4.368,0-8.658,0.332-12.85,0.961c41.323,6.202,73.011,41.848,73.011,84.899
	s-31.687,78.697-73.011,84.899c4.193,0.629,8.482,0.961,12.85,0.961c47.419,0,85.86-38.441,85.86-85.86
	S392.784,181.122,345.365,181.122z"/>
<circle style="fill:#D80027;" cx="166.633" cy="266.983" r="85.861"/>
<path style="fill:#FFFFFF;" d="M98.299,266.982c0-44.462,33.795-81.03,77.099-85.418c-2.881-0.291-5.803-0.441-8.761-0.441
	c-47.419,0-85.86,38.441-85.86,85.86s38.441,85.86,85.86,85.86c2.958,0,5.88-0.15,8.761-0.441
	C132.093,348.011,98.299,311.443,98.299,266.982z"/>
<path style="fill:#BC052F;" d="M225.313,251.035c7.697-2.947,15.923-4.811,24.5-5.422c-9.499-37.08-43.136-64.491-83.177-64.491
	c-4.368,0-8.658,0.332-12.85,0.96C189.878,187.5,218.615,215.379,225.313,251.035z"/>
<circle style="fill:#D80027;" cx="256.001" cy="331.226" r="85.861"/>
<path style="fill:#FFFFFF;" d="M187.659,331.226c0-44.461,33.795-81.03,77.099-85.418c-2.881-0.291-5.803-0.441-8.761-0.441
	c-47.419,0-85.86,38.44-85.86,85.86c0,47.419,38.44,85.86,85.86,85.86c2.958,0,5.88-0.15,8.761-0.441
	C221.454,412.256,187.659,375.688,187.659,331.226z"/>
<path style="fill:#BC052F;" d="M255.996,245.367c-4.368,0-8.657,0.332-12.85,0.961c41.323,6.203,73.011,41.848,73.011,84.899
	s-31.687,78.698-73.011,84.899c4.193,0.629,8.483,0.96,12.85,0.96c47.419,0,85.86-38.441,85.86-85.86
	C341.857,283.807,303.417,245.367,255.996,245.367z"/>
<path d="M506.094,499.547c-20.092-20.092-28.392-46.985-24.666-79.932c2.864-25.338,12.109-44.877,12.199-45.063l5.519-11.5
	l-12.762,0.143c-0.153,0.008-13.861,0.09-29.152-5.603c-17.902-6.664-30.314-18.163-37.006-34.19
	c11.871-15.711,18.92-35.257,18.92-56.42c0-51.711-42.07-93.781-93.781-93.781c-6.98,0-13.805,0.776-20.397,2.235
	c-3.094-13.851-1.025-28.234,6.229-42.872c6.684-13.486,15.438-22.126,15.514-22.2l9.21-8.927l-12.106-4.237
	C343.018,96.922,264.247,68.561,264.247,0h-1.768h-14.074h-1.768c0,28.415-13.147,53.3-39.079,73.963
	c-19.942,15.89-40.296,23.169-40.491,23.237l-12.035,4.229l9.127,8.923c0.315,0.308,29.472,29.349,21.81,64.861
	c-6.265-1.319-12.736-2.012-19.332-2.012c-51.711,0-93.781,42.07-93.781,93.781c0,21.168,7.053,40.718,18.928,56.43
	c-6.733,16.125-19.267,27.658-37.333,34.3c-15.149,5.568-28.698,5.497-28.814,5.484l-12.824-0.201l5.564,11.557
	c0.366,0.759,36.013,76.515-12.468,124.995l11.203,11.201l0,0l1.25,1.25c20.091-20.092,46.983-28.393,79.932-24.666
	c25.337,2.864,44.877,12.109,45.063,12.199l11.556,5.565l-0.2-12.825c-0.005-0.319-0.258-32.127,20.515-53.227
	c12.218-12.409,29.519-18.714,51.423-18.746c9.237,3.051,19.102,4.708,29.347,4.708c10.246,0,20.111-1.657,29.348-4.708
	c21.854,0.03,39.128,6.304,51.34,18.654c20.726,20.959,20.609,53.013,20.606,53.318l-0.2,12.825l11.556-5.565
	c0.759-0.366,76.514-36.012,124.994,12.468l1.25-1.25l0,0L506.094,499.547z M423.305,266.982c0,41.828-33.125,76.053-74.518,77.852
	c0.648-4.444,0.991-8.986,0.991-13.607c0-46.038-33.345-84.434-77.153-92.304c11.437-29.787,40.12-49.88,72.74-49.88
	C388.341,189.043,423.305,224.006,423.305,266.982z M182.798,107.738c8.597-4.022,21.383-10.896,34.239-21.074
	c18.169-14.384,31.094-31.175,38.404-49.626c7.311,18.451,20.235,35.242,38.404,49.626c12.854,10.177,25.64,17.051,34.237,21.074
	c-10.214,13.266-26.125,40.287-18.284,72.444c-19.947,8.152-36.628,23.001-46.967,42.174V83.459h-15.842v135.134
	c-10.629-17.63-26.792-31.252-45.814-38.795C208.788,147.805,192.967,120.949,182.798,107.738z M166.636,189.043
	c32.488,0,61.271,20.134,72.727,49.882c-43.803,7.873-77.145,46.267-77.145,92.303c0,4.622,0.342,9.163,0.991,13.607
	c-41.39-1.803-74.51-36.026-74.51-77.852C88.697,224.006,123.66,189.043,166.636,189.043z M163.938,427.931
	c-16.984,17.251-22.473,39.641-24.239,53.032c-8.921-3.236-22.831-7.419-39.129-9.315c-23.02-2.678-44.03,0.057-62.248,7.935
	c7.877-18.217,10.612-39.228,7.936-62.247c-1.896-16.304-6.084-30.22-9.319-39.141c6.069-0.804,13.988-2.37,22.425-5.415
	c19.902-7.183,34.873-19.765,43.92-36.716c12.145,11.146,27.225,19.139,43.935,22.67l-82.048,82.048l11.202,11.201l90.762-90.762
	c6.329,18.699,18.409,34.769,34.121,46.103C186.452,410.889,173.947,417.764,163.938,427.931z M178.058,331.226
	c0-42.975,34.962-77.938,77.938-77.938s77.94,34.963,77.94,77.938c0,42.976-34.963,77.94-77.94,77.94
	S178.058,374.203,178.058,331.226z M411.431,471.649c-16.298,1.895-30.208,6.079-39.129,9.315
	c-1.766-13.392-7.254-35.781-24.239-53.032c-10.012-10.169-22.517-17.043-37.324-20.607c15.713-11.335,27.792-27.406,34.121-46.107
	l90.767,90.767l11.202-11.201l-82.048-82.048c16.703-3.531,31.78-11.519,43.923-22.661c8.987,16.842,23.826,29.358,43.548,36.567
	c8.58,3.137,16.647,4.738,22.808,5.553c-3.235,8.921-7.422,22.837-9.319,39.141c-2.676,23.019,0.058,44.029,7.936,62.247
	C455.461,471.705,434.449,468.97,411.431,471.649z"/>
<g>
</g>
<g>
</g>
<g>
</g>
<g>
</g>
<g>
</g>
<g>
</g>
<g>
</g>
<g>
</g>
<g>
</g>
<g>
</g>
<g>
</g>
<g>
</g>
<g>
</g>
<g>
</g>
<g>
</g>
</svg>
