<?xml version="1.0" encoding="iso-8859-1"?>
<!-- Generator: Adobe Illustrator 19.0.0, SVG Export Plug-In . SVG Version: 6.00 Build 0)  -->
<svg version="1.1" id="Layer_1" xmlns="http://www.w3.org/2000/svg" xmlns:xlink="http://www.w3.org/1999/xlink" x="0px" y="0px"
	 viewBox="0 0 512 512" style="enable-background:new 0 0 512 512;" xml:space="preserve">
<rect x="92.973" y="262.823" style="fill:#F5E0CD;" width="272.98" height="71.565"/>
<rect x="92.973" y="262.823" style="fill:#FFFFFF;" width="21.316" height="71.565"/>
<rect x="333.107" y="262.823" style="fill:#F0D0B4;" width="32.852" height="71.565"/>
<rect x="72.565" y="185.112" style="fill:#FFFFFF;" width="317.721" height="77.711"/>
<rect x="333.055" y="185.112" style="fill:#E6E6E6;" width="57.228" height="77.711"/>
<path style="fill:#BC052F;" d="M373.262,69.607c-3.873-4.917-6.563-10.804-7.643-17.241H194.596l-99.562,132.75h272.774
	l-45.99-61.321L373.262,69.607z"/>
<polygon style="fill:#D80027;" points="268.242,52.365 194.593,52.365 95.036,185.119 367.808,185.119 "/>
<polygon style="fill:#FFFFFF;" points="194.593,52.365 95.036,185.118 116.079,185.118 215.636,52.365 "/>
<polygon style="fill:#BC052F;" points="268.242,52.365 235.116,52.365 334.681,185.118 367.808,185.118 "/>
<path style="fill:#FFFFFF;" d="M229.403,504.187L229.403,504.187c-87.737,0-158.861-71.124-158.861-158.861v-10.938h317.721v10.938
	C388.264,433.063,317.14,504.187,229.403,504.187z"/>
<path style="fill:#E6E6E6;" d="M353.887,334.389v10.938c0,81.928-62.021,149.361-141.672,157.932
	c5.647,0.607,11.38,0.928,17.188,0.928l0,0c87.737,0,158.861-71.125,158.861-158.861v-10.938H353.887z"/>
<circle style="fill:#FFFFFF;" cx="403.266" cy="46.002" r="38.188"/>
<path style="fill:#E6E6E6;" d="M403.268,7.813c-3.754,0-7.377,0.551-10.805,1.56c15.827,4.662,27.383,19.291,27.383,36.629
	s-11.557,31.966-27.383,36.628c3.427,1.009,7.05,1.56,10.805,1.56c21.09,0,38.188-17.098,38.188-38.188
	C441.457,24.91,424.359,7.813,403.268,7.813z"/>
<path d="M373.772,285.428h-15.626v41.148H253.883v15.626h126.568v3.125c0,83.288-67.76,151.048-151.048,151.048
	c-32.989,0-64.327-10.441-90.626-30.195l-9.384,12.494C158.419,500.477,193.003,512,229.403,512
	c91.905,0,166.673-74.769,166.673-166.673v-18.751h-22.304V285.428z"/>
<path d="M172.403,294.264c6.605,0,11.98,5.374,11.98,11.98h15.626c0-15.221-12.384-27.605-27.605-27.605
	s-27.605,12.384-27.605,27.605h15.626C160.423,299.639,165.797,294.264,172.403,294.264z"/>
<path d="M286.536,294.264c6.605,0,11.98,5.374,11.98,11.98h15.626c0-15.221-12.384-27.605-27.605-27.605
	c-15.221,0-27.605,12.384-27.605,27.605h15.626C274.556,299.639,279.93,294.264,286.536,294.264z"/>
<rect x="219.509" y="326.576" width="22.918" height="15.626"/>
<path d="M78.355,342.201h128.651v-15.626H100.791v-41.148H85.165v41.148H62.73v18.751c0,44.713,17.467,86.698,49.182,118.219
	l11.015-11.083c-28.742-28.566-44.572-66.615-44.572-107.137V342.201z"/>
<path d="M183.431,423.251c12.692,12.692,29.364,19.037,46.036,19.037c16.674,0,33.346-6.346,46.037-19.037l-11.047-11.049
	c-19.292,19.291-50.683,19.293-69.979,0L183.431,423.251z"/>
<path d="M332.028,124.387l32.876-34.63l-11.333-10.759l-31.053,32.71L283.871,60.18h60.641V44.554H190.69L91.128,177.303h-26.38
	v93.333h333.347v-93.333h-26.379L332.028,124.387z M198.503,60.18h65.836l87.843,117.125H110.66L198.503,60.18z M382.469,255.01
	h-26.431v-25.314h-15.626v25.314h-23.959v-25.314h-15.626v25.314h-23.959v-25.314h-15.626v25.314h-23.959v-25.314h-15.626v25.314
	h-23.959v-25.314h-15.626v25.314h-23.959v-25.314h-15.626v25.314h-23.959v-25.314h-15.626v25.314H80.373v-62.082h302.096V255.01z"/>
<path d="M403.268,0c-25.366,0-46.001,20.636-46.001,46.001s20.636,46.001,46.001,46.001c25.365,0,46.002-20.636,46.002-46.001
	S428.633,0,403.268,0z M403.268,76.376c-16.749,0-30.375-13.627-30.375-30.375s13.626-30.375,30.375-30.375
	c16.75,0,30.376,13.627,30.376,30.375S420.018,76.376,403.268,76.376z"/>
<g>
</g>
<g>
</g>
<g>
</g>
<g>
</g>
<g>
</g>
<g>
</g>
<g>
</g>
<g>
</g>
<g>
</g>
<g>
</g>
<g>
</g>
<g>
</g>
<g>
</g>
<g>
</g>
<g>
</g>
</svg>
