<?xml version="1.0" encoding="iso-8859-1"?>
<!-- Generator: Adobe Illustrator 19.0.0, SVG Export Plug-In . SVG Version: 6.00 Build 0)  -->
<svg version="1.1" id="Layer_1" xmlns="http://www.w3.org/2000/svg" xmlns:xlink="http://www.w3.org/1999/xlink" x="0px" y="0px"
	 viewBox="0 0 512 512" style="enable-background:new 0 0 512 512;" xml:space="preserve">
<rect x="7.837" y="81.241" style="fill:#D80027;" width="496.327" height="125.388"/>
<rect x="470.204" y="81.241" style="fill:#BC052F;" width="33.959" height="125.388"/>
<rect x="7.837" y="81.241" style="fill:#FFFFFF;" width="22.465" height="125.388"/>
<polygon style="fill:#49AA60;" points="272.718,81.241 272.718,298.58 318.694,298.58 318.694,394.188 444.082,394.188 
	444.082,81.241 "/>
<rect x="272.718" y="81.241" style="fill:#FFFFFF;" width="22.988" height="217.339"/>
<rect x="318.694" y="81.241" style="fill:#64C37D;" width="125.388" height="312.947"/>
<rect x="318.694" y="81.241" style="fill:#FFFFFF;" width="22.988" height="312.947"/>
<rect x="409.6" y="81.241" style="fill:#49AA60;" width="34.482" height="312.947"/>
<rect x="318.694" y="335.151" style="fill:#FFFFFF;" width="125.388" height="59.037"/>
<path d="M0,73.404v141.061h249.731v-15.673H15.673V89.078h29.447v39.184h15.673V89.078h29.447v39.184h15.673V89.078h29.448v39.184
	h15.673V89.078h29.447v39.184h15.673V89.078h29.447v39.184h15.673V89.078h23.603v217.339h30.824v-15.673h-15.151V89.078h155.69
	v238.237H326.531V179.461h-15.673v259.135h15.673v-36.571h15.673v36.571h15.673v-36.571h15.673v36.571h15.673v-36.571h15.673v36.571
	h15.673v-36.571h15.673v36.571h15.673V89.078h44.408v109.714h-29.257v15.673H512V73.404H0z M436.245,386.351h-15.673v-14.629
	h-15.673v14.629h-15.673v-14.629h-15.673v14.629h-15.673v-14.629h-15.673v14.629h-15.673v-14.629v-28.735h109.714v28.735V386.351z"
	/>
<rect x="310.857" y="126.171" width="15.673" height="30.302"/>
<g>
</g>
<g>
</g>
<g>
</g>
<g>
</g>
<g>
</g>
<g>
</g>
<g>
</g>
<g>
</g>
<g>
</g>
<g>
</g>
<g>
</g>
<g>
</g>
<g>
</g>
<g>
</g>
<g>
</g>
</svg>
