<?xml version="1.0" encoding="iso-8859-1"?>
<!-- Generator: Adobe Illustrator 19.0.0, SVG Export Plug-In . SVG Version: 6.00 Build 0)  -->
<svg version="1.1" id="Layer_1" xmlns="http://www.w3.org/2000/svg" xmlns:xlink="http://www.w3.org/1999/xlink" x="0px" y="0px"
	 viewBox="0 0 512 512" style="enable-background:new 0 0 512 512;" xml:space="preserve">
<rect x="55.607" y="154.754" style="fill:#FFDA44;" width="331.541" height="349.377"/>
<rect x="352.525" y="154.754" style="fill:#EDC10C;" width="34.623" height="349.377"/>
<g>
	<rect x="55.607" y="454.82" style="fill:#FFFFFF;" width="331.541" height="49.311"/>
	<rect x="55.607" y="154.754" style="fill:#FFFFFF;" width="23.082" height="349.377"/>
</g>
<rect x="352.525" y="454.82" style="fill:#FFDA44;" width="34.623" height="49.311"/>
<rect x="352.525" y="454.82" style="fill:#E6E6E6;" width="34.623" height="49.311"/>
<rect x="387.148" y="154.754" style="fill:#EDC10C;" width="69.246" height="349.377"/>
<path d="M395.016,146.885h-7.869h-25.705V94.426C361.443,42.36,319.083,0,267.016,0c-7.867,0-15.509,0.973-22.82,2.794
	C236.886,0.973,229.244,0,221.377,0c-52.067,0-94.426,42.36-94.426,94.426v52.459H47.738V512h338.361h8.918h69.246V146.885H395.016z
	 M448.525,485.659l-19.148-19.148V162.623h19.148V485.659z M421.246,480.636l15.626,15.626H405.62L421.246,480.636z
	 M413.639,162.623v303.364l-18.623,18.623V162.623H413.639z M345.705,94.426v52.459h-29.902V94.426
	c0-32.596-16.603-61.385-41.795-78.361C314.132,19.618,345.705,53.395,345.705,94.426z M244.197,19.123
	c32.294,9.806,55.869,39.848,55.869,75.303v52.459H188.328V94.426C188.328,58.971,211.903,28.929,244.197,19.123z M142.689,94.426
	c0-41.031,31.573-74.809,71.697-78.361C189.192,33.041,172.59,61.83,172.59,94.426v52.459h-29.902V94.426z M126.951,162.623v32
	h15.738v-32h157.377v32h15.738v-32h63.475v284.328H63.475V162.623H126.951z M63.475,496.262v-33.574h315.803v33.574H63.475z"/>
<g>
</g>
<g>
</g>
<g>
</g>
<g>
</g>
<g>
</g>
<g>
</g>
<g>
</g>
<g>
</g>
<g>
</g>
<g>
</g>
<g>
</g>
<g>
</g>
<g>
</g>
<g>
</g>
<g>
</g>
</svg>
