<?xml version="1.0" encoding="iso-8859-1"?>
<!-- Generator: Adobe Illustrator 19.0.0, SVG Export Plug-In . SVG Version: 6.00 Build 0)  -->
<svg version="1.1" id="Layer_1" xmlns="http://www.w3.org/2000/svg" xmlns:xlink="http://www.w3.org/1999/xlink" x="0px" y="0px"
	 viewBox="0 0 512 512" style="enable-background:new 0 0 512 512;" xml:space="preserve">
<rect x="70.63" y="378.554" style="fill:#FFDA44;" width="315.077" height="31.376"/>
<polygon style="fill:#64C37D;" points="262.827,280.878 365.227,280.878 365.227,214.104 215.943,214.104 "/>
<polygon style="fill:#FFFFFF;" points="262.827,280.878 193.51,182.154 23.368,182.154 23.368,216.812 170.404,216.812 
	239.721,315.536 409.863,315.536 409.863,280.878 "/>
<rect x="332.406" y="214.105" style="fill:#49AA60;" width="32.821" height="66.775"/>
<polygon style="fill:#64C37D;" points="385.444,214.104 385.444,182.154 193.51,182.154 215.943,214.104 "/>
<rect x="332.406" y="182.156" style="fill:#49AA60;" width="53.038" height="31.951"/>
<rect x="268.341" y="164.48" style="fill:#FFDA44;" width="31.508" height="116.4"/>
<polyline style="fill:#D80027;" points="215.04,92.882 215.04,182.154 52.775,182.154 52.775,92.882 "/>
<rect x="52.775" y="92.884" style="fill:#FFFFFF;" width="21.793" height="89.272"/>
<rect x="182.219" y="92.884" style="fill:#BC052F;" width="32.821" height="89.272"/>
<rect x="32.558" y="60.935" style="fill:#D80027;" width="202.699" height="31.951"/>
<rect x="118.154" y="43.26" style="fill:#FFDA44;" width="31.508" height="138.896"/>
<rect x="32.558" y="60.935" style="fill:#FFFFFF;" width="23.106" height="31.951"/>
<rect x="182.219" y="60.935" style="fill:#BC052F;" width="53.038" height="31.951"/>
<polygon style="fill:#D80027;" points="193.51,182.154 46.474,182.154 46.474,378.552 409.863,378.552 409.863,280.878 
	262.827,280.878 "/>
<rect x="46.474" y="182.156" style="fill:#FFFFFF;" width="22.843" height="196.398"/>
<rect x="375.992" y="280.88" style="fill:#BC052F;" width="33.871" height="97.674"/>
<polygon style="fill:#FFFFFF;" points="262.827,280.878 193.51,182.154 23.368,182.154 23.368,216.812 170.404,216.812 
	239.721,315.536 409.863,315.536 409.863,280.878 "/>
<rect x="375.992" y="280.88" style="fill:#E6E6E6;" width="33.871" height="34.658"/>
<path d="M38.597,386.429h379.143V273.001h-44.636v-35.84H357.35v35.84h-49.625v-51.019h85.596v-47.705h-85.596v-17.674h-47.262
	v17.674h-37.547v-58.339h-15.754v58.339h-49.625v-73.518h85.596V53.054h-85.596V35.381h-47.262v17.674H24.681v47.705h85.596v73.518
	H60.652v-58.339H44.898v58.339H15.491v50.412h23.106V386.429z M401.986,370.675H54.351V224.689H166.31l69.317,98.724h166.359
	V370.675z M377.567,190.031v16.197h-69.842v-16.197H377.567z M291.971,172.356V273h-15.754V172.356L291.971,172.356L291.971,172.356
	z M260.464,263.804l-29.365-41.822h29.365V263.804z M222.917,190.031h37.547v16.197h-40.426l-11.372-16.197H222.917z
	 M227.381,68.808v16.197h-69.842V68.808H227.381z M40.435,85.005V68.808h69.842v16.197C110.277,85.005,40.435,85.005,40.435,85.005z
	 M126.031,51.134h15.754v123.143h-15.754V51.134z M31.245,208.935v-18.905h13.653h144.517l69.317,98.724h143.253v18.905H243.815
	l-69.317-98.724L31.245,208.935L31.245,208.935z"/>
<path d="M489.975,346.8c-14.189-14.151-33.129-21.944-53.331-21.944v15.754c16.002,0,30.992,6.16,42.208,17.345
	c11.218,11.187,17.395,26.147,17.395,42.126v0.197c0,33.408-26.62,60.587-59.339,60.587h-92.685v-28.964h-15.754v28.964h-18.905
	v-28.57H293.81v28.57H162.528v-27.52h-15.754v27.52H127.87v-27.52h-15.754v27.52H0v15.754h436.907
	c41.406,0,75.093-34.246,75.093-76.341v-0.197C512,379.888,504.179,360.965,489.975,346.8z"/>
<polygon points="62.753,395.536 62.753,417.805 393.584,417.805 393.584,395.536 377.83,395.536 377.83,402.051 78.507,402.051 
	78.507,395.536 "/>
<g>
</g>
<g>
</g>
<g>
</g>
<g>
</g>
<g>
</g>
<g>
</g>
<g>
</g>
<g>
</g>
<g>
</g>
<g>
</g>
<g>
</g>
<g>
</g>
<g>
</g>
<g>
</g>
<g>
</g>
</svg>
