<?xml version="1.0" encoding="iso-8859-1"?>
<!-- Generator: Adobe Illustrator 19.0.0, SVG Export Plug-In . SVG Version: 6.00 Build 0)  -->
<svg version="1.1" id="Layer_1" xmlns="http://www.w3.org/2000/svg" xmlns:xlink="http://www.w3.org/1999/xlink" x="0px" y="0px"
	 viewBox="0 0 512 512" style="enable-background:new 0 0 512 512;" xml:space="preserve">
<path style="fill:#BC052F;" d="M426.776,114.819V20.113H323.063c-6.02,46.177-45.48,81.844-93.298,81.844
	s-87.278-35.668-93.298-81.844H32.755v484.05h446.489V114.819H426.776z"/>
<path style="fill:#D80027;" d="M323.064,20.113c-6.02,46.177-45.48,81.844-93.298,81.844s-87.278-35.668-93.298-81.844H32.755
	v484.05h394.022V20.113H323.064z"/>
<rect x="389.141" y="20.113" style="fill:#BC052F;" width="37.637" height="484.049"/>
<g>
	<path style="fill:#64C37D;" d="M136.467,20.113H32.758v113.997L136.677,21.797l0.023-0.023
		C136.618,21.224,136.537,20.674,136.467,20.113z"/>
	<path style="fill:#64C37D;" d="M323.059,20.113c-0.047,0.374-0.094,0.737-0.153,1.099l0.023,0.036l103.848,112.864V20.113H323.059z
		"/>
	<path style="fill:#64C37D;" d="M426.779,20.113v113.997l-37.636-40.898l-66.212-71.964l-0.023-0.036
		c0.059-0.363,0.106-0.725,0.153-1.099C323.06,20.113,426.779,20.113,426.779,20.113z"/>
	<polygon style="fill:#64C37D;" points="426.779,20.113 426.779,134.111 389.143,93.212 389.143,20.113 	"/>
</g>
<polygon style="fill:#49AA60;" points="426.779,20.113 426.779,134.111 389.143,93.212 389.143,20.113 "/>
<polygon style="fill:#64C37D;" points="426.776,187.602 377.158,237.22 327.686,187.747 278.727,236.708 229.766,187.747 
	180.148,237.366 130.676,187.894 81.715,236.854 32.755,187.894 32.755,285.815 32.463,286.107 32.755,286.399 32.755,384.32 
	81.715,335.36 130.676,384.32 180.148,334.848 229.766,384.466 278.727,335.506 327.686,384.466 377.158,334.994 426.776,384.612 
	"/>
<polygon style="fill:#49AA60;" points="426.779,187.602 426.779,384.612 389.143,346.976 389.143,225.238 "/>
<rect x="32.755" y="20.113" style="fill:#FFFFFF;" width="25.503" height="484.049"/>
<path style="fill:#64C37D;" d="M323.887,7.837c0,51.982-42.14,94.121-94.121,94.121s-94.121-42.14-94.121-94.121h40.337
	c0,29.703,24.08,53.783,53.783,53.783s53.784-24.08,53.784-53.783H323.887z"/>
<path style="fill:#BC052F;" d="M175.983,7.837c0,29.703,24.08,53.783,53.783,53.783s53.783-24.08,53.783-53.783"/>
<path style="fill:#FFFFFF;" d="M40.592,305.319l30.041,30.041L40.592,365.4v22.168l41.123-41.124l48.96,48.96l49.472-49.472
	l49.618,49.618l48.96-48.96l48.961,48.96l49.472-49.472l41.781,41.782v-22.168l-30.697-30.698l30.698-30.698v-36.377l-30.698-30.698
	l30.698-30.698v-22.167l-41.781,41.782l-49.472-49.472l-48.961,48.96l-48.96-48.96l-49.618,49.618l-49.472-49.472l-48.96,48.959
	l-41.123-41.124v22.167l30.041,30.04l-30.041,30.041v38.424H40.592z M130.676,373.238L92.798,335.36l38.388-38.39l37.878,37.878
	L130.676,373.238z M229.766,373.384l-38.535-38.535l37.878-37.878l38.535,38.535L229.766,373.384z M327.686,373.384l-37.878-37.878
	l38.39-38.39l37.878,37.878L327.686,373.384z M377.158,248.302l37.804,37.804l-37.804,37.804l-37.804-37.804L377.158,248.302z
	 M327.686,198.83l38.39,38.39l-37.878,37.878l-38.39-38.39L327.686,198.83z M317.042,286.108l-38.316,38.316l-38.316-38.316
	l38.316-38.316L317.042,286.108z M229.766,198.83l37.878,37.878l-38.535,38.535l-37.878-37.878L229.766,198.83z M217.807,286.108
	l-37.658,37.658l-37.659-37.658l37.659-37.659L217.807,286.108z M130.676,198.977l38.39,38.39l-37.878,37.878l-38.389-38.39
	L130.676,198.977z M81.715,247.938l38.17,38.17l-38.17,38.17l-38.17-38.17L81.715,247.938z"/>
<path d="M449.16,106.982v15.673h22.248v373.671H40.592V137.179l91.77-99.184c12.89,41.542,51.679,71.798,97.403,71.798
	c45.88,0,84.776-30.465,97.531-72.226l91.643,99.6v315.551h15.673V12.277H331.62c0.064-1.472,0.102-2.952,0.102-4.44V0H127.809
	v7.837c0,1.488,0.039,2.968,0.102,4.44H24.919V512h462.163V106.982H449.16z M418.939,114.018L339.747,27.95h79.192V114.018z
	 M275.031,15.673c-3.731,21.614-22.601,38.111-45.265,38.111c-22.663,0-41.534-16.497-45.265-38.111H275.031z M168.641,15.673
	c3.862,30.291,29.8,53.784,61.124,53.784s57.263-23.493,61.124-53.784h24.806c-3.974,43.917-40.996,78.447-85.93,78.447
	s-81.957-34.53-85.93-78.447H168.641z M120.304,27.95l-79.712,86.152V27.95H120.304z"/>
<g>
</g>
<g>
</g>
<g>
</g>
<g>
</g>
<g>
</g>
<g>
</g>
<g>
</g>
<g>
</g>
<g>
</g>
<g>
</g>
<g>
</g>
<g>
</g>
<g>
</g>
<g>
</g>
<g>
</g>
</svg>
