<?xml version="1.0" encoding="iso-8859-1"?>
<!-- Generator: Adobe Illustrator 19.0.0, SVG Export Plug-In . SVG Version: 6.00 Build 0)  -->
<svg version="1.1" id="Layer_1" xmlns="http://www.w3.org/2000/svg" xmlns:xlink="http://www.w3.org/1999/xlink" x="0px" y="0px"
	 viewBox="0 0 512 512" style="enable-background:new 0 0 512 512;" xml:space="preserve">
<path style="fill:#64C37D;" d="M256,123.568l-111.576,68.827v270.073h223.153V192.395L256,123.568z M256,235.145
	c-17.565,0-31.804-14.239-31.804-31.804s14.239-31.804,31.804-31.804s31.805,14.239,31.805,31.804S273.565,235.145,256,235.145z"/>
<polygon style="fill:#FFFFFF;" points="163.193,203.862 274.682,135.093 256,123.568 144.424,192.395 144.424,462.468 
	163.193,462.468 "/>
<polygon style="fill:#49AA60;" points="256,123.568 235.231,136.379 344.635,203.862 344.635,462.468 367.576,462.468 
	367.576,192.391 "/>
<rect x="144.424" y="462.468" style="fill:#FFFFFF;" width="223.153" height="41.711"/>
<rect x="344.635" y="462.468" style="fill:#E6E6E6;" width="22.941" height="41.711"/>
<g>
	<line style="fill:none;stroke:#FFFFFF;stroke-width:15;stroke-miterlimit:10;" x1="256" y1="262.257" x2="256" y2="414.501"/>
	<polyline style="fill:none;stroke:#FFFFFF;stroke-width:15;stroke-miterlimit:10;" points="283.292,278.33 256,305.621 
		228.708,278.33 	"/>
	<polyline style="fill:none;stroke:#FFFFFF;stroke-width:15;stroke-miterlimit:10;" points="228.708,398.428 256,371.136 
		283.292,398.428 	"/>
	
		<line style="fill:none;stroke:#FFFFFF;stroke-width:15;stroke-miterlimit:10;" x1="332.122" y1="338.379" x2="179.878" y2="338.379"/>
	<polyline style="fill:none;stroke:#FFFFFF;stroke-width:15;stroke-miterlimit:10;" points="316.049,365.671 288.758,338.379 
		316.049,311.086 	"/>
	<polyline style="fill:none;stroke:#FFFFFF;stroke-width:15;stroke-miterlimit:10;" points="195.951,311.086 223.242,338.379 
		195.951,365.671 	"/>
</g>
<path d="M289.399,134.981c0.743-9.264,1.143-18.853,1.143-28.619c0-26.993-2.876-52.465-8.099-71.726
	C276.211,11.654,267.314,0,256,0c-11.314,0-20.211,11.654-26.443,34.637c-5.223,19.261-8.099,44.734-8.099,71.726
	c0,9.823,0.386,19.438,1.122,28.632l-85.977,53.035v251.497h15.642V196.759l72.205-44.54c1.117,8.057,2.53,15.613,4.228,22.462
	c-7.57,7.221-12.303,17.394-12.303,28.657c0,21.849,17.776,39.625,39.625,39.625s39.625-17.776,39.625-39.625
	S277.849,163.714,256,163.714c-4.655,0-9.121,0.813-13.273,2.294c-1.509-6.98-2.731-14.656-3.648-22.814L256,132.756l103.756,64.002
	v242.769h15.642V188.03L289.399,134.981z M256,227.324c-13.225,0-23.984-10.758-23.984-23.984c0-3.822,0.903-7.434,2.5-10.644
	c5.696,13.301,12.892,20.028,21.484,20.028c8.59,0,15.786-6.73,21.483-20.031c1.598,3.21,2.501,6.824,2.501,10.646
	C279.984,216.566,269.225,227.324,256,227.324z M265.155,181.176c-4.135,12.023-8.078,15.553-9.155,15.895
	c-1.112-0.349-5.04-3.922-9.154-15.895c2.823-1.17,5.914-1.82,9.154-1.82C259.241,179.356,262.332,180.006,265.155,181.176z
	 M237.631,125.71c-0.347-6.305-0.531-12.777-0.531-19.348c0-24.64,2.504-47.983,7.052-65.728
	c4.96-19.359,10.494-24.555,11.848-24.981c1.355,0.425,6.888,5.623,11.848,24.981c4.548,17.746,7.052,41.088,7.052,65.728
	c0,6.551-0.198,13.005-0.548,19.337L256,114.379L237.631,125.71z"/>
<path d="M136.603,512h238.794v-57.352H136.603V512z M270.495,496.358h-28.989v-26.069h28.989V496.358z M286.136,470.289h28.989
	v26.069h-28.989V470.289z M225.864,496.358h-28.989v-26.069h28.989V496.358z M359.756,496.358h-28.989v-26.069h28.989V496.358z
	 M152.244,470.289h28.989v26.069h-28.989V470.289z"/>
<polygon style="fill:#FFFFFF;" points="179.878,346.2 204.362,346.2 190.42,360.141 201.482,371.201 226.482,346.2 248.179,346.2 
	248.179,367.897 223.178,392.897 234.237,403.959 248.179,390.017 248.179,414.501 263.821,414.501 263.821,390.017 
	277.763,403.959 288.822,392.897 263.821,367.897 263.821,346.2 285.518,346.2 310.518,371.201 321.58,360.141 307.638,346.2 
	332.122,346.2 332.122,330.558 307.638,330.558 321.58,316.616 310.518,305.557 285.518,330.558 263.821,330.558 263.821,308.861 
	288.822,283.861 277.763,272.799 263.821,286.741 263.821,262.257 248.179,262.257 248.179,286.741 234.237,272.799 
	223.178,283.861 248.179,308.861 248.179,330.558 226.482,330.558 201.482,305.557 190.42,316.616 204.362,330.558 179.878,330.558 
	"/>
<g>
</g>
<g>
</g>
<g>
</g>
<g>
</g>
<g>
</g>
<g>
</g>
<g>
</g>
<g>
</g>
<g>
</g>
<g>
</g>
<g>
</g>
<g>
</g>
<g>
</g>
<g>
</g>
<g>
</g>
</svg>
