<?xml version="1.0" encoding="iso-8859-1"?>
<!-- Generator: Adobe Illustrator 19.0.0, SVG Export Plug-In . SVG Version: 6.00 Build 0)  -->
<svg version="1.1" id="Layer_1" xmlns="http://www.w3.org/2000/svg" xmlns:xlink="http://www.w3.org/1999/xlink" x="0px" y="0px"
	 viewBox="0 0 512 512" style="enable-background:new 0 0 512 512;" xml:space="preserve">
<rect x="47.02" y="7.837" style="fill:#FFDA44;" width="417.959" height="496.327"/>
<rect x="47.02" y="7.837" style="fill:#FFFFFF;" width="17.763" height="496.327"/>
<rect x="444.082" y="7.837" style="fill:#EDC10C;" width="20.898" height="496.327"/>
<rect x="84.114" y="51.89" style="fill:#E6E6E6;" width="343.771" height="408.221"/>
<g>
	<circle style="fill:#FFFFFF;" cx="182.857" cy="379.82" r="21.943"/>
	<circle style="fill:#FFFFFF;" cx="194.351" cy="322.873" r="13.584"/>
	<circle style="fill:#FFFFFF;" cx="310.335" cy="338.024" r="13.584"/>
	<circle style="fill:#FFFFFF;" cx="379.298" cy="315.037" r="13.584"/>
	<path style="fill:#FFFFFF;" d="M427.886,171.551v70.343h-157.78v-71.053c0.01,0.01-0.01,0.021,0,0.031
		C313.783,213.974,383.916,214.204,427.886,171.551z"/>
	<path style="fill:#FFFFFF;" d="M241.894,357.083V460.11H84.114V356.373c0.01,0.01,0.021,0.021,0.031,0.031
		C127.822,399.506,197.925,399.736,241.894,357.083z"/>
	<circle style="fill:#FFFFFF;" cx="138.971" cy="119.118" r="21.943"/>
	<path style="fill:#FFFFFF;" d="M127.478,213.682c-12.119,0-21.943,9.824-21.943,21.943h43.886
		C149.42,223.506,139.596,213.682,127.478,213.682z"/>
	<circle style="fill:#FFFFFF;" cx="173.453" cy="176.065" r="13.584"/>
	<circle style="fill:#FFFFFF;" cx="384.522" cy="98.22" r="21.943"/>
	<circle style="fill:#FFFFFF;" cx="327.053" cy="132.18" r="13.584"/>
</g>
<polygon style="fill:#64C37D;" points="427.886,241.894 270.106,241.894 270.106,51.89 241.894,51.89 241.894,241.894 
	84.114,241.894 84.114,270.106 241.894,270.106 241.894,460.11 270.106,460.11 270.106,270.106 427.886,270.106 "/>
<path style="fill:#FFFFFF;" d="M427.886,378.441v81.669h-157.78v-82.38c0.01,0.01-0.01,0.021,0,0.031
	C313.783,420.864,383.916,421.094,427.886,378.441z"/>
<path d="M39.184,0v512h433.633V0H39.184z M457.143,496.327H54.857V15.673h402.286V496.327z"/>
<path d="M194.351,301.453c-11.812,0-21.42,9.609-21.42,21.42c0,11.812,9.609,21.42,21.42,21.42s21.42-9.609,21.42-21.42
	C215.771,311.062,206.163,301.453,194.351,301.453z M194.351,328.62c-3.169,0-5.747-2.578-5.747-5.747
	c0-3.169,2.578-5.747,5.747-5.747s5.747,2.578,5.747,5.747C200.098,326.043,197.52,328.62,194.351,328.62z"/>
<path d="M310.335,316.604c-11.812,0-21.42,9.609-21.42,21.42s9.609,21.42,21.42,21.42c11.811,0,21.42-9.609,21.42-21.42
	S322.146,316.604,310.335,316.604z M310.335,343.771c-3.169,0-5.747-2.578-5.747-5.747s2.578-5.747,5.747-5.747
	s5.747,2.578,5.747,5.747S313.504,343.771,310.335,343.771z"/>
<path d="M379.298,293.616c-11.812,0-21.42,9.609-21.42,21.42c0,11.812,9.609,21.42,21.42,21.42s21.42-9.609,21.42-21.42
	C400.718,303.225,391.109,293.616,379.298,293.616z M379.298,320.784c-3.169,0-5.747-2.578-5.747-5.747s2.578-5.747,5.747-5.747
	s5.747,2.578,5.747,5.747S382.467,320.784,379.298,320.784z"/>
<path d="M435.722,452.274h-157.78v-57.536c20.448,15.06,45.075,23.255,70.912,23.359c0.164,0.001,0.328,0.001,0.493,0.001
	c25.699,0,50.247-8.015,70.701-22.856v42.049h15.673V44.053H76.278v223.963v9.927V437.29h15.673v-63.935
	c20.452,15.075,45.085,23.281,70.928,23.385c0.165,0,0.328,0.001,0.494,0.001c25.691-0.001,50.232-8.015,70.685-22.855v78.389
	H76.278v15.673h359.445V452.274z M349.346,402.424c-0.141,0-0.287,0-0.428,0c-26.547-0.106-51.621-10.033-70.975-28.014v-96.467
	h142.106v97.105C400.668,392.733,375.708,402.424,349.346,402.424z M277.943,187.848c20.448,15.06,45.075,23.255,70.912,23.359
	c0.164,0.001,0.328,0.001,0.493,0.001c25.699,0,50.247-8.015,70.701-22.856v45.706H277.943V187.848z M420.049,168.158
	c-19.381,17.685-44.341,27.375-70.703,27.375c-0.141,0-0.287,0-0.428,0c-26.547-0.106-51.621-10.032-70.975-28.014V59.726h142.106
	V168.158z M234.057,59.726v174.331h-76.842c-0.818-15.694-13.843-28.212-29.738-28.212s-28.92,12.518-29.738,28.212h-5.789V59.726
	H234.057z M141.492,234.057h-28.027c0.783-7.043,6.766-12.539,14.014-12.539S140.708,227.015,141.492,234.057z M168.751,379.82
	c0-7.778,6.328-14.106,14.106-14.106c6.376,0,11.771,4.254,13.511,10.071c-8.833,2.916-18.084,4.657-27.558,5.14
	C168.782,380.558,168.751,380.192,168.751,379.82z M210.877,369.74c-4.14-11.474-15.136-19.699-28.02-19.699
	c-16.421,0-29.78,13.359-29.78,29.78c0,0.25,0.014,0.498,0.02,0.747c-22.867-2.212-44.2-11.788-61.146-27.546v-75.079h142.106
	v75.747C227.002,360.128,219.209,365.504,210.877,369.74z M91.951,262.269v-12.539h157.78V59.726h12.539v109.326l-1.537,3.161
	l1.537,1.69v75.828h157.78v12.539h-157.78v190.004h-12.539V262.269H91.951z"/>
<path d="M138.971,148.898c16.421,0,29.78-13.359,29.78-29.78s-13.359-29.78-29.78-29.78s-29.78,13.359-29.78,29.78
	S122.551,148.898,138.971,148.898z M138.971,105.012c7.778,0,14.106,6.328,14.106,14.106s-6.328,14.106-14.106,14.106
	c-7.778,0-14.106-6.328-14.106-14.106S131.193,105.012,138.971,105.012z"/>
<path d="M152.033,176.065c0,11.812,9.609,21.42,21.42,21.42c11.812,0,21.42-9.609,21.42-21.42c0-11.812-9.609-21.42-21.42-21.42
	C161.642,154.645,152.033,164.254,152.033,176.065z M173.453,170.318c3.169,0,5.747,2.578,5.747,5.747
	c0,3.169-2.578,5.747-5.747,5.747c-3.169,0-5.747-2.578-5.747-5.747C167.706,172.896,170.284,170.318,173.453,170.318z"/>
<path d="M384.522,128c16.421,0,29.78-13.359,29.78-29.78s-13.359-29.78-29.78-29.78s-29.78,13.359-29.78,29.78
	S368.102,128,384.522,128z M384.522,84.114c7.778,0,14.106,6.328,14.106,14.106s-6.328,14.106-14.106,14.106
	s-14.106-6.328-14.106-14.106S376.744,84.114,384.522,84.114z"/>
<path d="M327.053,153.6c11.812,0,21.42-9.609,21.42-21.42c0-11.812-9.609-21.42-21.42-21.42c-11.811,0-21.42,9.609-21.42,21.42
	C305.633,143.991,315.242,153.6,327.053,153.6z M327.053,126.433c3.169,0,5.747,2.578,5.747,5.747s-2.578,5.747-5.747,5.747
	s-5.747-2.578-5.747-5.747C321.306,129.01,323.884,126.433,327.053,126.433z"/>
<g>
</g>
<g>
</g>
<g>
</g>
<g>
</g>
<g>
</g>
<g>
</g>
<g>
</g>
<g>
</g>
<g>
</g>
<g>
</g>
<g>
</g>
<g>
</g>
<g>
</g>
<g>
</g>
<g>
</g>
</svg>
