<?xml version="1.0" encoding="iso-8859-1"?>
<!-- Generator: Adobe Illustrator 19.0.0, SVG Export Plug-In . SVG Version: 6.00 Build 0)  -->
<svg version="1.1" id="Layer_1" xmlns="http://www.w3.org/2000/svg" xmlns:xlink="http://www.w3.org/1999/xlink" x="0px" y="0px"
	 viewBox="0 0 512 512" style="enable-background:new 0 0 512 512;" xml:space="preserve">
<path style="fill:#D80027;" d="M221.544,209.252l-25.699,55.108c-14.5,31.105-51.462,44.558-82.567,30.058h-0.01l-0.189-0.094
	c-31.001-14.447-44.4-51.294-29.953-82.284l1.299-2.787L221.544,209.252L221.544,209.252z"/>
<path style="fill:#FFFFFF;" d="M97.005,217.624l4.11-8.815H84.271l-1.312,2.814c-14.592,31.3-1.058,68.516,30.253,83.108
	l0.191,0.095h0.01c2.981,1.389,6.016,2.522,9.078,3.412C94.617,282.238,83.179,247.282,97.005,217.624z"/>
<path style="fill:#BC052F;" d="M221.542,209.25l-25.698,55.11c-14.505,31.107-51.457,44.556-82.567,30.06l-0.199-0.093
	c-3.361-1.567-6.519-3.399-9.453-5.461c28.575,7.661,59.39-6.038,72.327-33.782l21.373-45.834L221.542,209.25z"/>
<path style="fill:#D80027;" d="M290.456,209.252l25.699,55.108c14.5,31.105,51.462,44.558,82.567,30.058h0.01l0.189-0.094
	c31.001-14.447,44.401-51.294,29.953-82.284l-1.299-2.787L290.456,209.252L290.456,209.252z"/>
<path style="fill:#FFFFFF;" d="M414.995,217.624l-4.11-8.815h16.846l1.312,2.814c14.592,31.3,1.058,68.516-30.253,83.108
	l-0.191,0.095h-0.01c-2.981,1.389-6.016,2.522-9.078,3.412C417.383,282.238,428.821,247.282,414.995,217.624z"/>
<path style="fill:#BC052F;" d="M290.458,209.25l25.698,55.11c14.505,31.107,51.457,44.556,82.567,30.06l0.199-0.093
	c3.361-1.567,6.519-3.399,9.453-5.461c-28.575,7.661-59.39-6.038-72.327-33.782l-21.373-45.834L290.458,209.25z"/>
<path d="M76.004,208.717c-7.877,16.892-8.704,35.84-2.33,53.354c5.495,15.097,15.782,27.559,29.334,35.759l-33.739,72.355L0,385.48
	l115.538,53.876L83.23,377.427l34.024-72.964c7.225,2.441,14.718,3.67,22.233,3.67c8.072,0,16.169-1.414,23.981-4.258
	c17.567-6.394,31.595-19.247,39.496-36.191l43.803-93.939l-126.869-59.16L76.004,208.717z M48.658,390.829l21.378-4.72l10.126,19.41
	L48.658,390.829z M225.884,181.346l-37.162,79.696c-12.649,27.124-45.008,38.899-72.14,26.248l-0.194-0.09
	c-13.083-6.104-23.008-16.937-27.947-30.503c-4.939-13.569-4.298-28.25,1.805-41.337l37.253-79.89L225.884,181.346z"/>
<path d="M148.523,263.951c-8.943,3.255-18.621,2.833-27.248-1.189l-0.137-0.064l-6.643,14.242l0.137,0.065
	c6.904,3.22,14.275,4.838,21.672,4.838c5.923,0,11.863-1.038,17.594-3.124c12.89-4.691,23.181-14.122,28.978-26.553l-14.243-6.641
	C164.61,254.151,157.468,260.696,148.523,263.951z"/>
<rect x="106.842" y="201.393" width="92.195" height="15.715"/>
<path d="M397.505,276.94l-6.642-14.242l-0.137,0.064c-17.808,8.304-39.052,0.572-47.359-17.237l-14.242,6.642
	c8.704,18.663,27.267,29.646,46.619,29.646c7.256,0,14.626-1.545,21.624-4.809L397.505,276.94z"/>
<path d="M512,385.48l-69.269-15.294l-33.739-72.355c13.552-8.2,23.84-20.663,29.334-35.76c6.375-17.514,5.547-36.462-2.33-53.354
	l-43.893-94.134l-126.87,59.16l43.804,93.939c7.9,16.944,21.928,29.797,39.495,36.191c7.813,2.843,15.908,4.258,23.982,4.258
	c7.513,0,15.007-1.23,22.232-3.67l34.024,72.965l-32.307,61.929L512,385.48z M431.839,405.519l10.125-19.409l21.377,4.72
	L431.839,405.519z M353.907,289.107c-13.624-4.959-24.502-14.926-30.629-28.065l-37.162-79.696l98.384-45.878l37.254,79.892
	c6.103,13.088,6.743,27.768,1.805,41.337c-4.939,13.569-14.865,24.402-27.953,30.505l-0.198,0.092
	C382.27,293.422,367.529,294.064,353.907,289.107z"/>
<rect x="313.234" y="201.393" width="91.148" height="15.715"/>
<rect x="246.707" y="72.644" width="15.715" height="35.621"/>
<rect x="181.531" y="105.539" transform="matrix(-0.7071 -0.7071 0.7071 -0.7071 260.3185 334.6203)" width="35.862" height="15.715"/>
<rect x="301.809" y="95.467" transform="matrix(-0.7071 -0.7071 0.7071 -0.7071 448.4537 412.5407)" width="15.715" height="35.851"/>
<g>
</g>
<g>
</g>
<g>
</g>
<g>
</g>
<g>
</g>
<g>
</g>
<g>
</g>
<g>
</g>
<g>
</g>
<g>
</g>
<g>
</g>
<g>
</g>
<g>
</g>
<g>
</g>
<g>
</g>
</svg>
